 <!DOCTYPE svg PUBLIC "-//W3C//DTD SVG 1.1//EN" "http://www.w3.org/Graphics/SVG/1.1/DTD/svg11.dtd">
<svg id="a5d3dd73-0b63-4996-bfdf-0b5d1e74bb52" data-name="Layer 1" xmlns="http://www.w3.org/2000/svg" width="865.76" height="682.89" viewBox="0 0 865.76 682.89">
<defs>
<style xmlns="http://www.w3.org/1999/xhtml">*, ::after, ::before { box-sizing: border-box; }
img, svg { vertical-align: middle; }
</style>
<style xmlns="http://www.w3.org/1999/xhtml">*, body, html { -webkit-font-smoothing: antialiased; }
img, svg { max-width: 100%; }
</style>
</defs>
<g id="a9c2bd8a-5ad2-41bd-81ea-96852fb3eed2" data-name="freepik--background-simple--inject-66">
<path d="M771.08,189.4C752.57,108.24,678.49,71.42,607,44.31,509,7.21,397.75-16.64,315.68,64.63c-30,29.56-57.14,62.25-86.44,92.37q-15.06,15.44-30.39,30.57C161.34,224.62,121,260.45,87.07,301,50.54,344.51,21.13,509.24,100,599.86s168.33,60,238.88,45.89,148.26,27.07,243.6,27.07,183.58-30.6,210.64-133S782.52,397.46,779,318.63C777.11,277.22,780.64,231.32,771.08,189.4Z" fill="#1ea70c" data-primary="true"/>
<path d="M771.08,189.4C752.57,108.24,678.49,71.42,607,44.31,509,7.21,397.75-16.64,315.68,64.63c-30,29.56-57.14,62.25-86.44,92.37q-15.06,15.44-30.39,30.57C161.34,224.62,121,260.45,87.07,301,50.54,344.51,21.13,509.24,100,599.86s168.33,60,238.88,45.89,148.26,27.07,243.6,27.07,183.58-30.6,210.64-133S782.52,397.46,779,318.63C777.11,277.22,780.64,231.32,771.08,189.4Z" fill="#fff" opacity="0.7" style="isolation:isolate"/>
</g>
<path d="M241.62,62.05H569.93a25.59,25.59,0,0,1,25.59,25.59V200.9a0,0,0,0,1,0,0H218.16a0,0,0,0,1,0,0V85.51A23.46,23.46,0,0,1,241.62,62.05Z" fill="#1ea70c" data-primary="true"/>
<path d="M218.16,200.9H595.52a0,0,0,0,1,0,0v402.6A20.54,20.54,0,0,1,575,624H238.7a20.54,20.54,0,0,1-20.54-20.54V200.9a0,0,0,0,1,0,0Z" fill="#1ea70c" data-primary="true"/>
<path d="M218.16,200.9H595.52a0,0,0,0,1,0,0v402.6A20.54,20.54,0,0,1,575,624H238.7a20.54,20.54,0,0,1-20.54-20.54V200.9a0,0,0,0,1,0,0Z" fill="#fff" opacity="0.9" style="isolation:isolate"/>
<rect x="245.04" y="94.53" width="326.97" height="79.5" rx="11.37" fill="#fff"/>
<rect x="257.35" y="221.37" width="59.21" height="59.21" rx="7.5" fill="#1ea70c" data-primary="true"/>
<rect x="338.22" y="221.37" width="59.21" height="59.21" rx="7.5" fill="#1ea70c" data-primary="true"/>
<rect x="419.24" y="221.37" width="59.21" height="59.21" rx="7.5" fill="#1ea70c" data-primary="true"/>
<rect x="500.25" y="221.37" width="59.21" height="59.21" rx="7.5" fill="#1ea70c" data-primary="true"/>
<rect x="257.47" y="301.05" width="59.21" height="59.21" rx="7.5" fill="#1ea70c" data-primary="true"/>
<rect x="338.34" y="301.05" width="59.21" height="59.21" rx="7.5" fill="#1ea70c" data-primary="true"/>
<rect x="419.35" y="301.05" width="59.21" height="59.21" rx="7.5" fill="#1ea70c" data-primary="true"/>
<rect x="500.36" y="301.05" width="59.21" height="59.21" rx="7.5" fill="#1ea70c" data-primary="true"/>
<rect x="255.79" y="378.36" width="59.21" height="59.21" rx="7.5" fill="#1ea70c" data-primary="true"/>
<rect x="336.66" y="378.36" width="59.21" height="59.21" rx="7.5" fill="#1ea70c" data-primary="true"/>
<rect x="417.67" y="378.36" width="59.21" height="59.21" rx="7.5" fill="#1ea70c" data-primary="true"/>
<rect x="498.68" y="378.36" width="59.21" height="59.21" rx="7.5" fill="#1ea70c" data-primary="true"/>
<rect x="255.79" y="455.68" width="59.21" height="59.21" rx="7.5" fill="#1ea70c" data-primary="true"/>
<rect x="336.66" y="455.68" width="59.21" height="59.21" rx="7.5" fill="#1ea70c" data-primary="true"/>
<rect x="417.67" y="455.68" width="59.21" height="59.21" rx="7.5" fill="#1ea70c" data-primary="true"/>
<rect x="255.72" y="535.35" width="59.21" height="59.21" rx="7.5" fill="#1ea70c" data-primary="true"/>
<rect x="336.59" y="535.35" width="59.21" height="59.21" rx="7.5" fill="#1ea70c" data-primary="true"/>
<rect x="417.6" y="535.35" width="59.21" height="59.21" rx="7.5" fill="#1ea70c" data-primary="true"/>
<rect x="498.68" y="455.68" width="59.21" height="138.88" rx="7.5" fill="#1ea70c" data-primary="true"/>
<path d="M265.17,112.78v14.84l-4.69,4.69-1.56-1.56V110.44Zm-6.25,43V135.44l1.56-1.57,4.69,4.69V153.4Zm27.34,5.47H262.82a5,5,0,0,1-3.9-3.91l6.25-2.34h18.75Zm-2.34-50H265.24L259,108.87a5,5,0,0,1,3.91-3.9h23.36Zm1.56,16.4v-16.4l2.34-6.25a5,5,0,0,1,3.91,3.9v21.88l-1.56,1.56Zm4.69,6.25,1.56,1.57v21.87a5,5,0,0,1-3.91,3.91L285.48,155V138.56Z" fill="#e6e7e8"/>
<path d="M304.15,112.78v14.84l-4.69,4.69-1.56-1.56V110.44Zm-6.25,43V135.44l1.56-1.57,4.69,4.69V153.4Zm27.34,5.47H301.81a5,5,0,0,1-3.91-3.91l6.25-2.34H322.9Zm-2.34-50H304.23L298,108.87a5,5,0,0,1,3.9-3.9h23.36Zm1.56,16.4v-16.4L326.8,105a5,5,0,0,1,3.91,3.9v21.88l-1.56,1.56Zm4.69,6.25,1.56,1.57v21.87a5,5,0,0,1-3.91,3.91L324.46,155V138.56Z" fill="#e6e7e8"/>
<path d="M343.13,112.78v14.84l-4.69,4.69-1.56-1.56V110.44Zm-6.25,43V135.44l1.56-1.57,4.69,4.69V153.4Zm27.34,5.47H340.79a5,5,0,0,1-3.91-3.91l6.25-2.34h18.75Zm-2.34-50H343.21L337,108.87a5,5,0,0,1,3.91-3.9h23.35Zm1.56,16.4v-16.4l2.35-6.25a5,5,0,0,1,3.9,3.9v21.88l-1.56,1.56Zm4.69,6.25,1.56,1.57v21.87a5,5,0,0,1-3.9,3.91L363.44,155V138.56Z" fill="#e6e7e8"/>
<path d="M382.11,112.78v14.84l-4.68,4.69-1.56-1.56V110.44Zm-6.24,43V135.44l1.56-1.57,4.68,4.69V153.4Zm27.34,5.47H379.77a5,5,0,0,1-3.9-3.91l6.24-2.34h18.75Zm-2.35-50H382.19l-6.25-2.35a5,5,0,0,1,3.91-3.9h23.36Zm1.57,16.4v-16.4l2.34-6.25a5,5,0,0,1,3.91,3.9v21.88l-1.57,1.56Zm4.68,6.25,1.57,1.57v21.87a5,5,0,0,1-3.91,3.91L402.43,155V138.56Z" fill="#e6e7e8"/>
<path d="M421.1,112.78v14.84l-4.69,4.69-1.56-1.56V110.44Zm-6.25,43V135.44l1.56-1.57,4.69,4.69V153.4Zm27.34,5.47H418.75a5,5,0,0,1-3.9-3.91L421.1,155h18.75Zm-2.34-50H421.18l-6.25-2.35a5,5,0,0,1,3.9-3.9h23.36Zm1.56,16.4v-16.4l2.34-6.25a5,5,0,0,1,3.91,3.9v21.88l-1.56,1.56Zm4.69,6.25,1.56,1.57v21.87a5,5,0,0,1-3.91,3.91L441.41,155V138.56Z" fill="#e6e7e8"/>
<path d="M460.08,112.78v14.84l-4.69,4.69-1.56-1.56V110.44Zm-6.25,43V135.44l1.56-1.57,4.69,4.69V153.4Zm27.34,5.47H457.74a5,5,0,0,1-3.91-3.91l6.25-2.34h18.75Zm-2.34-50H460.16l-6.25-2.35a5,5,0,0,1,3.91-3.9h23.35Zm1.56,16.4v-16.4l2.35-6.25a5,5,0,0,1,3.9,3.9v21.88l-1.56,1.56Zm4.69,6.25,1.56,1.57v21.87a5,5,0,0,1-3.9,3.91L480.39,155V138.56Z" fill="#e6e7e8"/>
<path d="M499.06,112.78v14.84l-4.68,4.69-1.57-1.56V110.44Zm-6.25,43V135.44l1.57-1.57,4.68,4.69V153.4Zm27.35,5.47H496.72a5,5,0,0,1-3.91-3.91l6.25-2.34h18.75Zm-2.35-50H499.14l-6.25-2.35a5,5,0,0,1,3.91-3.9h23.36Zm1.57,16.4v-16.4l2.34-6.25a5,5,0,0,1,3.91,3.9v21.88l-1.57,1.56Zm4.68,6.25,1.57,1.57v21.87a5,5,0,0,1-3.91,3.91L519.38,155V138.56Z" fill="#e6e7e8"/>
<path d="M538.05,112.78v14.84l-4.69,4.69-1.56-1.56V110.44Zm-6.25,43V135.44l1.56-1.57,4.69,4.69V153.4Zm27.34,5.47H535.7a5,5,0,0,1-3.9-3.91l6.25-2.34H556.8Zm-2.34-50H538.12l-6.25-2.35a5,5,0,0,1,3.91-3.9h23.36Zm1.56,16.4v-16.4L560.7,105a5,5,0,0,1,3.91,3.9v21.88l-1.56,1.56Zm4.69,6.25,1.56,1.57v21.87a5,5,0,0,1-3.91,3.91L558.36,155V138.56Z" fill="#e6e7e8"/>
<path d="M402.43,127.62v-16.4l2.34-6.25a5,5,0,0,1,3.91,3.9v21.88l-1.57,1.56Zm4.68,6.25,1.57,1.57v21.87a5,5,0,0,1-3.91,3.91L402.43,155V138.56Z" fill="#2f2e41" data-secondary="true"/>
<path d="M414.85,155.75V135.44l1.56-1.57,4.69,4.69V153.4Zm29.68,5.47H418.75a5,5,0,0,1-3.9-3.91L421.1,155h21.09Zm-4.68-50H421.18l-6.25-2.35a5,5,0,0,1,3.9-3.9h23.36ZM441.41,130l3.12,3.12-3.12,3.13H421.1L418,133.09,421.1,130Zm0-2.35v-16.4l2.34-6.25a5,5,0,0,1,3.91,3.9v21.88l-1.56,1.56Z" fill="#2f2e41" data-secondary="true"/>
<path d="M481.17,161.22H457.74a5,5,0,0,1-3.91-3.91l6.25-2.34h18.75Zm-2.34-50H460.16l-6.25-2.35a5,5,0,0,1,3.91-3.9h23.35ZM480.39,130l3.13,3.12-3.13,3.13H460.08L457,133.09l3.12-3.12Zm0-2.35v-16.4l2.35-6.25a5,5,0,0,1,3.9,3.9v21.88l-1.56,1.56Zm4.69,6.25,1.56,1.57v21.87a5,5,0,0,1-3.9,3.91L480.39,155V138.56Z" fill="#2f2e41" data-secondary="true"/>
<path d="M499.06,112.78v14.84l-4.68,4.69-1.57-1.56V110.44Zm-6.25,43V135.44l1.57-1.57,4.68,4.69V153.4Zm27.35,5.47H496.72a5,5,0,0,1-3.91-3.91l6.25-2.34h18.75Zm-2.35-50H499.14l-6.25-2.35a5,5,0,0,1,3.91-3.9h23.36Zm1.57,16.4v-16.4l2.34-6.25a5,5,0,0,1,3.91,3.9v21.88l-1.57,1.56Zm4.68,6.25,1.57,1.57v21.87a5,5,0,0,1-3.91,3.91L519.38,155V138.56Z" fill="#2f2e41" data-secondary="true"/>
<path d="M538.05,112.78v14.84l-4.69,4.69-1.56-1.56V110.44Zm-6.25,43V135.44l1.56-1.57,4.69,4.69V153.4Zm27.34,5.47H535.7a5,5,0,0,1-3.9-3.91l6.25-2.34H556.8Zm-2.34-50H538.12l-6.25-2.35a5,5,0,0,1,3.91-3.9h23.36Zm1.56,16.4v-16.4L560.7,105a5,5,0,0,1,3.91,3.9v21.88l-1.56,1.56Zm4.69,6.25,1.56,1.57v21.87a5,5,0,0,1-3.91,3.91L558.36,155V138.56Z" fill="#2f2e41" data-secondary="true"/>
<path d="M281.36,257.7h-8l-1.67,4.8H268l7.8-20.65H279l7.81,20.65h-3.74Zm-7-2.9h6l-3-8.56Z" fill="#2f2e41" data-secondary="true"/>
<path d="M304.59,255.78a7.49,7.49,0,0,1-2.44,5.16,8.33,8.33,0,0,1-5.66,1.85,8,8,0,0,1-4.34-1.17,7.62,7.62,0,0,1-2.9-3.33,11.87,11.87,0,0,1-1.07-5v-1.93a12.08,12.08,0,0,1,1-5.15,7.75,7.75,0,0,1,3-3.43,8.22,8.22,0,0,1,4.47-1.21,8,8,0,0,1,5.51,1.85,7.75,7.75,0,0,1,2.42,5.24H301a5.14,5.14,0,0,0-1.3-3.21,4.28,4.28,0,0,0-3.06-1,4.17,4.17,0,0,0-3.59,1.71,8.55,8.55,0,0,0-1.29,5V253a9,9,0,0,0,1.2,5.11,4,4,0,0,0,3.51,1.76,4.61,4.61,0,0,0,3.18-.95,4.93,4.93,0,0,0,1.35-3.16Z" fill="#2f2e41" data-secondary="true"/>
<path d="M376,256.07a7.49,7.49,0,0,1-2.44,5.16,8.31,8.31,0,0,1-5.66,1.85,8,8,0,0,1-4.34-1.17,7.62,7.62,0,0,1-2.9-3.33,12,12,0,0,1-1.07-5v-1.93a12.08,12.08,0,0,1,1-5.15,7.75,7.75,0,0,1,3-3.43,8.22,8.22,0,0,1,4.47-1.21,8,8,0,0,1,5.51,1.85A7.71,7.71,0,0,1,376,249h-3.57a5.08,5.08,0,0,0-1.3-3.21,4.27,4.27,0,0,0-3.06-1,4.18,4.18,0,0,0-3.59,1.71,8.5,8.5,0,0,0-1.28,5v1.83a9.12,9.12,0,0,0,1.19,5.11,4,4,0,0,0,3.51,1.76,4.61,4.61,0,0,0,3.18-.95,4.93,4.93,0,0,0,1.35-3.16Z" fill="#2f2e41" data-secondary="true"/>
<path d="M439.49,244.63a4.16,4.16,0,0,1,1.21-3.07,4.37,4.37,0,0,1,7.54,3.14v1a4.14,4.14,0,0,1-1.19,3.05,4.32,4.32,0,0,1-3.16,1.19,4.43,4.43,0,0,1-3.16-1.17,4.15,4.15,0,0,1-1.24-3.15Zm2.41,1.09a2.28,2.28,0,0,0,.55,1.58,1.85,1.85,0,0,0,1.44.61,1.82,1.82,0,0,0,1.42-.61,2.37,2.37,0,0,0,.54-1.64v-1a2.33,2.33,0,0,0-.55-1.59,1.82,1.82,0,0,0-1.44-.61,1.75,1.75,0,0,0-1.42.62,2.37,2.37,0,0,0-.54,1.62Zm2.7,14-1.77-1,10.08-16.14,1.77,1Zm4.82-3.52a4.05,4.05,0,0,1,1.23-3.07,4.81,4.81,0,0,1,6.31,0,4.17,4.17,0,0,1,1.23,3.17v1a4.15,4.15,0,0,1-1.19,3,4.24,4.24,0,0,1-3.17,1.2,4.39,4.39,0,0,1-3.2-1.18,4.17,4.17,0,0,1-1.21-3.13Zm2.41,1.1a2.28,2.28,0,0,0,.56,1.58,1.88,1.88,0,0,0,1.44.62,1.82,1.82,0,0,0,1.43-.59,2.48,2.48,0,0,0,.52-1.66v-1.06a2.25,2.25,0,0,0-.56-1.59,2,2,0,0,0-2.84,0,2.33,2.33,0,0,0-.55,1.65Z" fill="#2f2e41" data-secondary="true"/>
<path d="M520.13,253.37l-.1-2,19-.28.1,2Z" fill="#2f2e41" data-secondary="true"/>
<path d="M294.23,322.24,286,341h-3.62l8.24-17.89H279.92v-2.76h14.31Z" fill="#2f2e41" data-secondary="true"/>
<path d="M372,325.77a4.81,4.81,0,0,1-.78,2.71,5.36,5.36,0,0,1-2.13,1.86,5.87,5.87,0,0,1,2.49,2.06,5.19,5.19,0,0,1,.87,3,5.43,5.43,0,0,1-1.84,4.32,8.39,8.39,0,0,1-9.84,0,5.43,5.43,0,0,1-1.85-4.31,5.22,5.22,0,0,1,.88-3,5.65,5.65,0,0,1,2.47-2,5.37,5.37,0,0,1-2.11-1.86,4.88,4.88,0,0,1-.77-2.71,5.39,5.39,0,0,1,1.7-4.18,7.6,7.6,0,0,1,9.2,0A5.36,5.36,0,0,1,372,325.77Zm-3,9.41a3.42,3.42,0,0,0-.91-2.48,3.22,3.22,0,0,0-2.42-.94,3.16,3.16,0,0,0-2.4.94,3.42,3.42,0,0,0-.9,2.48,3.3,3.3,0,0,0,.88,2.42,3.77,3.77,0,0,0,4.88,0A3.33,3.33,0,0,0,369,335.18Zm-.44-9.28a3.2,3.2,0,0,0-.78-2.22,2.67,2.67,0,0,0-2.09-.87,2.72,2.72,0,0,0-2.09.83,3.68,3.68,0,0,0,0,4.52,3,3,0,0,0,4.18,0A3.18,3.18,0,0,0,368.52,325.9Z" fill="#2f2e41" data-secondary="true"/>
<path d="M452.22,332.44a5.63,5.63,0,0,1-8.38-.08,7.46,7.46,0,0,1-1.61-5,8.18,8.18,0,0,1,.82-3.7,6.1,6.1,0,0,1,2.34-2.58,6.58,6.58,0,0,1,3.52-.93,5.94,5.94,0,0,1,4.94,2.33,9.81,9.81,0,0,1,1.83,6.23v1q0,5.59-2.52,8.52t-7.53,3h-.41v-2.85h.49a7,7,0,0,0,4.68-1.47A6.08,6.08,0,0,0,452.22,332.44Zm-3.31-.86a3.46,3.46,0,0,0,1.94-.6,4,4,0,0,0,1.4-1.65V328a6.52,6.52,0,0,0-.93-3.68,2.85,2.85,0,0,0-2.43-1.39,2.78,2.78,0,0,0-2.37,1.23,5.9,5.9,0,0,0,0,6.23A2.83,2.83,0,0,0,448.91,331.58Z" fill="#2f2e41" data-secondary="true"/>
<path d="M529.21,326.93l5.12-7.13,4.17,3-5.12,7.13,8.11,5.83-3.18,4.43-8.11-5.84-5.15,7.16-4.16-3,5.14-7.16-7.59-5.46,3.18-4.42Z" fill="#2f2e41" data-secondary="true"/>
<path d="M290.34,410.93h2.57v2.77h-2.57v4.59H286.9V413.7H278l-.1-2.1,8.9-14h3.56Zm-8.85,0h5.41v-8.62l-.26.45Z" fill="#2f2e41" data-secondary="true"/>
<path d="M289.64,495.64h-3.43V479.05l-5.06,1.73v-2.9l8.05-3h.44Z" fill="#2f2e41" data-secondary="true"/>
<path d="M373,566.59q0,4.45-1.67,6.71a5.88,5.88,0,0,1-5.07,2.27,6,6,0,0,1-5-2.21q-1.69-2.21-1.74-6.53v-3.57q0-4.46,1.67-6.68a6.94,6.94,0,0,1,10.14-.06q1.67,2.18,1.71,6.49Zm-3.45-3.86a8.72,8.72,0,0,0-.79-4.26,3,3,0,0,0-5-.07,8,8,0,0,0-.83,4v4.69a9.11,9.11,0,0,0,.8,4.31,2.73,2.73,0,0,0,2.54,1.42,2.67,2.67,0,0,0,2.46-1.32,8.31,8.31,0,0,0,.83-4.1Z" fill="#2f2e41" data-secondary="true"/>
<path d="M453.32,563.38H441.09v-2.86h12.23Zm0,6H441.09v-2.85h12.23Z" fill="#2f2e41" data-secondary="true"/>
<path d="M531.16,522.29h8.58v5h-8.58v9.77h-5.33v-9.77h-8.62v-5h8.62v-9.14h5.33Z" fill="#2f2e41" data-secondary="true"/>
<path d="M285.32,563.06a2,2,0,0,1,1.49.55,1.93,1.93,0,0,1,.52,1.37,1.87,1.87,0,0,1-.52,1.34,2,2,0,0,1-1.49.53,2,2,0,0,1-1.46-.52,1.8,1.8,0,0,1-.54-1.35,1.89,1.89,0,0,1,.52-1.37A2,2,0,0,1,285.32,563.06Z" fill="#2f2e41" data-secondary="true"/>
<path d="M373.4,495.75H359.52v-2.37l6.88-7.5a17.07,17.07,0,0,0,2.12-2.78,4.47,4.47,0,0,0,.63-2.23,3.4,3.4,0,0,0-.83-2.38,2.86,2.86,0,0,0-2.23-.91,3.33,3.33,0,0,0-2.6,1,4,4,0,0,0-.92,2.79h-3.45A6.78,6.78,0,0,1,360,478a5.91,5.91,0,0,1,2.45-2.35,7.8,7.8,0,0,1,3.68-.84,7,7,0,0,1,4.75,1.51,5.25,5.25,0,0,1,1.74,4.18,7,7,0,0,1-.88,3.24,18.24,18.24,0,0,1-2.85,3.85L363.82,493h9.58Z" fill="#2f2e41" data-secondary="true"/>
<path d="M444.84,483.71h2.1a3.75,3.75,0,0,0,2.51-.83,2.91,2.91,0,0,0,.93-2.34,3.24,3.24,0,0,0-.77-2.29,3.13,3.13,0,0,0-2.36-.81,3.33,3.33,0,0,0-2.29.8,2.68,2.68,0,0,0-.89,2.09h-3.45a5.15,5.15,0,0,1,.85-2.89,5.65,5.65,0,0,1,2.35-2,7.79,7.79,0,0,1,3.38-.73,7.06,7.06,0,0,1,4.86,1.56,5.42,5.42,0,0,1,1.77,4.31,4.41,4.41,0,0,1-.89,2.62,5.46,5.46,0,0,1-2.29,1.85,4.81,4.81,0,0,1,3.48,4.81,5.54,5.54,0,0,1-1.91,4.42,8.36,8.36,0,0,1-9.89.06,5.23,5.23,0,0,1-1.91-4.22h3.45a2.9,2.9,0,0,0,.92,2.21,3.5,3.5,0,0,0,2.46.85,3.59,3.59,0,0,0,2.52-.85,3.18,3.18,0,0,0,.92-2.47,3.23,3.23,0,0,0-1-2.51,4.11,4.11,0,0,0-2.87-.88h-2Z" fill="#2f2e41" data-secondary="true"/>
<path d="M360.14,407.91l1.12-10.41h11.1v3h-8.23l-.57,4.93a6.47,6.47,0,0,1,3.24-.82,5.74,5.74,0,0,1,4.58,1.89,7.44,7.44,0,0,1,1.64,5.08,6.88,6.88,0,0,1-1.81,5,6.64,6.64,0,0,1-5,1.86,6.9,6.9,0,0,1-4.7-1.61,5.76,5.76,0,0,1-2-4.24h3.33a3.59,3.59,0,0,0,1.08,2.3,3.23,3.23,0,0,0,2.29.8,3,3,0,0,0,2.48-1.13,4.91,4.91,0,0,0,.89-3.09,4.34,4.34,0,0,0-1-3,3.45,3.45,0,0,0-2.7-1.1,4.42,4.42,0,0,0-1.59.25,4.79,4.79,0,0,0-1.42,1Z" fill="#2f2e41" data-secondary="true"/>
<path d="M451.06,397.45v2.85h-.42a6.88,6.88,0,0,0-4.63,1.59,6.62,6.62,0,0,0-2.05,4.38,5.59,5.59,0,0,1,4.24-1.74,5.29,5.29,0,0,1,4.32,1.93,7.59,7.59,0,0,1,1.58,5,7.12,7.12,0,0,1-1.85,5.1,6.41,6.41,0,0,1-4.86,2,6.24,6.24,0,0,1-5-2.28,8.94,8.94,0,0,1-1.93-6V409q0-5.43,2.65-8.51t7.61-3.08Zm-3.7,9.86a3.6,3.6,0,0,0-2.08.64,3.66,3.66,0,0,0-1.38,1.7v1.05a6.19,6.19,0,0,0,1,3.65,3,3,0,0,0,2.5,1.35,2.91,2.91,0,0,0,2.43-1.15,4.8,4.8,0,0,0,.89-3,4.85,4.85,0,0,0-.91-3A2.89,2.89,0,0,0,447.36,407.31Z" fill="#2f2e41" data-secondary="true"/>
<path d="M534.37,409.36H522.2v-2.78h12.17Z" fill="#2f2e41" data-secondary="true"/>
<path d="M527.66,241.19a4.14,4.14,0,0,1,3.23-.65,4.78,4.78,0,0,1,3.44,5.33,4.21,4.21,0,0,1-2,2.71l-.86.56a4.13,4.13,0,0,1-3.22.64,4.3,4.3,0,0,1-2.71-2,4.42,4.42,0,0,1-.72-3.29,4.1,4.1,0,0,1,2-2.75Z" fill="#2f2e41" data-secondary="true"/>
<path d="M528.05,243.81a2.24,2.24,0,0,0-1,1.31,1.86,1.86,0,0,0,.27,1.54,1.84,1.84,0,0,0,1.28.87,2.42,2.42,0,0,0,1.67-.44l.87-.56a2.3,2.3,0,0,0,1-1.33,1.83,1.83,0,0,0-.26-1.54,1.79,1.79,0,0,0-1.3-.86,2.4,2.4,0,0,0-1.65.44Z" fill="#1ea70c" data-primary="true"/>
<path d="M527.67,255.76a4,4,0,0,1,3.26-.63,4.83,4.83,0,0,1,3.42,5.3,4.21,4.21,0,0,1-2,2.75l-.84.55a4.18,4.18,0,0,1-3.2.65,4.27,4.27,0,0,1-2.73-2,4.41,4.41,0,0,1-.74-3.33,4.21,4.21,0,0,1,2-2.72Z" fill="#2f2e41" data-secondary="true"/>
<path d="M528.06,258.38a2.24,2.24,0,0,0-1,1.33,2,2,0,0,0,1.53,2.42,2.44,2.44,0,0,0,1.67-.46l.89-.58a2.27,2.27,0,0,0,1-1.32,1.89,1.89,0,0,0-.27-1.52,1.86,1.86,0,0,0-1.28-.87,2.31,2.31,0,0,0-1.67.43Z" fill="#1ea70c" data-primary="true"/>
<path d="M683.31,323.79l-4.15,56.15s5,80.2,7.89,97.23-1.66,59.44.41,68.55S688.7,569,688.7,569s-3.31,4.57-2.06,7.07a22.41,22.41,0,0,1,1.65,6.23l-5.4,5.4c-2.07,2.09-13.29,10.8-15.78,12.88s-2.92,3.74,2.9,5.41,20.77,1.24,23.69.41,9.14-5.39,14.95-6.65,10.39-1.25,11.64-2.49,0-14.54,0-14.54,1.24-6.65.82-8.73-4.56-13.29-4.56-13.29,3.31-27,2.49-42.38,1.25-43.61,1.25-43.61-.44-22.43.39-24.92,6.67,29.47,8.32,34.88,17,89.38,17.88,91.46a16.24,16.24,0,0,1,.82,5,4.33,4.33,0,0,0-2.07,2.92,38,38,0,0,0,0,7.07,39,39,0,0,1-2.91,7.9c-1.66,2.83-12.05,8.3-8.72,12.45s12.88,2.92,24.06,1.67,20.77-8.83,20.77-8.83,2.08-2.08,1.25-6.65S778,592.24,778,591a85.07,85.07,0,0,0,.41-12c-.41-5-3.33-9.61-4.16-14.16s-2.49-12-2.07-15.36,1.25-31.14,0-39.47-4.16-27.43-4.57-34.9S773,388.22,773,388.22l-3.93-64.61Z" fill="#2f2e41" data-secondary="true"/>
<path d="M683.31,323.79l-4.15,56.15s5,80.2,7.89,97.23-1.66,59.44.41,68.55S688.7,569,688.7,569s-3.31,4.57-2.06,7.07a22.41,22.41,0,0,1,1.65,6.23l-5.4,5.4c-2.07,2.09-13.29,10.8-15.78,12.88s-2.92,3.74,2.9,5.41,20.77,1.24,23.69.41,9.14-5.39,14.95-6.65,10.39-1.25,11.64-2.49,0-14.54,0-14.54,1.24-6.65.82-8.73-4.56-13.29-4.56-13.29,3.31-27,2.49-42.38,1.25-43.61,1.25-43.61-.44-22.43.39-24.92,6.67,29.47,8.32,34.88,17,89.38,17.88,91.46a16.24,16.24,0,0,1,.82,5,4.33,4.33,0,0,0-2.07,2.92,38,38,0,0,0,0,7.07,39,39,0,0,1-2.91,7.9c-1.66,2.83-12.05,8.3-8.72,12.45s12.88,2.92,24.06,1.67,20.77-8.83,20.77-8.83,2.08-2.08,1.25-6.65S778,592.24,778,591a85.07,85.07,0,0,0,.41-12c-.41-5-3.33-9.61-4.16-14.16s-2.49-12-2.07-15.36,1.25-31.14,0-39.47-4.16-27.43-4.57-34.9S773,388.22,773,388.22l-3.93-64.61Z" opacity="0.2" style="isolation:isolate"/>
<path d="M610.23,267.24s-8-7.24-9.56-8.63-8.11-1.16-8.11-1.16-14.82,1.85-16.2,1.61-4.86-1.85-5.1.47a4.85,4.85,0,0,0,3.48,4.85c1.62.24,11.11,2.1,11.11,2.1s-13.2,6.71-12.74,7.4,11.81,10.88,15.57,12.74,20.62,1,20.62,1Z" fill="#f9b499"/>
<path d="M589.56,273.24a2.25,2.25,0,0,1-.77-.11l-34.48-10.42c-1.42-.41-5.48-2.93-5-4.24s5.18-1.1,6.55-.68l34.5,10.36a2.6,2.6,0,0,1-.75,5.09Z" fill="#2f2e41" data-secondary="true"/>
<path d="M568,267.33s-.58,3.89,1.41,4.87,4.86,0,5.25-1.42l.39-1.41Z" fill="#f7a48b"/>
<path d="M578.11,270.44s-6.81,4.25-7.08,5.05A5.5,5.5,0,0,0,574,279.2c1.16.18,13-5.07,13.22-6.42s-2.33-4.09-4.24-4.09A12.6,12.6,0,0,0,578.11,270.44Z" fill="#f7a48b"/>
<path d="M575.78,279.38s2,4.48,3.5,4.87,9.73-5.05,11.09-6.42a2.75,2.75,0,0,0,.06-3.88,2.72,2.72,0,0,0-1.64-.82C586.09,272.78,575.78,279.38,575.78,279.38Z" fill="#f7a48b"/>
<path d="M581.22,284.45s3.89,4.25,4.87,3.89,8.17-6,8.17-7.58-3.9-2.93-3.9-2.93Z" fill="#f7a48b"/>
<path d="M601.64,276.79c-6.58,0-9.9-6.53-9.9-6.82a.71.71,0,0,1,1.27-.62h0s3,6,8.69,6a.71.71,0,1,1,0,1.42Z" fill="#f7a48b"/>
<path d="M687.07,205.66l-16.64,62.49s-5.66-2.83-6.9-.82l-1.22,2-43.5-1.63-2,25.61s44.32,8.94,49.19,11S685.08,306,685.08,306l8.49-91.87Z" fill="#1ea70c" data-primary="true"/>
<path d="M669,282a.67.67,0,0,1-.62-.36l-6.72-12a.7.7,0,0,1,.32-.95.71.71,0,0,1,.91.25l6.72,12a.71.71,0,0,1-.27,1A.77.77,0,0,1,669,282Z" opacity="0.2" style="isolation:isolate"/>
<path d="M676.5,278.52a.73.73,0,0,1-.55-.25l-4-4.84a.72.72,0,0,1,0-1,.71.71,0,0,1,1,0,.47.47,0,0,1,.09.12l4,4.83a.72.72,0,0,1-.09,1A.75.75,0,0,1,676.5,278.52Z" opacity="0.2" style="isolation:isolate"/>
<path d="M616.94,289.94h0l-8.11-.23a.79.79,0,0,1-.51-.24.72.72,0,0,1-.17-.51l1.42-21.76a.69.69,0,0,1,.73-.66l8.59.46a.79.79,0,0,1,.5.24.74.74,0,0,1,.17.53l-1.87,21.52A.7.7,0,0,1,616.94,289.94Z" fill="#2f2e41" data-secondary="true"/>
<path d="M726.9,196.26l-11.76-1.17S683.32,327.2,685.57,328,735,330.57,735,330.57l28-142.12-8.61-1.87Z" fill="#fff"/>
<path d="M735,331.28h0c-4.84-.19-47.29-1.9-49.53-2.65-1-.34-2-.68,13.47-67.56,7.59-32.74,15.57-65.81,15.64-66.15a.69.69,0,0,1,.75-.54l11.61,1.16,27.34-9.64a.86.86,0,0,1,.39,0l8.61,1.87a.7.7,0,0,1,.53.82L735.64,330.71A.72.72,0,0,1,735,331.28Zm-48.79-3.92c3.69.55,30.15,1.77,48.21,2.47L762.17,189l-7.72-1.69-27.3,9.63a.81.81,0,0,1-.31,0l-11.14-1.11C703.59,246.09,686.13,321,686.15,327.36Z" fill="#263238"/>
<polygon points="720.09 207.6 722.37 219.78 696.58 325.02 706.49 343.11 722.37 325.81 725.76 219.78 733.42 207.31 726.89 196.26 720.09 207.6" fill="#2f2e41" data-secondary="true"/>
<polygon points="725.96 201.61 734.55 217.8 760.63 186.62 756.32 182 725.96 201.61" fill="#1ea70c" data-primary="true"/>
<polygon points="725.96 201.61 734.55 217.8 760.63 186.62 756.32 182 725.96 201.61" fill="#fff" opacity="0.7" style="isolation:isolate"/>
<path d="M726,201.61l-10.91,11.94q2-6.08,4.21-12.41,1.83-5.13,3.71-10Z" fill="#1ea70c" data-primary="true"/>
<path d="M726,201.61l-10.91,11.94q2-6.08,4.21-12.41,1.83-5.13,3.71-10Z" fill="#fff" opacity="0.7" style="isolation:isolate"/>
<path d="M723,191.12s-12.33,31.39-16.45,55.32S676.6,362.76,675.1,369.12s.75,8.23-1.5,6.36-1.87-12.73-1.12-24.69,5.24-39.62,5.24-39.62l7.49-66.2s0-37.78,1.86-39.27S723,191.12,723,191.12Z" fill="#1ea70c" data-primary="true"/>
<path d="M704,249.44h0a.71.71,0,0,1-.66-.75h0L704.88,222a.68.68,0,0,1,.08-.31l6.57-11.32-2.72-2.72a.73.73,0,0,1-.14-.82l5.87-12a.72.72,0,0,1,1-.33.71.71,0,0,1,.32.95L710.15,207l2.75,2.83a.71.71,0,0,1,.11.85l-6.75,11.66-1.54,26.55A.71.71,0,0,1,704,249.44Z" opacity="0.2" style="isolation:isolate"/>
<path d="M760.63,186.62s-19,34-25.32,53.78S723,297.61,724.09,305.1s16.09,71.06,17.58,72.93a19.92,19.92,0,0,0,5.23,3.74s19.49,4,31.14.62S798.92,370,798.92,370s-18-43.26-19.1-51.87-1.49-15-1.49-15S800,203.72,798.9,201.48,760.63,186.62,760.63,186.62Z" fill="#1ea70c" data-primary="true"/>
<path d="M733.8,256.59a.85.85,0,0,1-.38-.12.7.7,0,0,1-.21-1l4.58-7.16a.71.71,0,1,1,1.23.7l0,.06-4.63,7.18A.71.71,0,0,1,733.8,256.59Z" opacity="0.2" style="isolation:isolate"/>
<path d="M741.6,244.49a.81.81,0,0,1-.38-.12.7.7,0,0,1-.22-1l18.4-28.46-5.55-6.44a.73.73,0,0,1-.15-.65.66.66,0,0,1,.45-.48l9.61-3.3,3.93-12.73a.71.71,0,0,1,1.35.41l-4,13.06a.72.72,0,0,1-.45.45l-8.94,3.07,5.21,6a.74.74,0,0,1,0,.85l-18.61,28.91A.71.71,0,0,1,741.6,244.49Z" opacity="0.2" style="isolation:isolate"/>
<path d="M772.72,229.94l4.48,51.38s-2.62.37-3.37,2.24l-.75,1.87-24.68,4.51,1.87,26.18,42.27-6s11.59,0,15.71-3,7.47-10.84,7.47-15.32-3.41-16-3.41-16l-8.18-58.22s2.62-7.07-.37-13.45-28.43-10.47-28.43-10.47" fill="#1ea70c" data-primary="true"/>
<path d="M783.5,240.48a.53.53,0,0,1-.35-.1.71.71,0,0,1-.27-1c4.24-7.56,10.16-17.25,14.08-20.48a.72.72,0,0,1,1,0,.71.71,0,0,1,0,1,.31.31,0,0,1-.11.09c-2.92,2.41-7.8,9.54-13.74,20.08A.7.7,0,0,1,783.5,240.48Z" opacity="0.2" style="isolation:isolate"/>
<path d="M779.07,248.62a.81.81,0,0,1-.31,0,.71.71,0,0,1-.32-1h0s1.06-2,2.71-5.08a.71.71,0,0,1,1-.29h0a.73.73,0,0,1,.28,1c-1.64,3-2.7,5.05-2.7,5.05A.71.71,0,0,1,779.07,248.62Z" opacity="0.2" style="isolation:isolate"/>
<path d="M779.82,238.9a.53.53,0,0,1-.25,0,.7.7,0,0,1-.4-.92h0c1.51-3.78,8.05-12.16,8.32-12.51a.72.72,0,0,1,1-.13.75.75,0,0,1,.12,1c-.07.08-6.68,8.56-8.12,12.17A.73.73,0,0,1,779.82,238.9Z" opacity="0.2" style="isolation:isolate"/>
<path d="M795.53,285.78h-.17L779.65,282a.73.73,0,0,1-.54-.88.72.72,0,0,1,.88-.53l15.71,3.73a.74.74,0,0,1,.52.86A.71.71,0,0,1,795.53,285.78Z" opacity="0.2" style="isolation:isolate"/>
<polygon points="748.4 289.94 741.3 290.69 743.54 313.87 749.9 313.12 748.4 289.94" fill="#2f2e41" data-secondary="true"/>
<path d="M741.3,290.68s-17.08-7.21-19-7.59a8.61,8.61,0,0,0-4.74.77c-.94.38-5.87,2.83-8.33,3s-4.16.95-3.6,2.28,3.8,2.65,3.8,2.65S706,294.64,706,295.4s2.08,5.13,2.64,5.13a7.61,7.61,0,0,1,2.08.75s3.41,6.82,4.36,8.49,4,2.08,5.12,2.08a41.82,41.82,0,0,0,9.47.75c4.73-.37,13.26-3.78,13.26-3.78Z" fill="#f9b499"/>
<path d="M709.49,292.52a.71.71,0,0,1-.4-1.29l0,0c.89-.56,8.74-5.66,11.46-6a.72.72,0,0,1,.2,1.42c-2,.28-8.49,4.24-10.88,5.76A.79.79,0,0,1,709.49,292.52Z" fill="#f7a48b"/>
<path d="M710.76,302a.65.65,0,0,1-.44-.15.69.69,0,0,1-.12-1v0a52.28,52.28,0,0,1,3.92-4.49,29.12,29.12,0,0,1,3-1.61c.69-.37,1.41-.74,1.61-.86a.72.72,0,0,1,1,.19.7.7,0,0,1-.2,1c-.25.17-.83.47-1.76.95s-2.35,1.2-2.75,1.5a51.16,51.16,0,0,0-3.67,4.24A.67.67,0,0,1,710.76,302Z" fill="#f7a48b"/>
<path d="M713.23,305.78a.7.7,0,0,1-.59-.32.72.72,0,0,1,.19-1h0s3.4-2.26,4.14-2.83,4.1-2.16,4.47-2.35a.73.73,0,0,1,.95.34.72.72,0,0,1-.34.95h0a44.94,44.94,0,0,0-4.25,2.2c-.76.58-4.06,2.83-4.25,2.83A.8.8,0,0,1,713.23,305.78Z" fill="#f7a48b"/>
<path d="M715.15,310.52a.71.71,0,0,1-.4-1.3h0a33,33,0,0,1,8.2-4.07.68.68,0,0,1,.84.5v0a.72.72,0,0,1-.53.85,31.76,31.76,0,0,0-7.72,3.88A.73.73,0,0,1,715.15,310.52Z" fill="#f7a48b"/>
<path d="M722.05,187.92,726,201.6,756.32,182l-2.16-12.08s3.5-.27,4.25-2.15,4.84-6.19,5.11-7.53,7.24-11.82,6.45-18-9.41-23.11-13.44-26.32-28.74-5.66-34.93-4.25-14,10.2-14,11.55,5.16,5.6,5.16,5.6-5.83,9.21-7,14.82C705.81,143.62,694.35,177.91,722.05,187.92Z" fill="#f9b499"/>
<path d="M756.58,115.91c-4-3.23-28.74-5.66-34.92-4.24s-14,10.2-14,11.54,5.11,5.66,5.11,5.66,10.74.81,12.62.27,10.74-5.38,9.67-3.22-9.13,8.06-8.86,9.39,2.15,6.45,3.76,8.07a62.38,62.38,0,0,0,6.71,4.84s.54,6.44,2.15,6.44,3-4.25,3-4.25,4-4.84,6.72.27,3.48,11.82.54,14a14.24,14.24,0,0,1-7.26,2.15s4,3.22,6.45,3.76a14.17,14.17,0,0,0,5.9-.54s3.5-.26,4.25-2.15,4.84-6.18,5.11-7.52,7.24-11.82,6.45-18S760.62,119.12,756.58,115.91Z" fill="#2f2e41" data-secondary="true"/>
<polygon points="722.05 187.92 728.93 186.62 724.24 195.58 722.05 187.92" fill="#f7a48b"/>
<g id="b8eff1fb-3222-42a0-b6b8-3dc7b1e5f28c" data-name="freepik--Plant--inject-88">
<polyline points="134.85 617.78 126.01 562.21 193.85 563.04 187.16 617.06" fill="#2f2e41" data-secondary="true"/>
<path d="M164.14,552.07a11.53,11.53,0,0,0,11.3.94,12.2,12.2,0,0,0,6.16-9.73,13.84,13.84,0,0,0-11.3-.56,13.62,13.62,0,0,0-7.48,8.36" fill="#1ea70c" data-primary="true"/>
<path d="M195.15,564a11.53,11.53,0,0,0,11.3,1,12.19,12.19,0,0,0,6.16-9.73,13.8,13.8,0,0,0-11.3-.57,13.66,13.66,0,0,0-7.49,8.36" fill="#1ea70c" data-primary="true"/>
<path d="M177.74,537.31a11.57,11.57,0,0,0,8.87,7,12.23,12.23,0,0,0,10.51-4.75,13,13,0,0,0-17.65-5.33,12.57,12.57,0,0,0-2.26,1.55" fill="#1ea70c" data-primary="true"/>
<path d="M189.06,551.15a11.6,11.6,0,0,0-10.13,5,12.19,12.19,0,0,0-.23,11.52,13,13,0,0,0,12.41-13.59,13.56,13.56,0,0,0-.43-2.76" fill="#1ea70c" data-primary="true"/>
<path d="M200,573a11.54,11.54,0,0,0,.27,11.3,12.14,12.14,0,0,0,10.34,5.07,13.8,13.8,0,0,0-.65-11.23c-1.78-3.25-5-4.84-9-5.76" fill="#1ea70c" data-primary="true"/>
<path d="M218,575.6a7.76,7.76,0,0,0-2.69-1.71,11.76,11.76,0,0,0-3.67-.65,46.46,46.46,0,0,0-5,.3,14.43,14.43,0,0,1-6.16-.54,9.35,9.35,0,0,1-5.09-4.91,27.73,27.73,0,0,1-2.19-7.5,21.9,21.9,0,0,0-2.61-7.7,27.68,27.68,0,0,0-5.75-5.84,27.76,27.76,0,0,1-5.48-5.56,18.4,18.4,0,0,1-2.74-12.72,17.81,17.81,0,0,1,3.33-8.2,13.87,13.87,0,0,1,1.62-1.8,4.85,4.85,0,0,1,.65-.55,3.35,3.35,0,0,1-.53.65,18.06,18.06,0,0,0-1.5,1.87,18.58,18.58,0,0,0-.28,20.42,27.85,27.85,0,0,0,5.39,5.4,27,27,0,0,1,5.89,6,22,22,0,0,1,2.72,8,27.25,27.25,0,0,0,2.1,7.35,8.92,8.92,0,0,0,4.69,4.65,14.3,14.3,0,0,0,5.92.57,42.72,42.72,0,0,1,5.06-.18,11.34,11.34,0,0,1,3.77.79,6.08,6.08,0,0,1,2,1.32,2.83,2.83,0,0,1,.43.48C218,575.53,218,575.59,218,575.6Z" fill="#1ea70c" data-primary="true"/>
<path d="M218,575.6a7.76,7.76,0,0,0-2.69-1.71,11.76,11.76,0,0,0-3.67-.65,46.46,46.46,0,0,0-5,.3,14.43,14.43,0,0,1-6.16-.54,9.35,9.35,0,0,1-5.09-4.91,27.73,27.73,0,0,1-2.19-7.5,21.9,21.9,0,0,0-2.61-7.7,27.68,27.68,0,0,0-5.75-5.84,27.76,27.76,0,0,1-5.48-5.56,18.4,18.4,0,0,1-2.74-12.72,17.81,17.81,0,0,1,3.33-8.2,13.87,13.87,0,0,1,1.62-1.8,4.85,4.85,0,0,1,.65-.55,3.35,3.35,0,0,1-.53.65,18.06,18.06,0,0,0-1.5,1.87,18.58,18.58,0,0,0-.28,20.42,27.85,27.85,0,0,0,5.39,5.4,27,27,0,0,1,5.89,6,22,22,0,0,1,2.72,8,27.25,27.25,0,0,0,2.1,7.35,8.92,8.92,0,0,0,4.69,4.65,14.3,14.3,0,0,0,5.92.57,42.72,42.72,0,0,1,5.06-.18,11.34,11.34,0,0,1,3.77.79,6.08,6.08,0,0,1,2,1.32,2.83,2.83,0,0,1,.43.48C218,575.53,218,575.59,218,575.6Z" fill="#1ea70c" data-primary="true"/>
<path d="M88.5,581.3a17.17,17.17,0,0,0-16.23-18,17.35,17.35,0,0,0-7,1.09A28.63,28.63,0,0,0,87.88,581" fill="#1ea70c" data-primary="true"/>
<path d="M84,583.66c-3.32,3.64-3.11,9.5-.74,13.82s6.46,7.39,10.55,10.13a22.26,22.26,0,0,0-9.59-25.28" fill="#1ea70c" data-primary="true"/>
<path d="M100.1,566.58a19.77,19.77,0,0,0,21.62,17.74l.84-.1c-1.28-5.34-3.41-10.71-7.54-14.32s-10.62-5-15.17-1.93" fill="#1ea70c" data-primary="true"/>
<path d="M100,561.14c-.83-4.86-5.65-8.38-10.52-8.85s-9.75,1.64-13.68,4.61A17.8,17.8,0,0,0,100,559.3" fill="#1ea70c" data-primary="true"/>
<path d="M74.72,602.43c-4.66,4-5.82,11.06-3.89,16.87s6.47,10.44,11.56,13.84c2-5.76,3.19-11.94,2.16-17.94S79.9,603.42,74.34,601" fill="#1ea70c" data-primary="true"/>
<path d="M99.24,547.52a14.31,14.31,0,0,1,19.89-3.74,14.14,14.14,0,0,1,2.71,2.41,12.37,12.37,0,0,1-22.32.57" fill="#1ea70c" data-primary="true"/>
<path d="M105,533.52a18.62,18.62,0,0,1-23.22-12.41,18,18,0,0,1-.51-2.14,41.6,41.6,0,0,1,11.2.16,18.2,18.2,0,0,1,9.89,4.88,9.92,9.92,0,0,1,2.6,9.51" fill="#1ea70c" data-primary="true"/>
<path d="M115.71,529.89a15.24,15.24,0,0,1-.1-23.48,32,32,0,0,1,6.66,14.2,12.1,12.1,0,0,1,0,5.86,5.38,5.38,0,0,1-4.1,3.84" fill="#1ea70c" data-primary="true"/>
<g opacity="0.4">
<path d="M88.5,581.3a17.17,17.17,0,0,0-16.23-18,17.35,17.35,0,0,0-7,1.09A28.63,28.63,0,0,0,87.88,581"/>
</g>
<g opacity="0.4">
<path d="M84,583.66c-3.32,3.64-3.11,9.5-.74,13.82s6.46,7.39,10.55,10.13a22.26,22.26,0,0,0-9.59-25.28"/>
</g>
<g opacity="0.4">
<path d="M100.1,566.58a19.77,19.77,0,0,0,21.62,17.74l.84-.1c-1.28-5.34-3.41-10.71-7.54-14.32s-10.62-5-15.17-1.93"/>
</g>
<g opacity="0.4">
<path d="M100,561.14c-.83-4.86-5.65-8.38-10.52-8.85s-9.75,1.64-13.68,4.61A17.8,17.8,0,0,0,100,559.3"/>
</g>
<g opacity="0.4">
<path d="M74.72,602.43c-4.66,4-5.82,11.06-3.89,16.87s6.47,10.44,11.56,13.84c2-5.76,3.19-11.94,2.16-17.94S79.9,603.42,74.34,601"/>
</g>
<g opacity="0.4">
<path d="M99.24,547.52a14.31,14.31,0,0,1,19.89-3.74,14.14,14.14,0,0,1,2.71,2.41,12.37,12.37,0,0,1-22.32.57"/>
</g>
<g opacity="0.4">
<path d="M105,533.52a18.62,18.62,0,0,1-23.22-12.41,18,18,0,0,1-.51-2.14,41.6,41.6,0,0,1,11.2.16,18.2,18.2,0,0,1,9.89,4.88,9.92,9.92,0,0,1,2.6,9.51"/>
</g>
<g opacity="0.4">
<path d="M115.71,529.89a15.24,15.24,0,0,1-.1-23.48,32,32,0,0,1,6.66,14.2,12.1,12.1,0,0,1,0,5.86,5.38,5.38,0,0,1-4.1,3.84"/>
</g>
<path d="M134.32,564a1.28,1.28,0,0,1,0-.39,6.82,6.82,0,0,1,.07-1.11c0-1,.15-2.43.18-4.24a38.39,38.39,0,0,0-2.51-15.41,23.49,23.49,0,0,0-6.2-8.73A16.62,16.62,0,0,0,114.55,530a14.19,14.19,0,0,0-6.35,1.6,12.54,12.54,0,0,0-4.92,4.69c-2.46,4.07-3.08,9.15-2.82,14.13s.89,10.06.34,14.91a23.6,23.6,0,0,1-1.87,6.91,14.39,14.39,0,0,1-4.24,5.47,21.23,21.23,0,0,1-5.82,3,30,30,0,0,0-5.48,2.49A19.75,19.75,0,0,0,76.2,591a19,19,0,0,0-2.08,8.57,20.48,20.48,0,0,0,1.09,6.63,24.29,24.29,0,0,0,2.57,5.15,1.66,1.66,0,0,1-.25-.28,8.47,8.47,0,0,1-.65-.92,17.83,17.83,0,0,1-1.94-3.85,20.08,20.08,0,0,1-1.23-6.73,19.33,19.33,0,0,1,2-8.81,20.4,20.4,0,0,1,7.34-8.13c3.36-2.23,7.78-2.82,11.2-5.46s5.21-7.28,5.73-11.94-.17-9.69-.35-14.8.38-10.35,3-14.58a13.26,13.26,0,0,1,5.21-5,14.88,14.88,0,0,1,6.67-1.65,17.12,17.12,0,0,1,11.69,4.36,24,24,0,0,1,6.29,9,32.17,32.17,0,0,1,2.13,8.8,47.1,47.1,0,0,1,.19,6.82,32.47,32.47,0,0,1-.33,4.31,6.63,6.63,0,0,1-.14,1.1A1.28,1.28,0,0,1,134.32,564Z" fill="#1ea70c" data-primary="true"/>
<g opacity="0.4">
<path d="M134.32,564a1.28,1.28,0,0,1,0-.39,6.82,6.82,0,0,1,.07-1.11c0-1,.15-2.43.18-4.24a38.39,38.39,0,0,0-2.51-15.41,23.49,23.49,0,0,0-6.2-8.73A16.62,16.62,0,0,0,114.55,530a14.19,14.19,0,0,0-6.35,1.6,12.54,12.54,0,0,0-4.92,4.69c-2.46,4.07-3.08,9.15-2.82,14.13s.89,10.06.34,14.91a23.6,23.6,0,0,1-1.87,6.91,14.39,14.39,0,0,1-4.24,5.47,21.23,21.23,0,0,1-5.82,3,30,30,0,0,0-5.48,2.49A19.75,19.75,0,0,0,76.2,591a19,19,0,0,0-2.08,8.57,20.48,20.48,0,0,0,1.09,6.63,24.29,24.29,0,0,0,2.57,5.15,1.66,1.66,0,0,1-.25-.28,8.47,8.47,0,0,1-.65-.92,17.83,17.83,0,0,1-1.94-3.85,20.08,20.08,0,0,1-1.23-6.73,19.33,19.33,0,0,1,2-8.81,20.4,20.4,0,0,1,7.34-8.13c3.36-2.23,7.78-2.82,11.2-5.46s5.21-7.28,5.73-11.94-.17-9.69-.35-14.8.38-10.35,3-14.58a13.26,13.26,0,0,1,5.21-5,14.88,14.88,0,0,1,6.67-1.65,17.12,17.12,0,0,1,11.69,4.36,24,24,0,0,1,6.29,9,32.17,32.17,0,0,1,2.13,8.8,47.1,47.1,0,0,1,.19,6.82,32.47,32.47,0,0,1-.33,4.31,6.63,6.63,0,0,1-.14,1.1A1.28,1.28,0,0,1,134.32,564Z"/>
</g>
<path d="M233.1,551.88a14.32,14.32,0,0,0,1-5,12.36,12.36,0,0,0-1.33-5.75,12,12,0,0,0-5.52-5.34,12.49,12.49,0,0,0-4.37-1.17,14.34,14.34,0,0,0-4.87.57c-3.32.87-6.61,2.82-10.55,3.54a12.47,12.47,0,0,1-6.1-.14,9.25,9.25,0,0,1-5-4c-2.37-3.68-3-8.3-5.91-11.67a11.49,11.49,0,0,0-5.35-3.51,15.08,15.08,0,0,0-6.26-.63,16,16,0,0,0-10.41,5.41,24.28,24.28,0,0,0-5.17,9.56,29,29,0,0,0-1.16,9.48,100.82,100.82,0,0,0,1.77,13.86l.63,3.76a5.13,5.13,0,0,0,.16,1,1.93,1.93,0,0,1,0,.34.9.9,0,0,0-.1-.32l-.23-1c-.18-.92-.45-2.17-.77-3.73a93.31,93.31,0,0,1-2-13.9,29.25,29.25,0,0,1,1.09-9.67,25,25,0,0,1,5.25-9.89,18.84,18.84,0,0,1,4.76-3.81,16.45,16.45,0,0,1,12.65-1.21,12.38,12.38,0,0,1,5.65,3.72c3,3.64,3.67,8.27,6,11.76a8.46,8.46,0,0,0,4.59,3.7,11.71,11.71,0,0,0,5.76.15c3.79-.72,7.06-2.58,10.52-3.46a14.79,14.79,0,0,1,5.08-.55,12.73,12.73,0,0,1,4.55,1.27,12.24,12.24,0,0,1,6.9,11.56,11.57,11.57,0,0,1-.73,3.76A5.63,5.63,0,0,1,233.1,551.88Z" fill="#1ea70c" data-primary="true"/>
<path d="M193.42,527.26a13.2,13.2,0,0,0,12.11.79,12.21,12.21,0,0,0,6.16-9.73,13.88,13.88,0,0,0-11.3-.58,13.73,13.73,0,0,0-7.48,8.36" fill="#1ea70c" data-primary="true"/>
<path d="M206.29,538.93a13.16,13.16,0,0,0,5.65,10.74,12.21,12.21,0,0,0,11.53.19A13.85,13.85,0,0,0,218.1,540a13.65,13.65,0,0,0-11-2" fill="#1ea70c" data-primary="true"/>
<path d="M228.6,536.35a13.24,13.24,0,0,0,12.12-.51,12.21,12.21,0,0,0,5.08-10.33,13,13,0,0,0-17,7,12.76,12.76,0,0,0-.79,2.69" fill="#1ea70c" data-primary="true"/>
<path d="M174.69,519.53c-3.25-2.82-5.44-7.72-4.82-11.41a12.19,12.19,0,0,1,7.49-8.77,13.88,13.88,0,0,1,3.87,10.56,13.71,13.71,0,0,1-5.78,9.62" fill="#1ea70c" data-primary="true"/>
<path d="M87.57,503.56a1,1,0,0,1,.13-.3l.45-.83c.41-.72,1-1.77,2-3.07a32.92,32.92,0,0,1,9.7-9.18,24.06,24.06,0,0,1,8.72-3.19,21.42,21.42,0,0,1,10.58,1.11,17.23,17.23,0,0,1,9,7.41c2.08,3.63,2.74,7.89,4,12a21.79,21.79,0,0,0,2.53,5.66,17.28,17.28,0,0,0,4.3,4.23c1.62,1.19,3.31,2.28,4.85,3.52a21.14,21.14,0,0,1,3.94,4.24,26.12,26.12,0,0,1,4,9.89,34.67,34.67,0,0,1,.53,9.26A69.93,69.93,0,0,1,150,557.45c-.41,1.53-.75,2.71-1,3.5a8,8,0,0,1-.39,1.2,6.65,6.65,0,0,1,.25-1.24l.83-3.53a76.93,76.93,0,0,0,2.14-13.14,34.78,34.78,0,0,0-.63-9.1,25.65,25.65,0,0,0-4-9.59,20.41,20.41,0,0,0-3.82-4.11c-1.5-1.21-3.19-2.27-4.83-3.49a18.22,18.22,0,0,1-4.49-4.4,21.7,21.7,0,0,1-2.61-5.91c-1.23-4.15-1.91-8.35-3.9-11.82a16.57,16.57,0,0,0-8.66-7.15,21.1,21.1,0,0,0-10.26-1.13,23,23,0,0,0-8.47,3,33.56,33.56,0,0,0-9.75,8.9c-1,1.25-1.61,2.27-2.06,3C88.1,502.84,87.85,503.2,87.57,503.56Z" fill="#1ea70c" data-primary="true"/>
<path d="M140.93,518.5c-1.12-1-1.67-.31-3.18,0a9.28,9.28,0,0,0-4.07,2,17.17,17.17,0,0,0-5.56,18,13.4,13.4,0,0,0,12.23-20.15" fill="#1ea70c" data-primary="true"/>
<path d="M94.76,497.51c-.56-1.41-1.41-1-2.82-1.41a9.34,9.34,0,0,0-4.55.08A17.17,17.17,0,0,0,74.68,510a13.4,13.4,0,0,0,19.63-12.83" fill="#1ea70c" data-primary="true"/>
<path d="M151,546.9a15.54,15.54,0,0,0-24.29,1.18,19.09,19.09,0,0,0,12.6,5A19.53,19.53,0,0,0,152,547.93" fill="#1ea70c" data-primary="true"/>
<path d="M147.23,525.69a15.64,15.64,0,0,0,16.11-15.17,15.41,15.41,0,0,0-.29-3.52,14.13,14.13,0,0,0-16.34,18.54" fill="#1ea70c" data-primary="true"/>
<path d="M131,500.76a15.69,15.69,0,0,0,21.19-12.37,14.06,14.06,0,0,0-21.57,12.05" fill="#1ea70c" data-primary="true"/>
<path d="M125.56,492.62A15.68,15.68,0,0,0,104.37,505,14.12,14.12,0,0,0,126,493" fill="#1ea70c" data-primary="true"/>
<path d="M119.09,488.23a15.67,15.67,0,0,0,9.82-19.86,16.09,16.09,0,0,0-1.49-3.17,14.12,14.12,0,0,0-8.88,23.07" fill="#1ea70c" data-primary="true"/>
<path d="M102.46,489a15.68,15.68,0,0,0-12.71-20.9,14,14,0,0,0,12.47,21.33" fill="#1ea70c" data-primary="true"/>
<polygon points="125.14 611.34 130.33 617.78 194.19 617.78 198.54 611.34 125.14 611.34" fill="#2f2e41" data-secondary="true"/>
<polygon points="125.14 611.34 130.33 617.78 194.19 617.78 198.54 611.34 125.14 611.34" opacity="0.2"/>
</g>
</svg>