 <!DOCTYPE svg PUBLIC "-//W3C//DTD SVG 1.1//EN" "http://www.w3.org/Graphics/SVG/1.1/DTD/svg11.dtd">
<svg id="ebb67df9-de18-4ea4-8153-61142caeaf42" data-name="Layer 1" xmlns="http://www.w3.org/2000/svg" width="865.76" height="682.89" viewBox="0 0 865.76 682.89">
<defs>
<style xmlns="http://www.w3.org/1999/xhtml">*, ::after, ::before { box-sizing: border-box; }
img, svg { vertical-align: middle; }
</style>
<style xmlns="http://www.w3.org/1999/xhtml">*, body, html { -webkit-font-smoothing: antialiased; }
img, svg { max-width: 100%; }
</style>
</defs>
<g id="eee631cc-3221-4f36-85a1-6b17c01f0706" data-name="freepik--background-complete--inject-4">
<rect x="510.03" y="270.9" width="59.48" height="333.65" fill="#ebebeb"/>
<rect x="569.16" y="270.9" width="188.05" height="333.65" fill="#f5f5f5"/>
<rect x="584.35" y="281.31" width="163.94" height="145.67" fill="#e0e0e0"/>
<rect x="584.35" y="442.53" width="163.94" height="145.67" fill="#e0e0e0"/>
<polygon points="602.85 383.21 602.85 424.74 663.58 424.74 730.57 424.74 730.57 383.21 602.85 383.21" fill="#f5f5f5"/>
<polygon points="597.5 371.61 597.5 383.21 735.03 383.21 735.03 371.61 663.58 371.61 597.5 371.61" fill="#f5f5f5"/>
<polygon points="666.27 424.74 730.57 424.74 730.57 383.21 735.03 383.21 735.03 371.61 663.58 371.61 663.58 382.14 666.27 424.74" fill="#f5f5f5"/>
<rect x="620.71" y="389.91" width="25.9" height="6.26" fill="#fff"/>
<rect x="617.38" y="403.98" width="33.26" height="13.2" fill="#fff"/>
<path d="M736.12,383.1c0,.35-30.88.64-69,.64s-69-.29-69-.64,30.87-.63,69-.63S736.12,382.75,736.12,383.1Z" fill="#e0e0e0"/>
<path d="M668,424.58c-.35,0-.64-9.2-.64-20.56s.29-20.57.64-20.57.62,9.21.62,20.57S668.34,424.58,668,424.58Z" fill="#e0e0e0"/>
<polygon points="602.84 545.34 602.84 586.87 663.57 586.87 730.55 586.87 730.55 545.34 602.84 545.34" fill="#ebebeb"/>
<polygon points="597.47 533.74 597.47 545.34 735.02 545.34 735.02 533.74 663.57 533.74 597.47 533.74" fill="#ebebeb"/>
<polygon points="666.24 586.87 730.55 586.87 730.55 545.34 735.02 545.34 735.02 533.74 663.57 533.74 663.57 544.28 666.24 586.87" fill="#ebebeb"/>
<rect x="620.7" y="552.04" width="25.9" height="6.26" fill="#fff"/>
<rect x="617.36" y="566.11" width="33.26" height="13.2" fill="#fff"/>
<path d="M736.12,545.23c0,.35-30.88.64-69,.64s-69-.29-69-.64,30.87-.63,69-.63S736.12,544.88,736.12,545.23Z" fill="#e0e0e0"/>
<path d="M668,586.73c-.35,0-.64-9.22-.64-20.58s.29-20.56.64-20.56.63,9.2.63,20.56S668.32,586.73,668,586.73Z" fill="#e0e0e0"/>
<polygon points="614.63 338.77 614.63 371.61 662.64 371.61 715.6 371.61 715.6 338.77 614.63 338.77" fill="#ebebeb"/>
<polygon points="610.39 329.6 610.39 338.77 719.12 338.77 719.12 329.6 662.64 329.6 610.39 329.6" fill="#ebebeb"/>
<polygon points="664.76 371.61 715.6 371.61 715.6 338.77 719.12 338.77 719.12 329.6 662.64 329.6 662.64 337.93 664.76 371.61" fill="#ebebeb"/>
<rect x="628.75" y="344.06" width="20.47" height="4.94" fill="#fff"/>
<rect x="626.11" y="355.19" width="26.29" height="10.44" fill="#fff"/>
<path d="M719.94,338.68c0,.35-24.41.63-54.52.63s-54.53-.28-54.53-.63,24.41-.64,54.53-.64S719.94,338.41,719.94,338.68Z" fill="#e0e0e0"/>
<path d="M666.14,371.48c-.35,0-.65-7.29-.65-16.26s.3-16.26.65-16.26.62,7.29.62,16.26S666.47,371.48,666.14,371.48Z" fill="#e0e0e0"/>
<path d="M719.65,371.32c0,.35-23.51.64-52.49.64s-52.5-.29-52.5-.64,23.49-.63,52.5-.63S719.65,371,719.65,371.32Z" fill="#e0e0e0"/>
<polygon points="653.58 266.93 646.2 265.89 646.2 236.29 653.58 237.33 653.58 266.93" fill="#e0e0e0"/>
<path d="M650.4,238.18c-40.29,0-73.06-32.43-73.06-72.3A72.24,72.24,0,0,1,615,102.66l.82-.45,4.88,6.76L619,110.2l-3.79-5.27a70.14,70.14,0,0,0-35.73,60.95c0,38.72,31.83,70.21,71,70.21A71.61,71.61,0,0,0,695,220.53l-2.91-2.91,1.45-1.46,4.61,4.55-.89.74C680.72,235,668.07,238.18,650.4,238.18Z" fill="#e0e0e0"/>
<rect x="616.84" y="265.9" width="64.73" height="5" fill="#e0e0e0"/>
<ellipse cx="653.57" cy="165.1" rx="64.29" ry="64.73" fill="#f5f5f5"/>
<path d="M629.77,193.94c.34-2.82,2.52-5.68,1.27-8.21-1.46-2.85-5.54-2.39-8.43-3.66-4.05-1.78-5.31-6.8-8-10.35-2.37-3.18-7.9-6.67-12.11-5.71a5.15,5.15,0,0,0-4.38,4.76h-.38c-1.13-.12-2.45-.18-3.07-1.11s0-2.71-.75-3.78a5.61,5.61,0,0,0-1.62-1.19c-.54-.4-1-1.13-.67-1.72s1-.6,1.35-1.05a1.07,1.07,0,0,0,0-1.27c-1.16-1.46-2.45,1.46-3.1,2.08a3.3,3.3,0,0,1-.51.48h0v4.55a11.14,11.14,0,0,1,2,1c1.24.73,2.64,1.68,2.72,3.12a1.17,1.17,0,0,0,.13.69.94.94,0,0,0,.6.3,16.4,16.4,0,0,0,3.27.45c0,1.3.1,2.66.09,3.94a42.93,42.93,0,0,0-.44,5.54c.29,2.6,2.1,4.74,3.67,6.84,6,8,9.25,17.21,12.75,26.61h0c.65.53,1.59,1.21,2.26,1.69s1,.72,1.56,1.08,1,.67,1.57,1,.47.32.86.56h0c-1.46-3.09-1.46-7.4,1.62-8.93a6.79,6.79,0,0,0,1.72-.92c1.36-1.26.25-3.92,1.61-5.2.75-.7,2-.66,2.91-1.08,1.71-.79,2.26-2.92,2.13-4.84A28.42,28.42,0,0,1,629.77,193.94Z" fill="#e0e0e0"/>
<path d="M593.23,146.56a2.92,2.92,0,0,1,4.12.05l.08.08a4.36,4.36,0,0,1,.33,3.3c-.23,1.46-.46,3-.71,4.5a2.42,2.42,0,0,0,.07,1.36c.44,1,2,.77,2.61-.09a4.08,4.08,0,0,0,.38-3,6,6,0,0,1,0-3.14c1-2.42,4.62-2.06,6.72-3.63a11.38,11.38,0,0,0,2.66-4,4.47,4.47,0,0,1,3.69-2.8c.55,0,1.09.22,1.63.21a2.19,2.19,0,0,0,1.46-3.55,4.15,4.15,0,0,1-.72-.73,1.33,1.33,0,0,1,.51-1.6,3.86,3.86,0,0,1,1.71-.54l4.11-.66c1.46-.23,3.47-1,3.25-2.53s-2-1.9-2.23-3.2a4.5,4.5,0,0,0-.17-1c-.41-.83-1.67-.49-2.47,0a2,2,0,0,0-2.55-1.22,2.32,2.32,0,0,0-.47.24c-.81.67-.91,1.86-1.21,2.92a13.68,13.68,0,0,1-4.46,6,3.64,3.64,0,0,1-2.16,1.21c-.84,0-1.73-.86-1.35-1.6.28-.51,1-.8.93-1.37s-1.34-.66-1.59-1.34c.5-2,2.8-2.92,4.57-3.93a11.13,11.13,0,0,0,4.68-5.74,1.51,1.51,0,0,0,0-1.18c-.27-.51-.95-.59-1.53-.59-1.36,0-3.07.17-3.56,1.46a16,16,0,0,0-.24,2.18c-.48,2.11-3.38,2.34-5.14,3.6a14.19,14.19,0,0,1-2,1.54,7.09,7.09,0,0,1-2.7.44h-.74a19.69,19.69,0,0,0-1.46,2.29c-.45.83-1,1.71-1.53,2.54a62.78,62.78,0,0,0-5.45,12.46c-.51,1.46-.94,3.17-1.32,4.74s-.65,3.05-.91,4.67a17.77,17.77,0,0,0,1.15-4.06A7.5,7.5,0,0,1,593.23,146.56Z" fill="#e0e0e0"/>
<path d="M647.3,117.49c.61-.8.43-1.94.83-2.92.64-1.46,2.68-2.08,3.38-3.59.28-.58.34-1.29.82-1.72s1-.43,1.45-.75a2,2,0,0,0-.1-2.77,2.22,2.22,0,0,0-.35-.25c-2.52-1.62-7.16.25-9.33,1.82-2.8,2-5.54,4.46-9.27,4.23a7.46,7.46,0,0,0-3.05,0c-1,.36-1.56,1.81-.73,2.42.45.33,1.11.25,1.63.48a2.08,2.08,0,0,1,.59,2.79c-.47.94-1.32,1.66-1.87,2.56a4.68,4.68,0,0,0-.68,2.92,2.65,2.65,0,0,0,.86,1.88c1.16.93,2.91.14,3.9-1s1.67-2.55,2.92-3.31a7.82,7.82,0,0,1,2.1-.73l4.85-1.15A3.49,3.49,0,0,0,647.3,117.49Z" fill="#e0e0e0"/>
<path d="M717.84,164.6v-2.76c0-.92-.09-1.83-.17-2.74s-.15-1.46-.25-2.18-.19-1.65-.32-2.4a62.35,62.35,0,0,0-1.46-6.47c-.25-.83-.64-1.74-.92-2.55s-.55-1.65-.86-2.47h0c-.34-.61-.67-1.21-1.05-1.8-3.57-5.66-8.75-10.09-12.69-15.5-1.28-1.77-2.27-3.21-4.55-3.56-3.35-.53-5,1.46-7.43-1.8-.63-.84-1.75-1.64-2.7-1.13l.74,2.05a.9.9,0,0,1,0,.46c0,.46-.75.59-1.16.33a3.78,3.78,0,0,1-.89-1.14,3.31,3.31,0,0,0-4.63-.58l-.2.17a1.83,1.83,0,0,0-1.08-1.45,2.2,2.2,0,0,1-2.52,1.83l-.23,0c-.21-.62.9-.73,1.29-1.26s-.07-1.19-.52-1.62a7,7,0,0,0-4.37-1.7,6.3,6.3,0,0,1-3-.37c-.51-.3-.87-.81-1.46-1.11a3.93,3.93,0,0,0-3.67.59A7.22,7.22,0,0,0,660,119c-.55,1.69.67,4,2.45,3.77a3.4,3.4,0,0,1,1.34-.15,1.64,1.64,0,0,1,1,1.56,4.56,4.56,0,0,0,.29,1.9c.31.56,1.23.86,1.59.32a3.54,3.54,0,0,0,.51-3.27,4.39,4.39,0,0,1,.23-3.32c.69-.92,2.63-.63,2.5.51-.09.67-.85,1.16-.82,1.85s.88,1,1.56,1a7.56,7.56,0,0,1,2.07-.1c.67.16,1.21,1,.73,1.54-.84,1-3-.68-3.48.51a3.22,3.22,0,0,0,0,1c-.08,1-1.33,1.35-2.32,1.46a5.68,5.68,0,0,1-2.92-.22,1.87,1.87,0,0,1-1-2.44l0,0a1.14,1.14,0,0,0-1.52.48.36.36,0,0,0,0,.09,3.25,3.25,0,0,0-.12,1.85c-1-.23-2,.66-2.6,1.55s-1.19,1.92-2.21,2.25-2.47-.12-3,.81c-.7,1.23,1.33,2.77.62,4-.41.69-1.39.66-2.16.88a3.32,3.32,0,0,0-1.85,4.32,3.36,3.36,0,0,0,.49.84,4,4,0,0,0,5.65,0h0a18.59,18.59,0,0,0,2.19-3.79c.74-1.24,2.14-2.39,3.54-2a4.43,4.43,0,0,1,1.46.91l2,1.72a1.86,1.86,0,0,1,.87,1.46c0,.63-.39.8-.55,1.24-.42,1.23,1.36,2.39,2.48,1.72a2.46,2.46,0,0,0,.48-3.44c-1.06-1.46-3.46-2.2-3.4-4,1.23-1,3.15,0,3.87,1.46s.73,3.08,1.32,4.53,2.18,2.69,3.63,2L673.79,140c.89-.67,1.93,1.28,3,1,.66-.21.73-1.15.45-1.78a8.23,8.23,0,0,1-.89-1.84,2.09,2.09,0,0,1,2-2.17,3,3,0,0,1,.42,0,3.15,3.15,0,0,1,2.39,2.62,5.61,5.61,0,0,0,.32,1.46c.47,1,1.68,1.28,2.67,1.69s2.06,1.46,1.64,2.41c-.19.44-.66.84-.49,1.3s.73.57.73,1-.29.48-.56.6a20.52,20.52,0,0,0-2.05.68,1.84,1.84,0,0,0-1.19,1.65c.07,1,1.28,1.46,1.86,2.35a12.3,12.3,0,0,1,.81,2.78,10.07,10.07,0,0,0,1.54,2.23c1.68,2.29,2.09,5.25,2.92,8,.36,1.24,1,2.61,2.3,2.91a3.85,3.85,0,0,0,2-.39,12.25,12.25,0,0,0,5-2.92,4.2,4.2,0,0,0,.39-5.35,1,1,0,0,0-.61-.39,1.81,1.81,0,0,0-1,.34,2.7,2.7,0,0,1-2.82-.62A7.62,7.62,0,0,1,693,155c-.49-1-1-2-1.45-3a1.78,1.78,0,0,1,2.17.21,10.69,10.69,0,0,1,1.46,1.82,9.45,9.45,0,0,0,6.41,3,5.91,5.91,0,0,1,1.81.38c1.79.81,2.32,3.47,4.21,4a11.15,11.15,0,0,1,1.62.36,2.91,2.91,0,0,1,1.36,2,31.88,31.88,0,0,0,1.2,4.51,4.12,4.12,0,0,0,3.42,2.73,3.55,3.55,0,0,0,2.55-1.11c.08-1.46.18-2.92.18-4.28C717.87,165.18,717.87,164.89,717.84,164.6Z" fill="#e0e0e0"/>
<path d="M691.83,191.27c-1,.19-1.14.76-1.67,1.46s-1.64,1.83-2.26,2.75c-1,1.55-.1,4-1.45,5.25a10.47,10.47,0,0,0-.89.73,1.62,1.62,0,0,0,.32,2.25,2.22,2.22,0,0,0,2.4,0,3.46,3.46,0,0,0,1.46-2,3.51,3.51,0,0,1,.75-1.65c.78-.68,2-.17,3-.32C697.91,199.17,696,190.45,691.83,191.27Z" fill="#e0e0e0"/>
<path d="M693.33,179.14c2.54-2.19,3.56-7.15.41-8.3-1.2-.44-2.57-.09-3.75-.54-1.55-.6-2.27-2.33-2.83-3.89-1.46-4.1-2.92-8.18-4.37-12.28-.89-2.46-2.23-5.32-4.81-5.69a14.5,14.5,0,0,0-4.38.76c-5,.92-13.47-11.23-17.29-3-.53-2.23-4.14-1.45-5.3.59s-1.45,4.59-3.23,6c-1.46,1-3.44,1.11-4.58,2.42a6,6,0,0,0-1.05,3.47c-.19,2.33-.38,4.68-.58,7a9.58,9.58,0,0,0,.65,5.54c.94,1.64,3.37,2.56,4.77,1.29a15.25,15.25,0,0,0,1.46-2.17,3.64,3.64,0,0,1,3.75-1.3,6.46,6.46,0,0,1,2.91,2c6.53,7,8.88,17.06,9.17,26.66a15,15,0,0,0,.7,5.2c.76,1.92,2.35,3.47,2.83,5.48.35,1.53,0,3.24.67,4.66,1.23,2.66,5.3,2.76,7.5.86s3-4.95,3.44-7.83.73-5.92,2.35-8.34a29.63,29.63,0,0,0,3.16-4.37c1-2.32.26-5.09,1.17-7.45C687.23,182.72,690.79,181.34,693.33,179.14Z" fill="#e0e0e0"/>
<rect x="95.76" y="55.4" width="241.07" height="380.98" fill="#e0e0e0"/>
<rect x="102.25" y="62.56" width="227.26" height="367.56" fill="#f5f5f5"/>
<rect x="215.9" y="83.97" width="90.62" height="140.62" fill="#fff"/>
<path d="M266,96.36A3.39,3.39,0,1,1,262.64,93,3.38,3.38,0,0,1,266,96.36Z" fill="#e0e0e0"/>
<rect x="124.56" y="263.72" width="90.62" height="140.62" fill="#fff"/>
<path d="M174.75,276.16a3.39,3.39,0,1,1-3.44-3.37,3.38,3.38,0,0,1,3.44,3.37Z" fill="#e0e0e0"/>
<rect x="123.34" y="83.97" width="77.4" height="109.81" fill="#fff"/>
<path d="M164.85,93.94a2.82,2.82,0,1,1-2.83-2.8h0A2.82,2.82,0,0,1,164.85,93.94Z" fill="#e0e0e0"/>
<rect x="229.06" y="270.17" width="83.29" height="46.15" transform="translate(-31.18 32.21) rotate(-6.44)" fill="#fff"/>
<path d="M272,279A2.92,2.92,0,1,1,269,276.1,2.91,2.91,0,0,1,272,279Z" fill="#e0e0e0"/>
<path d="M203.09,295.8c0,.37-14.23.67-31.78.67s-31.78-.3-31.78-.67,14.22-.67,31.78-.67S203.09,295.42,203.09,295.8Z" fill="#e0e0e0"/>
<path d="M203.09,305.86c0,.37-14.23.67-31.78.67s-31.78-.3-31.78-.67,14.22-.67,31.78-.67S203.09,305.48,203.09,305.86Z" fill="#e0e0e0"/>
<path d="M203.09,315.92c0,.37-14.23.67-31.78.67s-31.78-.3-31.78-.67,14.22-.67,31.78-.67S203.09,315.54,203.09,315.92Z" fill="#e0e0e0"/>
<path d="M203.09,326c0,.37-14.23.67-31.78.67s-31.78-.3-31.78-.67,14.22-.7,31.78-.7S203.09,325.61,203.09,326Z" fill="#e0e0e0"/>
<path d="M203.09,336.05c0,.36-14.23.67-31.78.67s-31.78-.31-31.78-.67,14.22-.68,31.78-.68S203.09,335.67,203.09,336.05Z" fill="#e0e0e0"/>
<path d="M203.09,346.11c0,.36-14.23.67-31.78.67s-31.78-.31-31.78-.67,14.22-.67,31.78-.67S203.09,345.7,203.09,346.11Z" fill="#e0e0e0"/>
<path d="M203.09,356.17c0,.36-14.23.67-31.78.67s-31.78-.31-31.78-.67,14.22-.67,31.78-.67S203.09,355.79,203.09,356.17Z" fill="#e0e0e0"/>
<path d="M301.74,285c0,.36-14,2.65-31.38,5.1s-31.51,4.14-31.57,3.78,14-2.66,31.38-5.12S301.68,284.65,301.74,285Z" fill="#e0e0e0"/>
<path d="M303.06,291.31c0,.38-14,2.67-31.36,5.12s-31.51,4.14-31.57,3.76,14-2.65,31.38-5.1S303,291,303.06,291.31Z" fill="#e0e0e0"/>
<path d="M304.16,297.13c0,.36-14,2.65-31.38,5.1s-31.51,4.14-31.57,3.78,14-2.66,31.38-5.11S304.1,296.76,304.16,297.13Z" fill="#e0e0e0"/>
<path d="M298.54,113.39c0,.36-16,.67-35.9.67s-35.91-.31-35.91-.67,16-.69,35.91-.69S298.54,113,298.54,113.39Z" fill="#e0e0e0"/>
<path d="M298.54,119.37c0,.38-16,.67-35.9.67s-35.91-.29-35.91-.67,16-.67,35.91-.67S298.54,119,298.54,119.37Z" fill="#e0e0e0"/>
<path d="M298.54,125.35c0,.38-16,.68-35.9.68s-35.91-.3-35.91-.68,16-.67,35.91-.67S298.54,125,298.54,125.35Z" fill="#e0e0e0"/>
<path d="M298.54,131.35c0,.37-16,.67-35.9.67s-35.91-.3-35.91-.67,16-.68,35.91-.68S298.54,131,298.54,131.35Z" fill="#e0e0e0"/>
<path d="M298.54,137.32c0,.36-16,.67-35.9.67s-35.91-.31-35.91-.67,16-.69,35.91-.69S298.54,136.94,298.54,137.32Z" fill="#e0e0e0"/>
<path d="M298.54,143.3c0,.38-16,.67-35.9.67s-35.91-.29-35.91-.67,16-.67,35.91-.67S298.54,142.93,298.54,143.3Z" fill="#e0e0e0"/>
<path d="M298.54,149.27c0,.38-16,.69-35.9.69s-35.91-.31-35.91-.69,16-.67,35.91-.67S298.54,148.85,298.54,149.27Z" fill="#e0e0e0"/>
<path d="M298.54,167c0,.37-16,.68-35.9.68s-35.91-.31-35.91-.68,16-.67,35.91-.67S298.54,166.66,298.54,167Z" fill="#e0e0e0"/>
<path d="M299.05,173.35c0,.38-16,.67-35.91.67s-35.9-.29-35.9-.67,16-.67,35.9-.67S299.05,173,299.05,173.35Z" fill="#e0e0e0"/>
<path d="M299.55,179.66c0,.38-16,.69-35.9.69s-35.9-.31-35.9-.69,16-.67,35.9-.67S299.55,179.3,299.55,179.66Z" fill="#e0e0e0"/>
<path d="M300.06,186c0,.36-16,.67-35.9.67s-35.91-.31-35.91-.67,16-.67,35.91-.67S300.06,185.61,300.06,186Z" fill="#e0e0e0"/>
<path d="M300.57,192.3c0,.38-16,.67-35.91.67s-35.9-.29-35.9-.67,16-.67,35.9-.67S300.57,191.94,300.57,192.3Z" fill="#e0e0e0"/>
<path d="M301.07,198.62c0,.38-16,.68-35.9.68s-35.9-.3-35.9-.68,16-.67,35.9-.67S301.07,198.25,301.07,198.62Z" fill="#e0e0e0"/>
</g>
<polygon points="421.11 336.05 541.79 336.05 612.84 381.4 579.62 388.11 411.61 342.2 421.11 336.05" fill="#bcbec0"/>
<polygon points="595.69 384.04 595.07 397.62 593.27 437.22 415.01 392.43 418.9 351.77 423.91 339 595.69 384.04" fill="#bcbec0"/>
<polygon points="595.69 384.04 595.07 397.62 418.9 351.77 423.91 339 595.69 384.04" fill="#d1d3d4"/>
<polygon points="397.25 445.56 394.79 464.7 382.29 462.09 397.25 445.56" fill="#1ea70c" data-primary="true"/>
<path d="M146.38,434.35S122.3,436.81,125,453.29c0,0,.94,8.09,4.19,13Z" fill="#f9b499"/>
<polygon points="102.03 450.3 102.03 493.41 516.57 602.5 740.2 602.5 740.2 558.87 521.11 557.96 102.03 450.3" fill="#bcbec0"/>
<polygon points="509.29 548.87 743.84 548.87 743.84 563.41 516.57 563.41 102.03 456.35 102.03 444.06 509.29 548.87" fill="#d1d3d4"/>
<path d="M102,444.06l191.43-6.83L394.79,464.7l293.54,67.53L743,548.61a.13.13,0,0,1,0,.25H509.29Z" fill="#bcbec0"/>
<polygon points="430.11 500.75 415.17 528.84 587.9 528.84 562.2 518.38 456.41 499.11 430.11 500.75" fill="#1ea70c" data-primary="true"/>
<polygon points="435.49 503.73 424.02 524.96 562.2 524.65 535.9 503.73 435.49 503.73" fill="#fff" opacity="0.2"/>
<polygon points="437.81 513.14 435.49 520.18 470.75 520.18 470.75 516.23 437.81 513.14" fill="#fff" opacity="0.2"/>
<path d="M415.17,528.84v5.53a7.62,7.62,0,0,0,7.62,7.62H583.56a6.42,6.42,0,0,0,6.43-6.42v-6.73Z" fill="#1ea70c" data-primary="true"/>
<path d="M415.17,528.84v5.53a7.62,7.62,0,0,0,7.62,7.62H583.56a6.42,6.42,0,0,0,6.43-6.42v-6.73Z" fill="#fff" opacity="0.2"/>
<polygon points="393.08 493.05 398.94 510.66 426.07 501.86 427.61 482.49 393.08 493.05" fill="#2f2e41" data-secondary="true"/>
<polygon points="393.08 493.05 380.93 503.74 383.56 511.06 398.94 510.66 393.08 493.05" fill="#1ea70c" data-primary="true"/>
<path d="M380.93,503.74l2.63,7.32-6.09-.31a.91.91,0,0,1-.68-1.45Z" fill="#e6e7e8"/>
<path d="M142,434.77s1.48-14.22,20.61-29.43c0,0,36.3-27,50.52-67.2,0,0,23.22-66.55,65.08-81.11L240.63,425.21Z" fill="#1ea70c" data-primary="true"/>
<path d="M278.24,257s-47.91,25.59-46.44,84.25c0,0,4.27,71.08,2.81,84.51l8.58,3.59L249,419.32l2.7-112.58Z" opacity="0.2"/>
<path d="M562.2,503.73v14.65H444a6.57,6.57,0,0,1-3.85-1.16c-2.5-1.82-2.75-4.81-2.31-7.51a21.79,21.79,0,0,1,2.09-6Z" fill="#2f2e41" data-secondary="true"/>
<path d="M562.2,509.71v8.67H444a6.57,6.57,0,0,1-3.85-1.16c-2.5-1.82-2.75-4.81-2.31-7.51Z" opacity="0.2"/>
<path d="M323.92,173.51c-8.84,29.14-31,47.89-51.21,42.08-20.54-5.9-28.06-34.3-19.22-63.44s31.77-48,51.22-42.08S332.76,144.37,323.92,173.51Z" fill="#f9b499"/>
<path d="M263.56,130.83s3.41-6.33,8.45,0c0,0,19.17,43.52,45.68,28.91l10.14,22.75s-3.78,12.59,3.36,37.35c0,0,7.13-2.52,7.55,8.4,0,0-.42,7.13,2.94,11.75h20.15s18-23.51,8-50.79c0,0-8.81-12-6.72-26.37,0,0,.42-38.26-30.21-53.79,0,0-26.87-16.79-59.18,5,0,0-18.37-2.76-24.26,11.61a21.38,21.38,0,0,0-1,12.26c1.32,6.65,3.28,21.45-4.11,26.91,0,0-12.21,8.26-7.4,20.13a16,16,0,0,0,2.61,4.19c3.15,3.78,11.36,15.39.59,22.69,0,0-17.21,5.45.42,28.12h48.18s1.3-17.18-12.23-23.57c0,0-26-2.65-26.41-39C250.07,177.43,248,153.88,263.56,130.83Z" fill="#2f2e41" data-secondary="true"/>
<path d="M287.47,229.93s-1.07-7.28-11-13.51c0,0,25,6.47,44.48-34.71a57.09,57.09,0,0,1,7.32-1,90.92,90.92,0,0,0,2.91,39.1A302.6,302.6,0,0,0,287.47,229.93Z" fill="#f9b499"/>
<path d="M287.47,229.93s19.06-16.39,23-30.45c0,0-13.15,19.24-34,16.94C276.48,216.42,285.85,222,287.47,229.93Z" fill="#f7a48b"/>
<path d="M240.63,425.21l-.45-47.75a69.63,69.63,0,0,0-.47-7.64c-3.68-31.13.43-53.76.43-53.76,11.53-42.92,38.1-59,38.1-59,9.16-7.35,6.54-17,6.54-17-2.94-10.18,2.69-10.06,2.69-10.06s16-6,43.72-10.09c0,0,7.55-2.66,7.55,8.4,0,0-1.23,13.51,11.77,18.66,0,0-5,27.81-10.62,58.71,0,0-5.07,8.25-6.3,44.3l-2.45,46.85s-1.82,14.93-51.76,28.45Z" fill="#1ea70c" data-primary="true"/>
<path d="M279.79,255.66a39.91,39.91,0,0,0,8.1,1.45l2.05.17,2.05.05c1.37.06,2.74,0,4.11-.08a71.18,71.18,0,0,0,16.13-2.8l3.92-1.23c1.31-.39,2.55-1,3.84-1.46,2.58-.92,5-2.24,7.49-3.38,1.26-.54,2.43-1.27,3.63-1.93l3.6-2c2.34-1.44,4.62-3,7-4.44q-3.3,2.49-6.67,4.91l-3.54,2.17a38.85,38.85,0,0,1-3.58,2.09,71.63,71.63,0,0,1-7.51,3.57c-1.29.5-2.55,1.11-3.87,1.53l-4,1.29a67.17,67.17,0,0,1-16.42,2.57A43.9,43.9,0,0,1,279.79,255.66Z" opacity="0.2"/>
<path d="M306.84,256.41c.27,13.13.4,26.27.52,39.4l.22,39.41-.05,39.41-.12,19.7L307.17,414l-.32-19.71-.2-19.7-.22-39.41.06-39.41C306.55,282.68,306.63,269.54,306.84,256.41Z" opacity="0.2"/>
<path d="M287.46,257.36c-3,6.49-5.82,13.06-8.41,19.72s-5.06,13.38-7.14,20.2c-.53,1.71-1,3.43-1.49,5.14l-1.34,5.18c-.36,1.73-.83,3.47-1.09,5.2s-.46,3.54-.66,5.31c-.78,7.1-1.34,14.23-1.82,21.36-1,14.26-1.63,28.55-2.13,42.84-.25,7.15-.48,14.29-.64,21.44s-.32,14.31-.52,21.46c-.06-7.16-.09-14.31,0-21.46s.18-14.31.32-21.47q.48-21.45,1.87-42.89c.51-7.14,1.11-14.28,1.92-21.4.21-1.78.43-3.55.69-5.33s.77-3.53,1.14-5.29.9-3.48,1.38-5.2,1-3.44,1.57-5.15A288.29,288.29,0,0,1,287.46,257.36Z" opacity="0.2"/>
<path d="M254.86,437.23s-5.44,28.36,1.78,47.94" fill="none" stroke="#ed1c24" stroke-miterlimit="10"/>
<polygon points="129.2 466.25 152.53 422.92 278.24 422.92 271.32 468.67 129.2 466.25" fill="#2f2e41" data-secondary="true"/>
<polygon points="157.69 425.21 139.2 461.2 246.47 462.92 268.89 425.21 157.69 425.21" opacity="0.2"/>
<polygon points="157.38 439.58 147.38 457.76 187.69 457.76 191.62 439.58 157.38 439.58" opacity="0.2"/>
<path d="M129.2,466.25v6.56a7.31,7.31,0,0,0,7.31,7.31H270.94l.38-11.45Z" fill="#2f2e41" data-secondary="true"/>
<path d="M129.2,466.25v6.56a7.31,7.31,0,0,0,7.31,7.31H270.94l.38-11.45Z" opacity="0.2"/>
<path d="M573.66,528.22s-6.21-27.35,6-37.51l2.59.69s-3.4,4.68-2.06,18.31l2.06,20.91Z" fill="#f7a48b"/>
<polygon points="578.72 466.16 588.42 465.19 599.71 484.32 587.38 484.32 578.72 466.16" fill="#2f2e41" data-secondary="true"/>
<ellipse cx="324.85" cy="169.69" rx="11.38" ry="12.8" fill="#f9b499"/>
<path d="M235.44,475.69s-49-10.73-57.91-22.26a4.43,4.43,0,0,1,1.48-6.56c4.05-2.21,13.3-6.25,31.42-9.64,0,0,29.12-2.29,27.75,8.33l5,13.19Z" fill="#f9b499"/>
<path d="M350.51,246.9s5.4,4,28,10.85c0,0,27.47,11.22,31.4,34.28,0,0,21.09,20.11,11.77,82.9l-2.45,24.52s.89,52.84-64,76.37a63.72,63.72,0,0,1-17.26,3.64l-83,5.84s-19.62,5.88-20.11-15.21V440.17s-2-10.3,9.32-9.81c0,0,21,.2,35.31-5.15,0,0,43.17-13.49,51.76-28.45,0,0,2.26-69.4,7.35-94.92Z" fill="#1ea70c" data-primary="true"/>
<path d="M387.3,272.9s-42.18-4.36-43.66,62.32l-2,49.52s2,22.56-21.09,31.88a253,253,0,0,1-65.73,20.61s-20.11-3.44-20.11,8.33v-8.78s0-6.91,9.32-6.42c0,0,43.35,2.83,82.75-28.43a9.44,9.44,0,0,0,4.32-5.17s6-7.44,6.29-25.1l2.65-48.48a88.84,88.84,0,0,1,5.49-26.74C351.48,280.87,363.61,263.33,387.3,272.9Z" fill="#1ea70c" data-primary="true"/>
<path d="M387.3,272.9s-42.18-4.36-43.66,62.32l-2,49.52s2,22.56-21.09,31.88a253,253,0,0,1-65.73,20.61s-20.11-3.44-20.11,8.33v-8.78s0-6.91,9.32-6.42c0,0,43.35,2.83,82.75-28.43a9.44,9.44,0,0,0,4.32-5.17s6-7.44,6.29-25.1l2.65-48.48a88.84,88.84,0,0,1,5.49-26.74C351.48,280.87,363.61,263.33,387.3,272.9Z" opacity="0.2"/>
<path d="M387.35,272.86c4.23,8,5.84,17.14,6.91,26.06.25,2.25.51,4.5.6,6.75l.2,3.39.09,1.69,0,1.69.07,6.78L395,326l-.12,3.39-.26,3.37-.55,6.75c-.51,4.49-1,9-1.67,13.44s-1.43,8.91-2.25,13.34l-2.66,13.27v0a92.3,92.3,0,0,1-17.95,43.82c-1.16,1.62-2.5,3.11-3.77,4.66s-2.66,3-4.12,4.35a88,88,0,0,1-9.06,7.86,95.26,95.26,0,0,1-20.91,11.67c-7.41,3.06-15.21,5-22.92,6.9-3.87,1-7.75,1.85-11.63,2.74s-7.8,1.65-11.7,2.43a405.27,405.27,0,0,1-47.27,6.85v-.11A470.19,470.19,0,0,0,285.25,463q11.67-2.5,23.25-5.36a172.37,172.37,0,0,0,22.75-6.85A94.43,94.43,0,0,0,352,439.38a88.1,88.1,0,0,0,9.06-7.65c1.47-1.34,2.76-2.84,4.14-4.26s2.62-3,3.8-4.57a80.9,80.9,0,0,0,6.66-9.84A89.55,89.55,0,0,0,381,402.41a81.6,81.6,0,0,0,6.12-22.92v0h0l2.48-13.28c.73-4.45,1.33-8.91,2-13.36s1-8.94,1.53-13.41l.51-6.73.27-3.36L394,326l.26-6.74,0-6.75c0-2.25-.18-4.49-.26-6.74s-.27-4.48-.49-6.72a117.27,117.27,0,0,0-2-13.32c-.53-2.19-1-4.38-1.73-6.52a34.76,34.76,0,0,0-2.53-6.23Z" opacity="0.2"/>
<path d="M721.57,305.25,732.05,307s.52-12.85.82-14.08-4.52-10.38-4.52-10.38-11.4-1.75-11.82.82.62,19.63.62,19.94S721.57,305.25,721.57,305.25Z" fill="#1ea70c" data-primary="true"/>
<path d="M421.11,494.48v5.81a3.46,3.46,0,0,0,3.45,3.45H593.28v-9.26Z" fill="#1ea70c" data-primary="true"/>
<path d="M421.11,494.48v5.81a3.46,3.46,0,0,0,3.45,3.45H593.28v-9.26Z" opacity="0.2"/>
<path d="M443.15,453.81l-22,40.67H593.28l-20.59-40a7.62,7.62,0,0,0-6.78-4.14H449.05A6.72,6.72,0,0,0,443.15,453.81Z" fill="#1ea70c" data-primary="true"/>
<polygon points="464.18 457.42 451.75 486.05 435.49 486.05 451.75 457.42 464.18 457.42" opacity="0.2"/>
<path d="M582.21,530.62s-49-12.77-60.38-25.43a5.4,5.4,0,0,1,1.47-8.38c3-1.58,8.29-3.24,17.57-3.76a64.59,64.59,0,0,1,41.34-1.65s-3.54,3.26-2.06,18.31Z" fill="#f9b499"/>
<path d="M457.27,145.14V133.33L439.11,85.44a2.88,2.88,0,0,1,1.59-3.68h0A2.88,2.88,0,0,1,444.34,83l3.93,7.17a.25.25,0,0,0,.46-.15l-1.91-15.93a3.13,3.13,0,0,1,3.1-3.5h0a3.12,3.12,0,0,1,3,2.17L458,88.68a.25.25,0,0,0,.48-.09l-1-17.72a2.79,2.79,0,0,1,2.79-2.94h0A2.81,2.81,0,0,1,463,69.85L469.57,90a.26.26,0,0,0,.51-.11l-2.06-17a3.56,3.56,0,0,1,3.54-3.8h0A3.54,3.54,0,0,1,475,71.58l9.27,24.31a1.25,1.25,0,0,0,1.67.69h0a1.25,1.25,0,0,0,.73-1c.29-2.71,1.68-12.56,6.87-15.47a2.13,2.13,0,0,1,3.17,2.14c-1,7-3.17,25-1.21,38.45l1.65,17.79Z" fill="#f9b499"/>
<path d="M457.27,133.33s13.49-16.65,38.35-10.78l1.48,15.94-39.83,6.65Z" fill="#f7a48b"/>
<path d="M441.05,339H568.86a0,0,0,0,1,0,0v25.54a0,0,0,0,1,0,0H441.05a8.5,8.5,0,0,1-8.5-8.5V347.5A8.5,8.5,0,0,1,441.05,339Z" fill="#1ea70c" data-primary="true"/>
<polygon points="477.39 342.2 560.55 342.2 562.36 359.24 477.39 359.24 477.39 342.2" fill="#fff" opacity="0.2"/>
<path d="M457.3,313.79h73.78a0,0,0,0,1,0,0V339a0,0,0,0,1,0,0H457.3a11,11,0,0,1-11-11V324.8A11,11,0,0,1,457.3,313.79Z" fill="#2f2e41" data-secondary="true"/>
<path d="M460.66,318.75h68.79a0,0,0,0,1,0,0V335a0,0,0,0,1,0,0H460.66a7.11,7.11,0,0,1-7.11-7.11v-2.06a7.11,7.11,0,0,1,7.11-7.11Z" fill="#fff"/>
<rect x="453.19" y="321.39" width="64.52" height="1.14" fill="#2f2e41" data-secondary="true"/>
<rect x="451.75" y="328.41" width="71.88" height="1.14" fill="#2f2e41" data-secondary="true"/>
<path d="M583.56,272.94s-29.12-17.39-39.3-39.44l-36.89-92.45s-4.24-13.15-11.45-8.91l-39.44,8.49s-7.21-1.7-3.82,12.72c0,0,25,131.89,70.82,179.39,0,0,28.84,25.87,45.38,31.8l31.38-67Z" fill="#1ea70c" data-primary="true"/>
<path d="M583.56,272.94s-29.12-17.39-39.3-39.44l-36.89-92.45s-4.24-13.15-11.45-8.91l-39.44,8.49s-7.21-1.7-3.82,12.72c0,0,25,131.89,70.82,179.39,0,0,28.84,25.87,45.38,31.8l31.38-67Z" opacity="0.2"/>
<path d="M574.11,310.84a57.77,57.77,0,0,1-10.64-6.71c-1.69-1.25-3.26-2.67-4.86-4s-3.11-2.84-4.53-4.4a112,112,0,0,1-15.23-20.09l-1.64-2.71-1.49-2.78c-1-1.88-2-3.7-2.86-5.64l-2.63-5.76L528,252.83l-8.86-23.59L501.66,182,493,158.31l-8.55-23.7,9.07,23.51,9,23.54,17.74,47.16L529,252.44l2.19,5.91,2.59,5.71c.81,1.93,1.87,3.74,2.8,5.61l1.45,2.79,1.59,2.7a111.6,111.6,0,0,0,14.89,20.16c1.38,1.58,2.93,3,4.41,4.47s3.08,2.83,4.74,4.12A57.93,57.93,0,0,0,574.11,310.84Z" fill="#fff"/>
<path d="M682,261s-34.22.75-51,3l-3.31-6.6s24.12,9.45,53.67-29.92l8,2.36s-6.77,2.5-6.94,11.82Z" fill="#f9b499"/>
<path d="M728.72,305.76c.73.28,1.46.56,2.17.85,26.21,10.61,43.88,35.34,46.75,63.47,5.21,51.2-9.52,111.46-9.52,111.46-6.86,34.33-27.92,39-27.92,39l1.95,17.26c.43,10.14-7.18,8.38-7.18,8.38l-46.64-14s-69.49,6.54-97.94,6.54c0,0-7.85,0-8.34-9.81l-2.29-23.25a26.4,26.4,0,0,1,3.8-16.74c1.64-2.58,3.64-4.65,5.84-4.65h10.31l-11.29-19.13s0-29.44-2-46.61A123.77,123.77,0,0,1,584,391.11s-6.87-42.18,30.41-79l33.85-22.08Z" fill="#1ea70c" data-primary="true"/>
<path d="M728.72,305.76c.73.28,1.46.56,2.17.85,26.21,10.61,43.88,35.34,46.75,63.47,5.21,51.2-9.52,111.46-9.52,111.46-6.86,34.33-27.92,39-27.92,39l1.95,17.26c.43,10.14-7.18,8.38-7.18,8.38l-46.64-14s-69.49,6.54-97.94,6.54c0,0-7.85,0-8.34-9.81l-2.29-23.25a26.4,26.4,0,0,1,3.8-16.74c1.64-2.58,3.64-4.65,5.84-4.65h10.31l-11.29-19.13s0-29.44-2-46.61A123.77,123.77,0,0,1,584,391.11s-6.87-42.18,30.41-79l33.85-22.08Z" opacity="0.2"/>
<path d="M743.07,314.25a116,116,0,0,1,3.33,14,106,106,0,0,1,1.6,14.33c.48,9.59.72,19.2.78,28.81s0,19.22-.4,28.83A243.32,243.32,0,0,1,745.8,429v0a96.09,96.09,0,0,1-7,24.91,102.87,102.87,0,0,1-5.86,11.57,94.11,94.11,0,0,1-7.4,10.65,90.28,90.28,0,0,1-8.87,9.47c-1.63,1.43-3.23,2.89-5,4.2s-3.46,2.59-5.23,3.83a92.88,92.88,0,0,1-23.3,11.21c-2,.73-4.15,1.21-6.23,1.8s-4.06,1.12-6.18,1.8A110.89,110.89,0,0,1,658.05,511c-8.53,1.31-17.1,2.19-25.68,2.88-17.16,1.39-34.37,2-51.58,2.39,17.2-.61,34.39-1.58,51.53-3,8.57-.73,17.12-1.65,25.61-3a110.86,110.86,0,0,0,12.57-2.64c2-.64,4.17-1.27,6.2-1.83s4.15-1.08,6.17-1.82a91.86,91.86,0,0,0,23-11.2c1.74-1.24,3.51-2.45,5.16-3.82s3.27-2.75,4.87-4.16a90.13,90.13,0,0,0,8.72-9.4A103.4,103.4,0,0,0,732,464.84a99.8,99.8,0,0,0,5.84-11.42,94.91,94.91,0,0,0,7.09-24.58v0h0a244.39,244.39,0,0,0,2.71-28.62c.43-9.58.56-19.19.53-28.79s-.22-19.2-.53-28.8a107.47,107.47,0,0,0-1.39-14.31A118.12,118.12,0,0,0,743.07,314.25Z" fill="#fff"/>
<path d="M681.37,452s-7,12.25-33.91,20.71l-2.42.87-8.67,3.15.08-.38.79-3.64S625.59,426.61,634.15,368c0,0,5.7-61.18,38.66-86.53l.32,2.76L681.37,355,676,396.82S674.72,426,681.37,452Z" fill="#1ea70c" data-primary="true"/>
<path d="M645,473.55l-8.59,2.77.79-3.64S625.59,426.61,634.15,368c0,0,5.7-61.18,38.66-86.53l.32,2.76C638.79,322.73,637,388.25,637,388.25,634.8,460.22,645,473.55,645,473.55Z" opacity="0.4"/>
<ellipse cx="650.72" cy="204.55" rx="58.13" ry="38.14" transform="translate(148.22 665.81) rotate(-60)" fill="#f9b499"/>
<ellipse cx="685.09" cy="218.52" rx="11.41" ry="12.52" fill="#f9b499"/>
<path d="M682.1,255.9c-1.63,12.68-6.15,19.94-7.47,22.17-2.16,3.63-3.08,3.86-4.3,6.2-9.86,18.93-.37,31.4-.37,31.4,6.66,13,1,21.87,1,21.87-15.46,25-3.08,48.32,4.08,58.44a62.92,62.92,0,0,1,11,27.1,72.83,72.83,0,0,1,.84,9.49l4.07-63c3.56-55.2,32.7-59.19,32.7-59.19-3.12-11.9-2.24-18.72-1.33-21.91a1.28,1.28,0,0,1,2.27-.4c7.73,11,4.13,17.73,4.13,17.73a74.43,74.43,0,0,1,25.17,15.66c9.24-9.5,2.93-24-1.1-31.07a35.07,35.07,0,0,0-4.43-6,23.53,23.53,0,0,1-5.48-20.46,39.81,39.81,0,0,0,.47-12.37c-1.6-13.26-8.72-16.07-8.72-16.07-10.46-7.29-7.93-22.5-7.93-22.5,1-40.89-24.4-56.74-24.4-56.74-27.58-21.24-55.48-5.43-55.48-5.43-7.92,4.08-16.48,0-16.48,0C604.92,149.36,611,186.66,611,186.66c.31,12-10.15,20.92-10.15,20.92C585.65,225,598,236.43,598,236.43c9.51,10.14-5.71,16.16-5.71,16.16-17.11,7.29-11.51,32.33-11.51,32.33,4.35,18.68-9,29.16-15.26,32.93a30.88,30.88,0,0,0-8.47,7.29c-15.07,19.24,3.86,37.12,3.86,37.12,6.66,6,23.09,28.85,23.09,28.85-4.84-45.81,30.41-79,30.41-79-4.82-.36-4.37-3.23-4.37-3.23l-.31-14.79c.31-12.05,4.75-12.68,4.75-12.68C613.22,265,631,264,631,264l-3.31-6.6c-16.27-4.06-19.79-22.82-19.79-22.82-6.89-41.16,25-68.49,25-68.49s2.51.21,4.22,6.26a49.15,49.15,0,0,0,3.64,9.37c3.85,7.38,11.18,19.83,19.4,25.58a14.47,14.47,0,0,0,13.88,1.36c4.78-2,13.59-4.89,16.73-.6,0,0,5.79,3.15,4.95,12.7a10.39,10.39,0,0,1-7.13,9.44,11.93,11.93,0,0,0-5.15,6s-1.22,1.71-1.08,6.9h0C682.23,250.65,682.45,253.19,682.1,255.9Z" fill="#2f2e41" data-secondary="true"/>
<path d="M453.43,157.18l6.94-1.43c2.32-.47,4.62-1,6.93-1.47,4.61-1,9.21-2.06,13.76-3.28s9.09-2.49,13.55-4c1.1-.4,2.23-.76,3.32-1.19l3.25-1.36,3.17-1.55c1-.58,2-1.24,3-1.85-.94.71-1.87,1.46-2.86,2.11l-3.08,1.8-3.23,1.51c-1.08.49-2.19.9-3.29,1.36a131.62,131.62,0,0,1-13.56,4.28c-4.6,1.13-9.22,2.19-13.88,3S458.14,156.71,453.43,157.18Z" fill="#fff"/>
<path d="M631,264l21.71-1.84,11.92-15.8s-18.81,16.28-36.94,11Z" fill="#f7a48b"/>
<path d="M614.49,281.44s-4.88,1.79-4.72,11.73l.28,15.74s.12,3.55,4.37,3.23l37.38-4.52s7.63-16.76,21-26.18c0,0,7.41-11.83,8.39-20.39,0,0-34.88.78-50.19,2.95C631,264,613.42,264,614.49,281.44Z" fill="#1ea70c" data-primary="true"/>
<path d="M614.49,281.44s-4.88,1.79-4.72,11.73l.28,15.74s.12,3.55,4.37,3.23l37.38-4.52s7.63-16.76,21-26.18c0,0,7.41-11.83,8.39-20.39,0,0-34.88.78-50.19,2.95C631,264,613.42,264,614.49,281.44Z" opacity="0.2"/>
<path d="M614.49,281.44s7.46-6.81,36.23-11.78l29.49-4s-3.54,10.09-7.4,15.8a73.9,73.9,0,0,0-21,26.18l-37.38,4.52s-4,.21-4.37-3.23l-.28-16.37S609.11,284.6,614.49,281.44Z" fill="#1ea70c" data-primary="true"/>
<path d="M623.86,276.59c.23,3,.34,5.89.43,8.84s.12,5.89.14,8.84,0,5.91-.12,8.81a14.08,14.08,0,0,0,.74,4.23,4.85,4.85,0,0,0,2.65,3.22,4.87,4.87,0,0,1-3.17-3,14.76,14.76,0,0,1-1.1-4.38c-.13-3-.13-5.91-.15-8.86s0-5.9.14-8.85S623.62,279.54,623.86,276.59Z" opacity="0.2"/>
<path d="M643.45,271c.18,3.76.2,7.52.22,11.27s-.09,7.51-.21,11.26v-.05c.11,1.25.26,2.54.48,3.8s.44,2.52.77,3.76a21,21,0,0,0,3,7,14.05,14.05,0,0,1-2.27-3.18A23,23,0,0,1,644,301.3a33.83,33.83,0,0,1-1-3.8,36,36,0,0,1-.61-3.9v-.05q.09-5.64.34-11.26C642.89,278.54,643.08,274.79,643.45,271Z" opacity="0.2"/>
<path d="M664.45,267.79c.31,3.41.38,6.8.5,10.19,0,1.69.13,3.37.22,5.06a27.58,27.58,0,0,0,.63,5,14.6,14.6,0,0,1-1.52-4.92,44.08,44.08,0,0,1-.47-5.12A51.49,51.49,0,0,1,664.45,267.79Z" opacity="0.2"/>
<path d="M583.56,489s28.9,1.23,55.39-10.54l32.86-12.75s20.12-5.89,21.59-40.23l3.92-63.19s5.3-52.84,48-47.8l-8.79-5.26s-4.4-1.15-12.9,1.14c0,0-30.74,6.21-32.7,59.19L687,430.85s-.33,22.24-24.85,32c0,0-36,15.37-62.46,21.42H589.4S586.42,482.59,583.56,489Z" fill="#1ea70c" data-primary="true"/>
<path d="M583.56,489s28.9,1.23,55.39-10.54l32.86-12.75s20.12-5.89,21.59-40.23l3.92-63.19s5.3-52.84,48-47.8l-8.79-5.26s-4.4-1.15-12.9,1.14c0,0-30.74,6.21-32.7,59.19L687,430.85s-.33,22.24-24.85,32c0,0-36,15.37-62.46,21.42H589.4S586.42,482.59,583.56,489Z" opacity="0.3"/>
<path d="M603.23,487.89c-.4,2.11-.77,4.21-1,6.33s-.56,4.23-.75,6.35a126.45,126.45,0,0,0-.55,12.75,93.17,93.17,0,0,0,1,12.7l.56,3.14c.17,1.05.5,2.06.74,3.1.41,2.1,1.24,4.07,1.84,6.13a52.72,52.72,0,0,1-4-12.22,71.84,71.84,0,0,1-1.28-12.84,90.65,90.65,0,0,1,.81-12.86A80.43,80.43,0,0,1,603.23,487.89Z" fill="#fff"/>
<rect x="50.36" y="601.5" width="774" height="2" fill="#2f2e41" data-secondary="true"/>
</svg>