 <!DOCTYPE svg PUBLIC "-//W3C//DTD SVG 1.1//EN" "http://www.w3.org/Graphics/SVG/1.1/DTD/svg11.dtd">
<svg id="a18dcc5d-1675-4c71-9bdd-09980ff40378" data-name="Layer 1" xmlns="http://www.w3.org/2000/svg" xmlns:xlink="http://www.w3.org/1999/xlink" width="865.76" height="682.89" viewBox="0 0 865.76 682.89">
<defs>
<clipPath id="b509bcb3-7bdc-40f7-8905-67fc7f35b640">
<path id="b9aa07c8-ee91-404c-a6ba-637bc8eea195" data-name="SVGID" d="M308.85,16.74C195.64,31.57,229.23,122.71,249,158.1a147.73,147.73,0,0,0,15.59,22.45c59.69,71.68-33.17,97.74-60.46,103.65-11,2.39-22,5.13-32.74,8.49C94.54,316.63,70.64,349.6,70.64,349.6c-106.49,124,14,211.25,14,211.25s95.71,115.73,428.55,111c0,0,268.38-7,321.12-252,0,0,27-143-46.88-235.56C787.4,184.36,640.12-26.65,308.85,16.74Z" fill="none"/>
</clipPath>
<style xmlns="http://www.w3.org/1999/xhtml">*, ::after, ::before { box-sizing: border-box; }
img, svg { vertical-align: middle; }
</style>
<style xmlns="http://www.w3.org/1999/xhtml">*, body, html { -webkit-font-smoothing: antialiased; }
img, svg { max-width: 100%; }
</style>
</defs>
<path d="M308.85,16.74C195.64,31.57,229.23,122.71,249,158.1a147.73,147.73,0,0,0,15.59,22.45c59.69,71.68-33.17,97.74-60.46,103.65-11,2.39-22,5.13-32.74,8.49C94.54,316.63,70.64,349.6,70.64,349.6c-106.49,124,14,211.25,14,211.25s95.71,115.73,428.55,111c0,0,268.38-7,321.12-252,0,0,27-143-46.88-235.56C787.4,184.36,640.12-26.65,308.85,16.74Z" fill="#1ea70c" data-primary="true"/>
<path d="M308.85,16.74C195.64,31.57,229.23,122.71,249,158.1a147.73,147.73,0,0,0,15.59,22.45c59.69,71.68-33.17,97.74-60.46,103.65-11,2.39-22,5.13-32.74,8.49C94.54,316.63,70.64,349.6,70.64,349.6c-106.49,124,14,211.25,14,211.25s95.71,115.73,428.55,111c0,0,268.38-7,321.12-252,0,0,27-143-46.88-235.56C787.4,184.36,640.12-26.65,308.85,16.74Z" fill="#fff" opacity="0.7"/>
<g clip-path="url(#b509bcb3-7bdc-40f7-8905-67fc7f35b640)">
<path d="M353.48,248.77s17.85,34,32.89,41.35l88.47-10.76L451.1,244.5l-26.73-8.1s-14.16,22.92-35.71-8.23l-21,2.06Z" fill="#1ea70c" data-primary="true"/>
<path d="M353.48,248.77s17.85,34,32.89,41.35l88.47-10.76L451.1,244.5l-26.73-8.1s-14.16,22.92-35.71-8.23l-21,2.06Z" opacity="0.1"/>
<path d="M441.23,135.8s64,21.54,111-44.63c0,0,15.34,9.11,21.1,15.82l-7.67,13s7.67-.89,12-6.2c0,0,11.51,11.13,13.91,33.84l-20.62,12.77s12.47-1.09,20.62-8.76c0,0,.35,20.87-1.69,29.86,0,0-40.61,3.2-44.68,2.33,0,0,31.05,8.41,42.65,6.38,0,0-5.22,19.44-10.44,25H564.61a43.52,43.52,0,0,0,10.45,5.51l-7,8.38s-13.34-4.32-19.43-7.51c0,0,8.7,8.13,18.27,10.45,0,0-12.8,15.69-16.55,16.55l-71.94-57-41.34,2.83-14.36-20-17.3-6.65S427.68,157,441.23,135.8Z" fill="#2f2e41" data-secondary="true"/>
<path d="M730.16,474.43s22.31-18.48,25.13-29.49c0,0-.87-23.63,13.28-39.08,0,0,5.68-7,7.63-3.49,0,0,3.68,4.57-7.85,28.08,0,0-9.11,20.23-14.89,27.2,0,0,41.87-15.08,50.14,1.05,0,0,1.49,2.44-14.74,4.36a46.84,46.84,0,0,0-9.78,2.23c-9.63,3.31-30,11-42.68,20.79l-11.13,5.85-2.62-5.56Z" fill="#a7a9ac"/>
<path d="M649.23,403s3.5-16.44,13.51-16.44c0,0,20.14,5.07,17.1-15.2,0,0,6.08-28.39,20.27-22.31,0,0,13.69,4.56,18.25-6.08,0,0,7.1-13.18,26.86-15.21,0,0,23.78-11.66,28.62-2.53,0,0,5.3-2,0,35,0,0,3.83,22-7.33,22.4,0,0-9.12,5.48-3.54,16.64,0,0,6.08,9-11.16,31.63,0,0-19.26,15-3.54,23.38,0,0,6.59,11.07-30.92,32s-2.57,0-2.57,0l-75.36,25.5-34.8-27.65,2.72-9.63,4.94-8.75Z" fill="#d1d3d4"/>
<path d="M654.07,472.47c3.47-6.23,7.25-12.28,11.11-18.27,2-3,3.92-6,6-8.88l3-4.41,3.12-4.35c8.33-11.57,17.14-22.81,26.29-33.76,2.28-2.74,4.66-5.39,7-8.1l3.51-4,3.59-4,7.21-7.9c2.45-2.59,4.94-5.15,7.42-7.71,4.9-5.19,10.08-10.1,15.15-15.11,2.52-2.52,5.21-4.86,7.82-7.3l7.87-7.23-7.7,7.41c-2.55,2.5-5.18,4.9-7.65,7.48-5,5.08-10.11,10-14.93,15.29l-7.33,7.77-7.17,7.92-3.57,4-3.49,4c-2.31,2.71-4.67,5.37-6.95,8.12-9.2,10.87-18,22.1-26.43,33.56l-3.17,4.3-3.09,4.36c-2.08,2.89-4.07,5.85-6.08,8.79C661.59,460.37,657.68,466.32,654.07,472.47Z" fill="#bcbec0" opacity="0.5"/>
<path d="M706.77,357.55l-.8,11.84-.92,11.82c-.29,4-.66,7.88-1,11.82l-1,11.82-.64-.53,11-3.17c3.65-1.06,7.3-2.14,11-3.15,7.33-2.07,14.66-4.12,22-6.07-7.24,2.34-14.52,4.58-21.8,6.81-3.63,1.13-7.29,2.2-10.93,3.29l-10.95,3.26-.71.21.07-.74L703.14,393c.38-3.94.71-7.87,1.13-11.81l1.19-11.8Z" fill="#bcbec0" opacity="0.5"/>
<path d="M670.21,408.37l.21,9.7.14,9.71c0,3.23.09,6.47.09,9.7l0,9.7-.56-.47c4.36-.81,8.73-1.61,13.11-2.36L696.36,442c8.75-1.48,17.51-3,26.29-4.3-8.69,1.81-17.42,3.48-26.14,5.15l-13.1,2.42c-4.37.82-8.74,1.59-13.11,2.36l-.57.09v-.57l0-9.7c0-3.23.06-6.47.1-9.7l.13-9.71Z" fill="#bcbec0" opacity="0.5"/>
<path d="M641.4,454.2c.43,2.65.76,5.31,1.06,8s.56,5.33.8,8,.42,5.34.55,8l.2,4c0,1.34.09,2.68.09,4-.23-1.32-.39-2.65-.59-4l-.47-4c-.32-2.66-.56-5.33-.8-8s-.42-5.34-.55-8S641.42,456.89,641.4,454.2Z" fill="#bcbec0" opacity="0.5"/>
<path d="M398.22,440.47a11.35,11.35,0,0,1,.16-6.91A11,11,0,0,0,398,425a22.53,22.53,0,0,0-4.15-6.23,19.4,19.4,0,0,1-3.92-5.84l-3.81-8.41a10.11,10.11,0,0,1-3.82-9.42,10.59,10.59,0,0,0-4.24-9.85,15.23,15.23,0,0,0-2.54-1.44S345.56,361,348.22,355.66c0,0,18-4.69,31.45-2.4a14.22,14.22,0,0,1,9,5.29,5.08,5.08,0,0,0,5.4,2,4.77,4.77,0,0,0,3.12-1c4.17-3.25,9.61-4.42,14.49-2.4s11.69,6.23,20.35,14.1c0,0,5,6.58,16.83-1.63s16,36.9,16,36.9l2.28,60-57.86,13.2Z" fill="#d1d3d4"/>
<path d="M365.26,363.62a243.59,243.59,0,0,1,20.92,14c6.75,5,13.24,10.34,19.55,15.88a247.46,247.46,0,0,1,18,17.66,189.17,189.17,0,0,1,15.74,19.65l-3.91-4.93c-.65-.82-1.29-1.66-2-2.46l-2.06-2.38c-1.37-1.58-2.7-3.2-4.1-4.75l-4.28-4.6c-5.79-6.05-11.75-11.94-18.07-17.43s-12.72-10.91-19.35-16l-5-3.8c-1.69-1.23-3.37-2.49-5.08-3.7Q370.54,367.06,365.26,363.62Z" fill="#bcbec0" opacity="0.5"/>
<path d="M373.22,374.39a73.11,73.11,0,0,1,7.95-.49l-.49.54c-.21-1.79-.36-3.59-.48-5.39-.05-.91-.1-1.81-.12-2.71s0-1.81,0-2.72c.22.88.38,1.77.55,2.66s.29,1.79.42,2.68c.25,1.79.46,3.58.61,5.38l0,.55h-.53A68.41,68.41,0,0,1,373.22,374.39Z" fill="#bcbec0" opacity="0.5"/>
<path d="M395.19,406.58l8.77,2.85c2.92.95,5.82,1.95,8.74,2.92s5.83,1.94,8.72,3l8.71,3-.58.65c-1.89-4-3.77-7.89-5.6-11.86l-5.55-11.89c-3.64-8-7.28-15.9-10.79-23.91,3.95,7.8,7.76,15.67,11.58,23.54l5.64,11.84c1.89,3.94,3.73,7.91,5.58,11.87l.47,1-1.06-.38-8.68-3.08c-2.9-1-5.78-2.09-8.67-3.14s-5.78-2.08-8.65-3.17Z" fill="#bcbec0" opacity="0.5"/>
<path d="M441.66,424s-31.79-29.16-25.7-50.45c0,0,9.34-9,32.89,34.83Z" fill="#a7a9ac"/>
<path d="M439.29,462.26s-34.7-28.78-29.42-33.66c0,0,12.58-9.83,49.13,29.08C459,457.68,459.38,471.56,439.29,462.26Z" fill="#a7a9ac"/>
<path d="M384.69,548.52S359.11,503.3,364,437.73c0,0-2-20.5,6.9-18.87,0,0,32.9,22.75,56.45,50.76,0,0,76.52,113.91,90.44,142.84v18.77a272.33,272.33,0,0,1-133.08-82.71Z" fill="#a7a9ac"/>
<path d="M463.28,683.3s-5.25,24.8-24,21.85c0,0-14.18-1.84-10-8.47,0,0,1.19-7.61-10.23-2.33,0,0-37.22-.11-33.17-11.05,0,0-3.68-8,17.32-20.16,0,0,11.06-7-.37-7.37,0,0-9.58,2.58-15.47,7,0,0-11.8,6-19.9-12.12,0,0-4.79-12.66-8.48-19.43,0,0-12.53-21.18,14.37-18.77,0,0,3-6.07,6.64-7.17,0,0-29.12-7.66-25.8-23l5.16-22.76s1.11-12.36,13.27-12.23c0,0,21.74-12,27.63,5.65l3.69,6.58,4.71-6.21s3-17.61,17.4-7.7c0,0,1.84,1.15,5.16,0,0,0,15.48.59,14.37,18.7,0,0-5.61,14.79-1.88,19.58,0,0,9.77-29.64,27.57-21.64L490,578.64s5.5,10.22-5.16,21.54c0,0-9.14,8.77-2.18,14.28,0,0,14.83-19.75,22.47-14.5,0,0,9.63,5.46,6,26.56C511.09,626.52,479.61,682.65,463.28,683.3Z" fill="#d1d3d4"/>
<path d="M380.62,564.33c5.64,5.67,11.2,11.41,16.74,17.16l16.54,17.35,16.37,17.51,8.12,8.81,8.05,8.89L438,625.5l-8.33-8.61-16.54-17.35L396.79,582C391.37,576.16,386,570.28,380.62,564.33Z" fill="#bcbec0" opacity="0.5"/>
<path d="M391.73,546.72c.51,5.2.91,10.41,1.3,15.63.21,2.6.35,5.21.52,7.82l.5,7.82,0,.54h-.54l-7.95,0c-2.66,0-5.31,0-8-.08l-7.95-.14c-2.65-.08-5.3-.13-7.95-.25,2.65-.11,5.3-.16,7.95-.25l7.95-.14c2.65-.06,5.3,0,8-.07l7.95,0-.51.53-.4-7.83c-.13-2.61-.29-5.22-.38-7.83C392,557.17,391.83,552,391.73,546.72Z" fill="#bcbec0" opacity="0.5"/>
<path d="M377.64,624c8.34-1.81,16.71-3.49,25.08-5.17l12.56-2.45c4.19-.8,8.38-1.64,12.58-2.4l-.4.48c0-7.21,0-14.42.12-21.64s.18-14.42.37-21.63c.19,7.21.29,14.42.37,21.63s.07,14.43.12,21.64v.41l-.4.08c-4.19.83-8.39,1.58-12.58,2.36l-12.59,2.33C394.47,621.14,386.07,622.64,377.64,624Z" fill="#bcbec0" opacity="0.5"/>
<path d="M405.52,663.61c3.43-1.56,6.9-3,10.37-4.44s7-2.82,10.48-4.19,7-2.69,10.55-4l5.31-1.9c1.79-.61,3.56-1.24,5.35-1.81-1.71.79-3.45,1.51-5.17,2.27l-5.2,2.17c-3.48,1.45-7,2.82-10.48,4.19s-7,2.69-10.56,4S409.1,662.45,405.52,663.61Z" fill="#bcbec0" opacity="0.5"/>
<path d="M467.32,564.33c-.34,6-.79,12.09-1.25,18.13s-1,12.07-1.53,18.11-1.13,12.06-1.76,18.08l-1,9c-.36,3-.68,6-1.07,9,.16-3,.39-6.05.58-9.07l.68-9.06c.47-6,1-12.07,1.53-18.11s1.13-12.06,1.76-18.08S466.57,570.34,467.32,564.33Z" fill="#bcbec0" opacity="0.5"/>
<path d="M457,391.56s-15.39-19.32-8.83-37.46a4.54,4.54,0,0,1,8-1.16,48.12,48.12,0,0,1,5.32,10.29l7.71,19.32Z" fill="#a7a9ac"/>
<path d="M657.32,652.63s15.53-12.11,27.66-26.54a35.13,35.13,0,0,1,14.5-10.25,48.37,48.37,0,0,0,5.52-2.5A66.45,66.45,0,0,1,718.13,608c12.92-3.63,39.56-12.71,55.71-29.38,0,0,39.7-34.81,39.41-46.56,0,0,.58-9.43-16.25-2.18,0,0-26.61-.84-36.37,4.66l-97.09,40.89L609,587.56s4.94,14.14,9.14,21.76C618.17,609.32,639.65,645.25,657.32,652.63Z" fill="#a7a9ac"/>
<path d="M661,448.38c-13.65,13.89-31.7,17.76-48.74,17.25-27.27-.79-52-12.75-52-12.75-.27.22-.53.45-.8.65a12.74,12.74,0,0,1-14.48.67h0a13.29,13.29,0,0,1-5.45-6.46l-5.37-13.58L522,440.69l-41.34,10c-7-.87-15.23-4.79-15.23-4.79-8.71-2.61-6.53,4.79-6.53,4.79L448.81,446a16.07,16.07,0,0,1-9.36-13.81c-1.05-26.48,44.8-73.76,44.8-73.76C508,339,514.42,325.37,514.42,325.37c5.51-7.55,2-9.3,2-9.3-6.38,1.46-16-3.18-16-3.18-16.55,33.07-59,33.51-59,33.51C406.76,349.21,383,318.08,383,318.08c-12-6.14,16.58-53.35,16.58-53.35,29.06,20.67,45.45,11.4,51.56,5.86a5.16,5.16,0,0,0,.77-6.83c-6.77-9.4-27.57-27.36-27.57-27.36-7.14-4.34-4.26-7.4-4.26-7.4,1.19-.38,5.65-1.86,9.8-3.24l8-2.66q3,2.93,6,6.29c1.67,1.84,3.23,3.67,4.71,5.45a37,37,0,0,0,4.83-4c.67-.68,1.27-1.33,1.83-2l-8.43-9c-5.59-6.38,0-11,0-11,16.11-19.4,10.68-34.45,10.68-34.45,3.76,2.79,19.73,10.55,19.73,10.55,42.07,17.12,67.32,55.55,67.32,55.55,9.42,14.08,16.32,19.15,16.32,19.15l1.08-2.82,17,11.75-.86,1.52c69.63,35.69,69.63,115.33,69.63,115.33,1.24,32.21,9.3,48.33,13.86,54.95A6.33,6.33,0,0,1,661,448.38Z" fill="#1ea70c" data-primary="true"/>
<path d="M454.64,460.71c-11.31-4-18.21-.83-20.69.78a3.43,3.43,0,0,1-2.5.47c-13.18-2.56-77.22-11.26-77.22-11.26-11.38-2.76-8.28,6.39-8.28,6.39l-4.14,30s59.38,39.28,97.48,41.27Z" fill="#1ea70c" data-primary="true"/>
<path d="M341.81,487.1s29.25,14,47.35,9.95c0,0,20.44-7.58,19.58-.42a1.27,1.27,0,0,0,1.39,1.42c6.14-.65,25.84-2.92,31.53-6.12l-2.37,36.44S407.61,529.05,341.81,487.1Z" fill="#fff" opacity="0.3"/>
<ellipse cx="359.04" cy="486.96" rx="2.8" ry="6.45" transform="translate(-216.22 674.35) rotate(-71.64)" fill="#fff" opacity="0.3"/>
<path d="M649.65,660.05s-57.78,46.83-148.87,22.46l13.63-57.46s-2.53-20.55-1.61-31.34h0c.79-9.35.11-23.87-.08-27.55,0-.56-.05-.86-.05-.86l-.79-3.44h0l-2.37-10.48a.87.87,0,0,0,0-.11,31.33,31.33,0,0,0-.44-3.49c-.06-.32-.12-.68-.2-1-.14-.74-.31-1.45-.48-2.17a66.07,66.07,0,0,0-6.54-16.4l-.28-.5c-.23-.41-.47-.82-.71-1.23-.38-.64-.76-1.27-1.14-1.86a.05.05,0,0,1,0,0,80.18,80.18,0,0,0-7-9.36l-.05-.07-.08,0-.15-.1-.25-.15a2.59,2.59,0,0,1-1.25-2.76,2.81,2.81,0,0,1,.13-.33,4.81,4.81,0,0,1,1.6-1.83l.32-.23,0,0c.6-.36,6.31-4,3.76-7.36l0,0a7.9,7.9,0,0,0-3.25-2.24l4.83-8.08,5.92-9.9-11.18-19.08a1.76,1.76,0,0,1,.34-2.19l4.75-4.27.68,1.21-3.59,3.87,20.17,30.36-7-36.6a4.47,4.47,0,0,1,1.83-4.49l23.85-16.67,5.38,13.58A13.33,13.33,0,0,0,553.79,456s4.13-.69,6.47-3.1l53.55,152.3Z" fill="#1ea70c" data-primary="true"/>
<path d="M649.65,660.05s-57.78,46.83-148.87,22.46l13.63-57.46s-2.53-20.55-1.61-31.34h0c.79-9.35.11-23.87-.08-27.55,0-.56-.05-.86-.05-.86l-.79-3.44h0l-2.37-10.48a.87.87,0,0,0,0-.11,31.33,31.33,0,0,0-.44-3.49c-.06-.32-.12-.68-.2-1-.14-.74-.31-1.45-.48-2.17a66.07,66.07,0,0,0-6.54-16.4l-.28-.5c-.23-.41-.47-.82-.71-1.23-.38-.64-.76-1.27-1.14-1.86a.05.05,0,0,1,0,0,80.18,80.18,0,0,0-7-9.36l-.05-.07-.08,0-.15-.1-.25-.15a2.59,2.59,0,0,1-1.25-2.76,2.81,2.81,0,0,1,.13-.33,4.81,4.81,0,0,1,1.6-1.83l.32-.23,0,0c.6-.36,6.31-4,3.76-7.36l0,0a7.9,7.9,0,0,0-3.25-2.24l4.83-8.08,5.92-9.9-11.18-19.08a1.76,1.76,0,0,1,.34-2.19l4.75-4.27.68,1.21-2,2.17a2.94,2.94,0,0,0-.29,3.62l18.89,28.44-7-36.63a4.41,4.41,0,0,1,1.81-4.45l23.87-16.68,5.38,13.58A13.33,13.33,0,0,0,553.79,456s4.13-.69,6.47-3.1l53.55,152.3Z" fill="#fff" opacity="0.3"/>
<path d="M646.78,658.61s10.15,6.3,10.4-1.39c0,0,1.52-15.39-5.2-27.31l-5.2-10.17,9.48,2.62a1.7,1.7,0,0,0,2.16-1.64v-7.17a1.71,1.71,0,0,0-.89-1.5L638,601.41,631.11,625Z" fill="#1ea70c" data-primary="true"/>
<path d="M612.28,465.69s-5.41,15.88-30.64,32.54c0,0-41.29-7.45-54.52-6.31,0,0,10.47-26.34,17.85-37.72h0a12.74,12.74,0,0,0,14.48-.67c.27-.2.53-.43.8-.65,0,0,24.7,12,52,12.75Z" fill="#2f2e41" data-secondary="true"/>
<polyline points="516.17 442.09 534.14 434.16 516.88 446.22" fill="#1ea70c" data-primary="true"/>
<polyline points="516.17 442.09 534.14 434.16 516.88 446.22" opacity="0.1"/>
<path d="M303.15,203.06s-7.34,6.25,1.72,28.51a34.15,34.15,0,0,0,9.26,13.11c3.49,3,7.87,5.44,12.07,4.09l2.48-18.44-11.81-24.52Z" fill="#2f2e41" data-secondary="true"/>
<path d="M303.15,203.06s-7.34,6.25,1.72,28.51a34.15,34.15,0,0,0,9.26,13.11c3.49,3,7.87,5.44,12.07,4.09l2.48-18.44-11.81-24.52Z" opacity="0.1"/>
<ellipse cx="314.94" cy="229.07" rx="3.43" ry="17.05" transform="translate(-67.97 158.1) rotate(-25.53)" fill="#2f2e41" data-secondary="true"/>
<path d="M457.55,174.38S441.78,185.07,420.11,229l17.82-5.9,12-11.62S465.39,191.18,457.55,174.38Z" fill="#1ea70c" data-primary="true"/>
<path d="M457.55,174.38S441.78,185.07,420.11,229l17.82-5.9,12-11.62S465.39,191.18,457.55,174.38Z" opacity="0.1"/>
<ellipse cx="403.72" cy="187.5" rx="26.16" ry="39.97" transform="translate(-41.39 192.3) rotate(-25.53)" fill="#f9b499"/>
<circle cx="429.59" cy="179.89" r="11.64" fill="#f9b499"/>
<path d="M303.15,203.06s17.57,16.22,23.05,45.71L386,194a20.11,20.11,0,0,0-5.32-7.69,5.93,5.93,0,0,0-5-1.12c-18.55,4.23-41,5.43-61.13,12.22C308.18,199.55,304.21,201,303.15,203.06Z" fill="#2f2e41" data-secondary="true"/>
<path d="M303.15,203.06s17.57,16.22,23.05,45.71L386,194a21.15,21.15,0,0,0-4.09-6.56,7.57,7.57,0,0,0-7.07-2.07c-18.38,4.08-40.51,5.35-60.32,12C308.18,199.55,304.21,201,303.15,203.06Z" opacity="0.2"/>
<path d="M311.3,198.52s-6.11-23.07,0-24.14c0,0,5.56-2.87,8.74,13.12,0,0,4.18-1.28,7.38.9,0,0,2.46-7.83,13.05-5.08a5.73,5.73,0,0,1,4.63-.73,10.1,10.1,0,0,1,6.45,4.56c2,3.13,4.66,8.48,1.93,11.37a6.64,6.64,0,0,1-4.45,0s-.87,3.37-6.53,1.92c0,0-1.9,4.93-10.88.36C331.62,200.8,321.44,195.14,311.3,198.52Z" fill="#f9b499"/>
<path d="M327.42,188.4a41.68,41.68,0,0,1,8.39,4.95,34.29,34.29,0,0,1,3.71,3.21,17.28,17.28,0,0,1,3,3.88,39.07,39.07,0,0,0-3.52-3.3c-1.23-1-2.5-2-3.78-3s-2.58-1.91-3.88-2.87S328.72,189.38,327.42,188.4Z" fill="#f7a48b"/>
<path d="M340.47,183.32a44.83,44.83,0,0,1,5.16,7.1,40.1,40.1,0,0,1,2,3.9,16.77,16.77,0,0,1,1.36,4.2c-.61-1.34-1.35-2.58-2.07-3.84l-2.21-3.74C343.29,188.44,341.79,186,340.47,183.32Z" fill="#f7a48b"/>
<path d="M349.81,188.4a14.84,14.84,0,0,1,2.95,4.14,13.55,13.55,0,0,1,1.46,4.87c-.9-1.47-1.62-2.94-2.37-4.42A44.33,44.33,0,0,1,349.81,188.4Z" fill="#f7a48b"/>
<path d="M365.32,160.19s-23.38,20.51-8.63,21.23c0,0,60.42-2.16,87.4-50.36,0,0,4.67-11.15-6.12-9.35l-20,5s-18.1-19.42-25.3-10.79l-5.75,8.64s-2.88,7.91-10.43,4.67c0,0-16.55-3.24-16.19,10.79C360.28,140.05,360.28,146.53,365.32,160.19Z" fill="#1ea70c" data-primary="true"/>
<path d="M420.11,126.2a33.07,33.07,0,0,1-1.38,5.19,36.49,36.49,0,0,1-14.65,18.16c-19.66,12.93-38.76,10.64-38.76,10.64l-1.78-5.14s37.65-9,50-32.49l4.36,4.18Z" fill="#2f2e41" data-secondary="true"/>
<path d="M437.82,188.13A151.18,151.18,0,0,1,450,198.64a49.78,49.78,0,0,1,4.15,4.67l10.62,13.47s-10.22,14.8-16.1,18.06c0,0-12.29-15.11-19.63-18.87,0,0,5.57-7.11,3.19-24.73A11.59,11.59,0,0,0,437.82,188.13Z" fill="#f7a48b"/>
<path d="M464.73,216.78a22,22,0,0,1,3.62-4.87,23.86,23.86,0,0,1,4.8-3.79,18.35,18.35,0,0,1,5.72-2.2,15.89,15.89,0,0,1,6.07,0c-.5,0-1,.06-1.5.07l-.75,0-.74.11-1.46.21-1.44.36a22,22,0,0,0-5.39,2.31,31.54,31.54,0,0,0-4.76,3.48A40.39,40.39,0,0,0,464.73,216.78Z" opacity="0.1"/>
<path d="M502.56,218.73a29.28,29.28,0,0,1,7.21,7.43,50.43,50.43,0,0,1,5,9.1,64.78,64.78,0,0,1,3.31,9.85c.41,1.68.74,3.38,1.11,5.07s.5,3.41.71,5.13c-.43-1.68-.8-3.36-1.2-5s-.87-3.32-1.37-5-1-3.29-1.61-4.88l-.88-2.41-1-2.36a63.68,63.68,0,0,0-4.74-9.08,42,42,0,0,0-3-4.15A26,26,0,0,0,502.56,218.73Z" opacity="0.1"/>
<path d="M500.49,312.89s15.69-29.55,17-49.84a8.37,8.37,0,0,1,1.11,5s5.51-.44,12.62,7L542,284.89l18.93-25.24,1.09-2.83,1.06.73a162.47,162.47,0,0,1-34.13,45s-13.21,9.16-12.48,13.49l5.95,7s.87,2.32,10.88-6l20.89-15.81s21.88-18.79,23.49-33.62l1.31.91-.87,1.52,1.62.85s-7.87,22-31.37,40.23a13.33,13.33,0,0,0-4.91,8c-1,5.12-3.16,13.31-7.92,20.07a23.87,23.87,0,0,1-7.63,6.89c-7.37,4.27-25.6,16.4-23.05,30.57l-24.22,74a95.38,95.38,0,0,1-15.23-4.79s-7.84-3.91-6.53,4.79l-10.2-4.76a16,16,0,0,1-9.28-12.88c-.42-4.65.57-10.95,4.61-19.33,0,0,15.77-30.85,40.25-55.29,0,0,24.38-20.24,30.18-33.08,0,0,7-9.89.78-9.08C515.2,316.28,508.73,317.17,500.49,312.89Z" opacity="0.1"/>
<path d="M552.33,307.93S574,341,568.1,397.38c0,0-6.92,50.17-9.57,56.82l1.73-1.32,3,1.32s12.39-48.11,8.74-94.72a77.54,77.54,0,0,0-1.74-11.26C567.81,337.7,562,315.1,554.49,306Z" opacity="0.1"/>
<path d="M512.21,293.54s5.33-14.27,6.19-23.72c0,0,2.41-.86,10.14,6.7L540.92,287,534,294.74S518.74,296,512.21,293.54Z" fill="#1ea70c" data-primary="true"/>
<circle cx="397.77" cy="308.24" r="5.95" fill="none" stroke="#ed1c24" stroke-miterlimit="10" stroke-width="0.25"/>
<path d="M402.76,199.57l-54.32,55.74c-3.29-32.29-26.08-38.53-26.08-38.53l71.15-31.29a8.7,8.7,0,0,1,5-.7,7.83,7.83,0,0,1,5.7,3.77A9.13,9.13,0,0,1,402.76,199.57Z" fill="#2f2e41" data-secondary="true"/>
<path d="M348.44,255.31c-8,6.87-20-8.69-20-8.69-14.26-22.91-6.1-29.84-6.1-29.84S345.15,223,348.44,255.31Z" fill="#2f2e41" data-secondary="true"/>
<path d="M348.44,255.31c-8,6.87-20-8.69-20-8.69-14.26-22.91-6.1-29.84-6.1-29.84S345.15,223,348.44,255.31Z" opacity="0.1"/>
<ellipse cx="336.27" cy="235.74" rx="4.31" ry="15.1" transform="translate(-73.9 215.41) rotate(-32.19)" fill="#2f2e41" data-secondary="true"/>
<path d="M339.48,209.25s16.5,9,23.1,31.55l23.41-24s-11-17.6-19.59-19.37Z" opacity="0.1"/>
<path d="M523.52,503.19s-5.9-11.09,3.6-11.26c0,0,24-1.49,54.52,6.3l23,69.84s9.46,33.34,14.87,29.74c0,0,11.26-6.76,18.47,3.6,0,0,16.89,44.43,12.88,55.72a2.86,2.86,0,0,1-4.06,1.48c-4.29-2.32-15.87-10.15-38.11-35.12,0,0-25.68-23.88-63.07-76.6C545.6,546.89,519,510.4,523.52,503.19Z" fill="#2f2e41" data-secondary="true"/>
<path d="M523.52,503.19s-5.9-11.09,3.6-11.26c0,0,24-1.49,54.52,6.3l23,69.84s9.46,33.34,14.87,29.74c0,0,11.26-6.76,18.47,3.6,0,0,16.89,44.43,12.88,55.72a2.86,2.86,0,0,1-4.06,1.48c-4.29-2.32-15.87-10.15-38.11-35.12,0,0-25.68-23.88-63.07-76.6C545.6,546.89,519,510.4,523.52,503.19Z" opacity="0.2"/>
<path d="M458.86,450.7s-16.69,35.09-18.15,45.24c0,0,42.94-2,52.81,4.07l10.73-18-11.17-19.08a1.75,1.75,0,0,1,.34-2.19l4.74-4.26-.87-2.29-18.84-4-13.06-4.27S457.58,442.15,458.86,450.7Z" fill="#2f2e41" data-secondary="true"/>
<path d="M512.8,593.7c-5.33-2.94-22.84-13.17-36.69-27.25,0,0-50.2-40.92-43.52-57.16,0,0-11.6-10.44,8.12-13.35,0,0,44.78-3.2,52.8,4.06a7.9,7.9,0,0,1,3.25,2.24l0,0c1.09,1.52,1.08,3.85-3.27,7,0,0-.2.12-.49.33l0,0-.32.23a4.81,4.81,0,0,0-1.6,1.83,2.81,2.81,0,0,0-.13.33c-.31.87-.11,1.85,1.25,2.76l.25.15.15.1.08,0,.05.07a80.18,80.18,0,0,1,7,9.36.05.05,0,0,0,0,0,66.1,66.1,0,0,1,9.15,22.16c.08.36.14.72.2,1,.18,1.15.34,2.31.44,3.49a.87.87,0,0,1,0,.11l2.37,10.48h0l.79,3.44s0,.3.05.86C512.91,569.83,513.59,584.35,512.8,593.7Z" fill="#2f2e41" data-secondary="true"/>
<path d="M512.8,593.7c-5.33-2.94-22.84-13.17-36.69-27.25,0,0-50.2-40.92-43.52-57.16,0,0-11.6-10.44,8.12-13.35,0,0,44.78-3.2,52.8,4.06a7.9,7.9,0,0,1,3.25,2.24l0,0c1.09,1.52,1.08,3.85-3.27,7,0,0-.2.12-.49.33l0,0-.32.23a4.81,4.81,0,0,0-1.6,1.83,2.81,2.81,0,0,0-.13.33c-.31.87-.11,1.85,1.25,2.76l.25.15.15.1.08,0,.05.07a80.18,80.18,0,0,1,7,9.36.05.05,0,0,0,0,0,66.1,66.1,0,0,1,9.15,22.16c.08.36.14.72.2,1,.18,1.15.34,2.31.44,3.49a.87.87,0,0,1,0,.11l2.37,10.48h0l.79,3.44s0,.3.05.86C512.91,569.83,513.59,584.35,512.8,593.7Z" opacity="0.2"/>
<ellipse cx="493.55" cy="420.69" rx="37.08" ry="21.43" transform="translate(-33.69 798.3) rotate(-76.05)" fill="#f9b499"/>
<path d="M478.71,400.37s-5.49-19.61,4-20.83c0,0,.83-11.55,5.79-11.35,0,0,4.54-.82,7,6.2,0,0,3.31-7.85,11.16,2.89,0,0,27.06,6.41,25.61,26.65,0,0,13.22,4.39,5.79,16.76,0,0-7.4,11.17-14.63,17L514.34,425s1.83-5.6,1.83-15.4c0,0-20.19-27.43-33.6-15A38.47,38.47,0,0,0,478.71,400.37Z" fill="#2f2e41" data-secondary="true"/>
<path d="M516.17,409.56a21.91,21.91,0,0,1,6.35-1.52,23.06,23.06,0,0,1,6.58.29,22.26,22.26,0,0,1,3.2.87c.52.18,1,.44,1.52.65l.76.34.71.43a18.42,18.42,0,0,1,5,4.23c-.44-.33-.86-.66-1.28-1a10.09,10.09,0,0,0-1.31-.94l-1.34-.87c-.46-.27-1-.48-1.42-.73a22.44,22.44,0,0,0-6-2,30.56,30.56,0,0,0-6.34-.52,31.1,31.1,0,0,0-3.2.24A26.64,26.64,0,0,0,516.17,409.56Z" opacity="0.2"/>
<path d="M516.17,412.91a20.32,20.32,0,0,1,6.08-.42,21.41,21.41,0,0,1,6,1.31c.48.2,1,.36,1.43.6l1.37.71c.45.26.87.57,1.3.85l.64.44.58.51a16.72,16.72,0,0,1,3.86,4.73,25.18,25.18,0,0,0-4.35-4.11,20.93,20.93,0,0,0-5.19-2.78,27.42,27.42,0,0,0-5.73-1.48A35.18,35.18,0,0,0,516.17,412.91Z" opacity="0.2"/>
<path d="M516.17,417.17a24.67,24.67,0,0,1,8.79,5.09,21.16,21.16,0,0,1,3.37,3.88,14.78,14.78,0,0,1,2,4.68,27.21,27.21,0,0,0-2.68-4.22,31.27,31.27,0,0,0-3.41-3.59,46.66,46.66,0,0,0-3.89-3.09C519,419,517.63,418,516.17,417.17Z" opacity="0.2"/>
<path d="M481.65,395.77a9.7,9.7,0,0,1-.93-2.91,27.4,27.4,0,0,1-.08-9,27.76,27.76,0,0,1,.48,3c.11,1,.18,2,.25,3s.11,2,.14,3S481.55,394.76,481.65,395.77Z" opacity="0.2"/>
<path d="M488.35,391.56a9.45,9.45,0,0,1-2.18-4.12,24.35,24.35,0,0,1-.83-4.62c0-.78-.09-1.55-.11-2.33s0-1.56.06-2.33.1-1.55.2-2.32.21-1.53.37-2.3c.2,3.1.22,6.16.49,9.2.12,1.51.31,3,.58,4.51A13.49,13.49,0,0,0,488.35,391.56Z" opacity="0.2"/>
<path d="M495.53,374.39a46.41,46.41,0,0,1,3.7,10,47.74,47.74,0,0,1,1.56,10.5c-.89-3.44-1.66-6.85-2.55-10.25S496.45,377.82,495.53,374.39Z" opacity="0.2"/>
<path d="M503.37,373.54c.61,1.12,1.1,2.29,1.61,3.46s.93,2.36,1.35,3.56a75.27,75.27,0,0,1,3.55,14.8c.18,1.26.3,2.52.42,3.78s.14,2.54.17,3.81c-.46-2.5-.84-5-1.36-7.46s-1-4.94-1.61-7.38-1.24-4.89-1.91-7.32S504.17,376,503.37,373.54Z" opacity="0.2"/>
<path d="M513.77,406.58a30.33,30.33,0,0,0,3-5.54,34,34,0,0,0,1.87-6c.14-.51.19-1,.29-1.54a13.15,13.15,0,0,0,.23-1.55l.18-1.55.09-1.57a53.55,53.55,0,0,0-.15-6.32c.25,1,.49,2.07.66,3.13a28.37,28.37,0,0,1,.27,3.2,26.08,26.08,0,0,1-.58,6.41,24.54,24.54,0,0,1-2.16,6.07,26.45,26.45,0,0,1-1.63,2.77A18,18,0,0,1,513.77,406.58Z" opacity="0.2"/>
<path d="M496.77,454.09a44.6,44.6,0,0,0,12.74-15.16s1.17,5.93,8.26,4.27l.34,2.16L510,451a3.76,3.76,0,0,0-1.51,3.91l4.61,20.67-3.58.83-11.35-19.95-.87-2.29" fill="#f7a48b"/>
<path d="M498.84,457.68l-3.58,3.88,20.16,30.37-2.33-16.32-.81.19A3.82,3.82,0,0,1,508.1,474Z" fill="#1ea70c" data-primary="true"/>
<path d="M588.39,493.35s-.65-13.45-17-20.88c0,0-14.54-10.31-24.55-3.68a2.17,2.17,0,0,0-.67,3c.79,1.13,2.69,2.33,7.16,2.64,0,0-11.21,4.54-13,15.42,0,0-2.45,4.52,4.08,5.85,0,0,26.79.26,29.93,10.15l8.27-8.34Z" fill="#f9b499"/>
<path d="M553.36,474.43a12.31,12.31,0,0,1,3.31-1.06,13.2,13.2,0,0,1,3.5-.2,9.86,9.86,0,0,1,3.44.91,6.56,6.56,0,0,1,2.59,2.36,10.48,10.48,0,0,0-2.9-1.63,14,14,0,0,0-3.21-.63,24.64,24.64,0,0,0-3.33,0C555.64,474.21,554.51,474.31,553.36,474.43Z" fill="#f7a48b"/>
<path d="M542.41,484.06a22.49,22.49,0,0,1,5.48-2.85,29.41,29.41,0,0,1,12.23-1.8,27.21,27.21,0,0,1,6.08,1.08c-2.05-.16-4.08-.33-6.11-.29a44.3,44.3,0,0,0-12,1.76A40.21,40.21,0,0,0,542.41,484.06Z" fill="#f7a48b"/>
<path d="M540.36,489.85a27.26,27.26,0,0,1,5.83-1.69,34.15,34.15,0,0,1,6.06-.55c1,0,2,.06,3,.12s2,.2,3,.42a28,28,0,0,1,5.83,1.7c-2-.36-3.95-.73-5.94-.92a49.4,49.4,0,0,0-6-.3,56.51,56.51,0,0,0-6,.31A60,60,0,0,0,540.36,489.85Z" fill="#f7a48b"/>
<path d="M592.67,489.85s4.86,7.62,9.43,10.23a16.31,16.31,0,0,1,5.88,7.18s6.09,12,20.23,12.4c0,0-15.88-11.53-20.45-19.15a24.67,24.67,0,0,1,11.75-8.58s5.58-.34,7.58-2.08a146.47,146.47,0,0,0-19.75-15.42A80.31,80.31,0,0,1,592.67,489.85Z" fill="none" stroke="#ed1c24" stroke-miterlimit="10" stroke-width="0.25"/>
<path d="M642.58,532.07s-6.28-8.78-11.32-10.67c0,0,13.71,2.18,16.32,5.33" fill="none" stroke="#ed1c24" stroke-miterlimit="10" stroke-width="0.25"/>
<path d="M511.88,561.84l-2.37-10.48a.87.87,0,0,0,0-.11c-.1-1.18-.26-2.34-.44-3.49-.06-.32-.12-.68-.2-1-.14-.74-.31-1.45-.48-2.17a66.07,66.07,0,0,0-6.54-16.4l-.28-.5c-.23-.41-.47-.82-.71-1.23-.38-.64-.76-1.27-1.14-1.86a.05.05,0,0,1,0,0,80.18,80.18,0,0,0-7-9.36l-.05-.07-.08,0-.15-.1-.25-.15c-1.36-.91-1.56-1.89-1.25-2.76a2.81,2.81,0,0,1,.13-.33,4.81,4.81,0,0,1,1.6-1.83l.32-.23,0,0c.29-.21.49-.33.49-.33,4-2.91,4.33-5.11,3.52-6.63a2.92,2.92,0,0,0-.25-.4l0,0a7.9,7.9,0,0,0-3.25-2.24l4.83-8.08s8.84,5.9,11.54,31.41C509.88,523.33,512.71,552,511.88,561.84Z" fill="#fff" opacity="0.3"/>
<ellipse cx="515.69" cy="512.05" rx="3.65" ry="4.79" fill="#fff" opacity="0.3"/>
<ellipse cx="525.06" cy="559.54" rx="3.65" ry="4.79" fill="#fff" opacity="0.3"/>
<ellipse cx="532.37" cy="607.67" rx="3.65" ry="4.79" fill="#fff" opacity="0.3"/>
<g opacity="0.3">
<path d="M414.76,465.68c-1.64,1-3.27,2-4.84,3a29.3,29.3,0,0,0-4.47,3.44,4.75,4.75,0,0,0-.8,1,.88.88,0,0,0-.14.46c0,.13.06.18.15.29a2.78,2.78,0,0,0,2.34.15c1.77-.64,3.56-1.32,5.32-2,3.56-1.36,7.05-2.86,10.5-4.45a90,90,0,0,0,10.08-5.36,51.35,51.35,0,0,1-4.72,3.26c-1.64,1-3.32,1.92-5,2.79-3.41,1.75-6.93,3.25-10.47,4.69-1.79.69-3.58,1.34-5.41,2a3.61,3.61,0,0,1-3.16-.33,1.24,1.24,0,0,1-.47-.95,1.76,1.76,0,0,1,.27-.89,5.72,5.72,0,0,1,1-1.17A43,43,0,0,1,414.76,465.68Z" fill="#fff"/>
</g>
<path d="M305.37,457.94s-30.91-6.08-28.53-13c0,0-.91-5.91,14.33-2.77a31.54,31.54,0,0,0,6,.66l19.52.29s9.11-11.95,19,.34c0,0,5.85,14.32,10.24,13.63L342.24,484a5.21,5.21,0,0,0-6.26,1.83s-4.94,7.11-17.12,2.47c0,0-13.2,0-16.4-10,0,0-1.74-5.37,2.47-7,0,0-.87-2.61.15-3.91C305.08,467.37,301.45,464.46,305.37,457.94Z" fill="#f9b499"/>
<path d="M328.72,451.26s-2.35,10.2-7.19,14a4.69,4.69,0,0,1-7.38-2.75c-.72-3.24-.62-9,2.51-19.36" fill="none" stroke="#f7a48b" stroke-miterlimit="10"/>
<path d="M305.08,467.37s14,10.48,21.72,5.86a3.5,3.5,0,0,0,1-5.13,13,13,0,0,0-5.31-3.77" fill="none" stroke="#f7a48b" stroke-miterlimit="10"/>
<path d="M304.93,471.28s9,10.58,19.62,9.2a4.14,4.14,0,0,0,2.8-1.52c.84-1.11,1.35-3-.55-5.73" fill="none" stroke="#f7a48b" stroke-miterlimit="10"/>
<path d="M324,480.61s1.45,7.68-5.15,7.65c0,0-14.12.1-16.62-11" fill="none" stroke="#f7a48b" stroke-miterlimit="10"/>
<path d="M495.25,500.91s-7.11,4.29-11.08,9a4.46,4.46,0,0,1-3.49,1.59c-1.71,0-4,.37-5.09,2.45a3.39,3.39,0,0,0,1.79,4.69,21.09,21.09,0,0,0,4.49,1.16,8.74,8.74,0,0,1,6.21,4.26,28.24,28.24,0,0,0,5.45,6.75,15.13,15.13,0,0,1,3.23,4.14c3.82,7.35,12.43,28.63-4.91,45.45,0,0,12.16,8.6,20.95,13.33l.37-13-.45-14.55-3.21-14.79a52.21,52.21,0,0,0-1.13-6.81s-3.26-12.36-9.66-21.51a92.42,92.42,0,0,0-6.3-8.09s-3.75-1.42.23-5.07C492.65,509.88,501.41,504.32,495.25,500.91Z" opacity="0.2"/>
<path d="M446.84,655l6.06,3.11a15.51,15.51,0,0,1,4.29,2.9,1.56,1.56,0,0,1-1.33,2.6c-3.7-.54-7-3.71-7-3.71,2.7,15,11.72,17.86,11.72,17.86L457,678c4.28,6.54,14.21,7.79,14.21,7.79s.28-6.19,3.09-18c2.35-9.89-1.65-23.12-1.65-23.12-2.18,1.3-2.61,1-2.61,1-1.89,0,1.17-3.77,1.17-3.77.44-4.49-1.46-11.31-1.46-11.31-2.9,5.22-3.77,3.48-3.77,3.48-2.47-1.89,2.46-7.4,2.46-7.4-.43-5.8-5.08-15.38-5.08-15.38-4.2,8.71-5.94,7-5.94,7-2.76-.29,4.78-9.87,4.78-9.87l-8.41-11.17c-8.27,5.37-10.15,20-10.15,20l3.22,3.92c3.23,2,1.43,2.9,1.43,2.9-2.45.58-4.65-2.9-4.65-2.9v16l4.88,2.75a9.39,9.39,0,0,1,4.24,2.94,1,1,0,0,1-1,1.62,24.73,24.73,0,0,1-7.1-2.82c.73,5.95,2.21,12.62,2.21,12.62" fill="#1ea70c" data-primary="true"/>
<path d="M446.84,655l6.06,3.11a15.51,15.51,0,0,1,4.29,2.9,1.56,1.56,0,0,1-1.33,2.6c-3.7-.54-7-3.71-7-3.71,2.7,15,11.72,17.86,11.72,17.86L457,678c4.28,6.54,14.21,7.79,14.21,7.79s.28-6.19,3.09-18c2.35-9.89-1.65-23.12-1.65-23.12-2.18,1.3-2.61,1-2.61,1-1.89,0,1.17-3.77,1.17-3.77.44-4.49-1.46-11.31-1.46-11.31-2.9,5.22-3.77,3.48-3.77,3.48-2.47-1.89,2.46-7.4,2.46-7.4-.43-5.8-5.08-15.38-5.08-15.38-4.2,8.71-5.94,7-5.94,7-2.76-.29,4.78-9.87,4.78-9.87l-8.41-11.17c-8.27,5.37-10.15,20-10.15,20l3.22,3.92c3.23,2,1.43,2.9,1.43,2.9-2.45.58-4.65-2.9-4.65-2.9v16l4.88,2.75a9.39,9.39,0,0,1,4.24,2.94,1,1,0,0,1-1,1.62,24.73,24.73,0,0,1-7.1-2.82c.73,5.95,2.21,12.62,2.21,12.62" fill="#fff" opacity="0.55"/>
<path d="M455.38,612.46c.44,3.1.89,6.2,1.41,9.28s1,6.18,1.55,9.26c1.09,6.16,2.26,12.31,3.59,18.42.62,3.07,1.32,6.11,2,9.16s1.46,6.09,2.23,9.12l1.16,4.54,1.26,4.52c.77,3,1.77,6,2.6,9-2.15-5.88-4.12-11.84-5.77-17.89s-3.16-12.14-4.48-18.27-2.44-12.3-3.36-18.5S455.85,618.71,455.38,612.46Z" fill="#fff" opacity="0.3"/>
<path d="M613.81,592.82s15.88,1.06,25.61,4.38c0,0,6.61,7.53,16,4.21,0,0,5.61-2.28,5.07-14.44,0,0,2.57-1.48,7.44,6.73,0,0,10.42,14.75,43.08.89,0,0,13.89-7.27,5.56-16.65l-14.94-13.61s7.64-4.46,22.23,6.66c0,0,11.47,5.44,20.5-6.66,0,0,24.32-25.51,13.55-36.18l-9-3.63s27.44-17.26,21.88-28.82c0,0-12.85-20.75-29.18-11.64,0,0-16,7-14.94,2.15,0,0,10.08-8.73,1-13.74,0,0-3.82-5.41-12.5,0,0,0-15.85-2.27-22.52-5.9,0,0-15-3.67-14.66,13.2,0,0-2.08,13.4-10.42,13.75,0,0-2.43-7.34.69-13.75,0,0,1.45-11.8-7.78-10.15,0,0-17.17,5.29-29.22,24.1l-26.64,74.35S609.38,586.16,613.81,592.82Z" fill="#bcbec0"/>
<path d="M659.23,538c6.42-2.54,12.94-4.81,19.5-7s13.18-4.11,19.82-6,13.38-3.46,20.14-4.89,13.58-2.56,20.45-3.29c-3.4.63-6.81,1.15-10.17,1.89s-6.75,1.42-10.11,2.16c-6.71,1.59-13.4,3.26-20,5.11s-13.26,3.77-19.86,5.77q-5,1.49-9.88,3.07C665.78,535.84,662.51,536.92,659.23,538Z" fill="#d1d3d4"/>
<path d="M659.23,476.44l-5,6.71c-1.63,2.25-3.26,4.5-4.81,6.79s-3.08,4.61-4.49,7c-.72,1.19-1.35,2.42-2,3.66l-.87,1.88c-.22.66-.46,1.31-.71,2a27,27,0,0,1,2.87-7.87,63.17,63.17,0,0,1,4.33-7.19c1.59-2.3,3.25-4.55,5-6.69S657.25,478.41,659.23,476.44Z" fill="#d1d3d4"/>
<path d="M655.77,526.73a50,50,0,0,1,3.83-6.66c1.4-2.15,2.92-4.22,4.48-6.26s3.18-4,4.87-5.94L671.5,505c.89-.93,1.76-1.87,2.67-2.77-1.5,2.08-3.06,4.1-4.62,6.13l-4.67,6.06c-1.57,2-3.1,4.05-4.64,6.08-.78,1-1.53,2-2.27,3.08S656.48,525.67,655.77,526.73Z" fill="#d1d3d4"/>
<path d="M660.48,541.11a58.85,58.85,0,0,1,8.13,6,91.41,91.41,0,0,1,7.31,7,100.38,100.38,0,0,1,6.49,7.77c1,1.33,2,2.74,3,4.11s1.82,2.84,2.7,4.28c-2.08-2.66-4.11-5.33-6.27-7.9l-1.61-1.94-1.65-1.89c-1.08-1.28-2.23-2.5-3.36-3.74-2.28-2.46-4.65-4.82-7.07-7.13-1.21-1.17-2.46-2.28-3.74-3.38S661.81,542.14,660.48,541.11Z" fill="#d1d3d4"/>
<path d="M693.63,507.26,689,513.78c-1.55,2.18-3.15,4.32-4.73,6.48s-3.15,4.32-4.76,6.45l-4.81,6.42-.14-.69c3.22,1.95,6.34,4,9.39,6.23s6.05,4.44,8.94,6.84,5.68,4.91,8.29,7.61a58.12,58.12,0,0,1,7.09,8.72,69.6,69.6,0,0,0-7.47-8.34c-2.67-2.6-5.55-5-8.46-7.33s-5.91-4.56-9-6.71-6.15-4.24-9.31-6.21l-.45-.28.32-.41,4.87-6.37c1.61-2.14,3.28-4.23,4.91-6.34s3.28-4.23,5-6.32Z" fill="#d1d3d4"/>
<path d="M737.75,490.44c-3.63,5.3-7.38,10.53-11.14,15.74l-5.7,7.77c-1.88,2.61-3.83,5.16-5.76,7.73L715,521c3.53,2.21,7.06,4.43,10.55,6.69s7,4.53,10.44,6.86q-5.43-3.09-10.79-6.29c-3.59-2.12-7.14-4.28-10.69-6.46l-.43-.26.3-.42c1.9-2.58,3.78-5.19,5.72-7.75l5.79-7.71C729.81,500.55,733.72,495.45,737.75,490.44Z" fill="#d1d3d4"/>
<path d="M715.17,472.47s5.22-20.3,15.35-27.53c0,0,7,3.49-2.85,27.53C727.67,472.47,724,466.84,715.17,472.47Z" fill="#a7a9ac"/>
<path d="M397.47,268.4l-9.58,18.37s-19.57-13.31-23-38.27c0,0,.24-18.16-9.21-33.18a12.79,12.79,0,0,1-2.18-4.53c-.28-1.75.45-3.27,4.06-3.08,0,0,5.51-5.4,13.78,0a21.78,21.78,0,0,1,8.7,5.83l.73-.44s-5.95-15.08-1.74-16.61c0,0,2.46-.73,4.35,5.22l3.77,14.58s1.75,5.22,1.45,15.95c0,0,1.63,24.79,7,33.91h0A9.68,9.68,0,0,0,397.47,268.4Z" fill="#f9b499"/>
<path d="M397.47,268.4l-9.58,18.37s-19.57-13.31-23-38.27c0,0,.24-18.16-9.21-33.18a12.79,12.79,0,0,1-2.18-4.53h0s8,5.2,12.47,25.8c0,0,5.22,30.17,23.79,40.91l5.87-11.36h0Z" fill="#f7a48b"/>
<path d="M357.6,207.71a33.87,33.87,0,0,1,4.62,4.26,44.48,44.48,0,0,1,3.93,4.93,43.39,43.39,0,0,1,3.21,5.42,36.3,36.3,0,0,1,2.31,5.85c-1-1.85-1.94-3.69-3-5.47s-2.16-3.53-3.35-5.23-2.41-3.36-3.69-5S359,209.26,357.6,207.71Z" fill="#f7a48b"/>
<path d="M364.64,205.31a37.8,37.8,0,0,1,6.75,7.37,31.31,31.31,0,0,1,2.55,4.33,17.67,17.67,0,0,1,1.56,4.77,48.74,48.74,0,0,0-4.94-8.52c-.93-1.35-1.93-2.66-2.91-4Z" fill="#f7a48b"/>
<path d="M371.38,207.69a23.7,23.7,0,0,1,3,2.32,32.75,32.75,0,0,1,2.69,2.71,22.5,22.5,0,0,1,2.31,3.08,11.4,11.4,0,0,1,1.54,3.52,29.8,29.8,0,0,0-2.19-3.07c-.78-1-1.59-1.92-2.42-2.86C374.71,211.5,373,209.67,371.38,207.69Z" fill="#f7a48b"/>
<ellipse cx="516.88" cy="433.67" rx="10.28" ry="7.68" transform="translate(-71.07 764.65) rotate(-69.37)" fill="#f9b499"/>
<path d="M655.81,568.87s-8.94,25.18-41.61,6.57c0,0-21.54-12.75-27.62-23.07a68.27,68.27,0,0,0-14-20.63s-6.7-9.34-5.29-17h0a9.87,9.87,0,0,1,5.28-7.07l9-9.43,8.71-6.32s13.38-11.65,17-17.49c0,0,51.61,33.29,52.57,70h0c0,.35,0,.69,0,1C659.93,545.5,662.68,556.5,655.81,568.87Z" fill="#1ea70c" data-primary="true"/>
<path d="M655.81,568.87s-8.94,25.18-41.61,6.57c0,0-21.54-12.75-27.62-23.07a68.27,68.27,0,0,0-14-20.63s-6.7-9.34-5.29-17h0s24.79,43.19,32,33.08a22.94,22.94,0,0,1,2.36-3c3.48-3.47,11.12-9.49,14.79.27,0,0,1.45,17.61,14.65,11.73,0,0,4.09-4.35,13.66-2.17,0,0,11.8,2.36,15.14-10.24,0,.35,0,.69,0,1C659.93,545.5,662.68,556.5,655.81,568.87Z" fill="#fff" opacity="0.3"/>
<ellipse cx="581.72" cy="520.29" rx="4.2" ry="5.56" fill="#fff" opacity="0.3"/>
<path d="M471.19,685.79s.42-36.36,29-52.9c0,0-3.78,10.85-.06,7.12a8.29,8.29,0,0,0,1.62-2.35,30.68,30.68,0,0,1,24.41-17s-4.5,7.55-.87,6.1l5.15-5.8a8.79,8.79,0,0,1,4.78-2.79l17.49-3.75s-8.66,7.66-6.31,9.07c0,0,1.09,2.38,10.33-9.07l18.63.93s-2.66,5.17.63,3.76a36.37,36.37,0,0,0,3.91-3.6s12,.08,20.24,5.08c0,0-6.74,12.62-12.4,14.14,0,0-10.44,3.7-7.62,5.66,0,0,.88,1.31,9.36-4.13,0,0-5,11.8-14.16,19.13,0,0-16.3,1.23-16.5,4.49,0,0-1.43,3.05,14.26-1a79.67,79.67,0,0,1-25.26,15.22s-10.39-3.67-13.25-1.43c0,0-1.22,1.63,8.77,2.65,0,0-13.7,5.59-23.23,7.54,0,0-11.21-5.5-16.71-5.09,0,0,0,2.64,13.65,5.7,0,0-8.41,2.64-15.74,2.72a13.58,13.58,0,0,1-4.33-.69l-13.34-4.27s-2.33,1.78,10.55,5C494.19,686.27,480.18,687.86,471.19,685.79Z" fill="#1ea70c" data-primary="true"/>
<path d="M471.19,685.79s.42-36.36,29-52.9c0,0-3.78,10.85-.06,7.12a8.29,8.29,0,0,0,1.62-2.35,30.68,30.68,0,0,1,24.41-17s-4.5,7.55-.87,6.1l5.15-5.8a8.79,8.79,0,0,1,4.78-2.79l17.49-3.75s-8.66,7.66-6.31,9.07c0,0,1.09,2.38,10.33-9.07l18.63.93s-2.66,5.17.63,3.76a36.37,36.37,0,0,0,3.91-3.6s12,.08,20.24,5.08c0,0-6.74,12.62-12.4,14.14,0,0-10.44,3.7-7.62,5.66,0,0,.88,1.31,9.36-4.13,0,0-5,11.8-14.16,19.13,0,0-16.3,1.23-16.5,4.49,0,0-1.43,3.05,14.26-1a79.67,79.67,0,0,1-25.26,15.22s-10.39-3.67-13.25-1.43c0,0-1.22,1.63,8.77,2.65,0,0-13.7,5.59-23.23,7.54,0,0-11.21-5.5-16.71-5.09,0,0,0,2.64,13.65,5.7,0,0-8.41,2.64-15.74,2.72a13.58,13.58,0,0,1-4.33-.69l-13.34-4.27s-2.33,1.78,10.55,5C494.19,686.27,480.18,687.86,471.19,685.79Z" fill="#fff" opacity="0.5"/>
<path d="M573.89,634.05a215.38,215.38,0,0,0-54.51,19.55,239.38,239.38,0,0,0-25,14.69c-4,2.69-8,5.46-11.84,8.41s-7.66,5.93-11.33,9.09a198.71,198.71,0,0,1,22.73-18.15,224.54,224.54,0,0,1,25-14.94,218.64,218.64,0,0,1,26.78-11.45c4.64-1.45,9.24-3,14-4.13C564.34,635.82,569.14,635,573.89,634.05Z" fill="#fff" opacity="0.3"/>
</g>
<path d="M120.28,452.34l-8.39,29h-4.24L100.92,458l-7,23.3-4.19,0-8.1-29h4L92,476.89l7-24.55h4.24l6.64,24.46,6.36-24.46Z" fill="#1ea70c" data-primary="true"/>
<path d="M128.21,455.41v9.68h10.55v3.11H128.21v10H140v3.12H124.43v-29H140v3.11Z" fill="#1ea70c" data-primary="true"/>
<path d="M146.32,452.34h4.19l-4,9.43h-2.66Z" fill="#1ea70c" data-primary="true"/>
<path d="M170.08,481.29l-6.9-11.84h-4.57v11.84h-3.78v-29h9.35a12.35,12.35,0,0,1,5.54,1.12,7.86,7.86,0,0,1,3.39,3,8.39,8.39,0,0,1-5.77,12.67l7.26,12.13Zm-11.47-14.87h5.57a6.32,6.32,0,0,0,4.61-1.52,5.45,5.45,0,0,0,1.54-4,5.18,5.18,0,0,0-1.52-4,6.55,6.55,0,0,0-4.63-1.42h-5.57Z" fill="#1ea70c" data-primary="true"/>
<path d="M183.86,455.41v9.68h10.55v3.11H183.86v10h11.8v3.12H180.09v-29h15.57v3.11Z" fill="#1ea70c" data-primary="true"/>
<path d="M127.61,493.89v49.16h-12V522.81H97v20.24H85V493.89H97v19.26h18.63V493.89Z" fill="#1ea70c" data-primary="true"/>
<path d="M148.2,493.89v49.16h-12V493.89Z" fill="#1ea70c" data-primary="true"/>
<path d="M182,543.05l-10.22-18.56h-2.87v18.56h-12V493.89H177a22.16,22.16,0,0,1,9.91,2,14.06,14.06,0,0,1,6.13,5.57,15.57,15.57,0,0,1,2,7.88,14.59,14.59,0,0,1-2.77,8.75,14.83,14.83,0,0,1-8.15,5.46l11.34,19.47Zm-13.09-27h7.42a6.81,6.81,0,0,0,4.94-1.61,6.06,6.06,0,0,0,1.64-4.55,5.86,5.86,0,0,0-1.64-4.41,6.77,6.77,0,0,0-4.94-1.61h-7.42Z" fill="#1ea70c" data-primary="true"/>
<path d="M214.52,493.89v49.16h-12V493.89Z" fill="#1ea70c" data-primary="true"/>
<path d="M267.18,543.05h-12l-20-30.32v30.32h-12V493.89h12l20,30.46V493.89h12Z" fill="#1ea70c" data-primary="true"/>
<path d="M308.5,509.44a9,9,0,0,0-3.82-3.75,12.55,12.55,0,0,0-5.85-1.29,12,12,0,0,0-9.31,3.81Q286,512,286,518.4q0,6.79,3.67,10.61t10.12,3.82a12.27,12.27,0,0,0,7.46-2.24,12.76,12.76,0,0,0,4.45-6.45h-15.2v-8.82h26.05v11.14a23.53,23.53,0,0,1-4.52,8.33A23.83,23.83,0,0,1,310,541a25,25,0,0,1-11.07,2.38,26.26,26.26,0,0,1-13-3.18,22.74,22.74,0,0,1-8.89-8.86,28,28,0,0,1,0-25.95,22.68,22.68,0,0,1,8.86-8.89,25.93,25.93,0,0,1,12.95-3.19,25.23,25.23,0,0,1,14.88,4.27,20.19,20.19,0,0,1,8,11.84Z" fill="#1ea70c" data-primary="true"/>
</svg>