 <!DOCTYPE svg PUBLIC "-//W3C//DTD SVG 1.1//EN" "http://www.w3.org/Graphics/SVG/1.1/DTD/svg11.dtd">
<svg id="bf87c596-e06e-43b2-a703-c300a30ee278" data-name="Layer 1" xmlns="http://www.w3.org/2000/svg" width="865.76" height="682.89" viewBox="0 0 865.76 682.89">
<defs>
<style xmlns="http://www.w3.org/1999/xhtml">*, ::after, ::before { box-sizing: border-box; }
img, svg { vertical-align: middle; }
</style>
<style xmlns="http://www.w3.org/1999/xhtml">*, body, html { -webkit-font-smoothing: antialiased; }
img, svg { max-width: 100%; }
</style>
</defs>
<path d="M616.42,592.29H46.12v-541h570.3ZM49.31,589.11H613.23V54.46H49.31Z" fill="#e4e4e4"/>
<path d="M616.67,54.82l-.21,446.88c0,56.6,0,87.87,0,89h-1.59v1.59l-208.77.15-356.46.25v2.9l-2.11-2.9H45.83v-2.27l-1.25-1.71h1.25l0-533.81v-4l3.83,0L613,50.92h3.7v3.9ZM49.6,588.71l415.8.29,147.83.11c0-7.11,0-37.41,0-87.54L613,54.82,49.63,54.9Z" fill="#e4e4e4"/>
<rect x="47.71" y="52.87" width="567.11" height="31.21" fill="#2f2e41" data-secondary="true"/>
<path d="M66.25,543.2l22.94-32.71a8.22,8.22,0,0,1,11.68-1.84l12.06,9.11A8.21,8.21,0,0,0,125,515.31L159.81,455a8.22,8.22,0,0,1,13.57-1l21.74,27.56a8.22,8.22,0,0,0,13.39-.68l15.88-25a8.21,8.21,0,0,1,14.05.3L251.55,479a8.22,8.22,0,0,0,14.05.31L310.44,409a8.21,8.21,0,0,1,13.76-.15l74.08,110.81a8.23,8.23,0,0,0,12.92,1l45-49.54a8.22,8.22,0,0,1,11.91-.28l35.8,35.93a8.22,8.22,0,0,0,12.94-1.69l64-110.93a8.22,8.22,0,0,1,15.34,4.11v145Z" fill="#d1d3d4"/>
<path d="M594.88,561.32a3.76,3.76,0,0,1,0-.63c0-.47,0-1.11,0-2,0-1.8,0-4.46-.07-8.09l.15.14c-30.6.24-137.08.42-263.53.42s-233-.18-263.56-.42l.15-.14c0,3.63-.06,6.29-.07,8.09,0,.84,0,1.48,0,2a2.74,2.74,0,0,1,0,.63,6,6,0,0,1,0-.63c0-.47,0-1.11,0-2,0-1.8,0-4.46-.08-8.09v-.15h.15c30.6-.24,137.07-.42,263.56-.42s232.93.18,263.53.42H595v.15c0,3.63-.06,6.29-.07,8.09,0,.84,0,1.48,0,2A3.76,3.76,0,0,1,594.88,561.32Z" fill="#d1d3d4"/>
<path d="M126.36,560.48c-.31,0-.57-1-.57-2.25s.26-2.25.57-2.25.56,1,.56,2.25S126.67,560.48,126.36,560.48Z" fill="#d1d3d4"/>
<path d="M184.92,560.48c-.31,0-.56-1-.56-2.25s.25-2.25.56-2.25.57,1,.57,2.25S185.24,560.48,184.92,560.48Z" fill="#d1d3d4"/>
<path d="M243.49,560.48c-.31,0-.57-1-.57-2.25s.26-2.25.57-2.25.56,1,.56,2.25S243.8,560.48,243.49,560.48Z" fill="#d1d3d4"/>
<path d="M302.05,560.48c-.31,0-.56-1-.56-2.25s.25-2.25.56-2.25.57,1,.57,2.25S302.37,560.48,302.05,560.48Z" fill="#d1d3d4"/>
<path d="M360.62,560.48c-.31,0-.57-1-.57-2.25s.26-2.25.57-2.25.56,1,.56,2.25S360.93,560.48,360.62,560.48Z" fill="#d1d3d4"/>
<path d="M419.18,560.48c-.31,0-.56-1-.56-2.25s.25-2.25.56-2.25.57,1,.57,2.25S419.5,560.48,419.18,560.48Z" fill="#d1d3d4"/>
<path d="M477.75,560.48c-.31,0-.57-1-.57-2.25s.26-2.25.57-2.25.56,1,.56,2.25S478.06,560.48,477.75,560.48Z" fill="#d1d3d4"/>
<path d="M536.31,560.48c-.31,0-.56-1-.56-2.25s.25-2.25.56-2.25.57,1,.57,2.25S536.63,560.48,536.31,560.48Z" fill="#d1d3d4"/>
<path d="M508.76,313.37s0-1.26,0-3.66,0-6-.05-10.66c0-9.37-.05-23.14-.1-40.87-.05-35.44-.12-86.66-.21-149.9l.4.4-429,.14h0l.55-.54c0,72.2,0,141.59,0,205.09l-.52-.52,308.14.25,88.91.14,23.73.07,6.14,0,2.1,0-2,0-6.08,0-23.63.06-88.78.15-308.49.24h-.51v-.51c0-63.5,0-132.89,0-205.09v-.55h.57l429,.15h.4v.4c-.09,63.34-.17,114.65-.22,150.14,0,17.69-.07,31.44-.1,40.78,0,4.64,0,8.19,0,10.59S508.76,313.37,508.76,313.37Z" fill="#e4e4e4"/>
<path d="M411.66,197.71H116.13a4.93,4.93,0,1,1,0-9.85H411.66a4.93,4.93,0,0,1,0,9.85Z" fill="#e4e4e4"/>
<path d="M411.66,158.7H116.13a4.93,4.93,0,1,1,0-9.85H411.66a4.93,4.93,0,0,1,0,9.85Z" fill="#e4e4e4"/>
<path d="M249.66,197.71H116.13a4.93,4.93,0,1,1,0-9.85H249.66a4.93,4.93,0,1,1,0,9.85Z" fill="#2f2e41" data-secondary="true"/>
<path d="M449.12,194.88h-2.18v2.83h-1.59v-2.83H439v-1.15l5.88-7.52h1.77L441,193.47h4.42V191h1.54v2.49h2.18Z" fill="#2f2e41" data-secondary="true"/>
<path d="M458.12,194.26c0,2-1.41,3.58-4.35,3.58a6.61,6.61,0,0,1-4.22-1.4l.76-1.3a5.12,5.12,0,0,0,3.45,1.24c1.74,0,2.72-.81,2.72-2.06s-.82-2.1-3.48-2.1h-2.61l.61-6h6.48v1.43h-5.1l-.32,3.15h1.29C456.77,190.79,458.12,192.22,458.12,194.26Z" fill="#2f2e41" data-secondary="true"/>
<path d="M459.14,189.25c0-1.87,1.08-3.13,2.67-3.13s2.66,1.24,2.66,3.13-1.06,3.14-2.66,3.14S459.14,191.12,459.14,189.25Zm4.28,0c0-1.38-.6-2.2-1.61-2.2s-1.6.84-1.6,2.2.62,2.2,1.6,2.2S463.42,190.63,463.42,189.25Zm5.32-3H470l-7.85,11.5H460.9Zm-2.31,8.46c0-1.87,1.07-3.14,2.66-3.14s2.67,1.27,2.67,3.14-1.08,3.13-2.67,3.13S466.43,196.54,466.43,194.67Zm4.27,0c0-1.36-.63-2.2-1.61-2.2s-1.61.82-1.61,2.2.61,2.2,1.61,2.2S470.7,196,470.7,194.67Z" fill="#2f2e41" data-secondary="true"/>
<path d="M411.66,233.83H116.13a4.93,4.93,0,1,1,0-9.85H411.66a4.93,4.93,0,0,1,0,9.85Z" fill="#e4e4e4"/>
<path d="M293.17,233.83H116.43c-3.67,0-5.23-2.21-5.23-4.93s1.56-4.92,3.48-4.92H291.42c3.46,0,5.66,2.2,5.66,4.92A5,5,0,0,1,293.17,233.83Z" fill="#2f2e41" data-secondary="true"/>
<path d="M447.5,222.33v1.12l-4.65,10.38h-1.74l4.55-10.07h-5.25v2.05h-1.58v-3.48Z" fill="#2f2e41" data-secondary="true"/>
<path d="M448.61,228.08c0-3.74,2-5.88,4.7-5.88s4.68,2.14,4.68,5.88-2,5.88-4.68,5.88S448.61,231.82,448.61,228.08Zm7.74,0c0-2.94-1.25-4.42-3-4.42s-3.05,1.48-3.05,4.42,1.24,4.42,3.05,4.42S456.35,231,456.35,228.08Z" fill="#2f2e41" data-secondary="true"/>
<path d="M459.39,225.37c0-1.87,1.08-3.13,2.67-3.13s2.66,1.24,2.66,3.13-1.07,3.14-2.66,3.14S459.39,227.24,459.39,225.37Zm4.28,0c0-1.38-.61-2.2-1.61-2.2s-1.61.84-1.61,2.2.63,2.2,1.61,2.2S463.67,226.75,463.67,225.37Zm5.32-3h1.26l-7.84,11.5h-1.27Zm-2.31,8.46c0-1.87,1.06-3.14,2.65-3.14s2.68,1.27,2.68,3.14-1.08,3.14-2.68,3.14S466.68,232.66,466.68,230.79Zm4.26,0c0-1.36-.62-2.2-1.61-2.2s-1.6.82-1.6,2.2.6,2.2,1.6,2.2S470.94,232.15,470.94,230.79Z" fill="#2f2e41" data-secondary="true"/>
<path d="M411.66,269.09H116.13a4.93,4.93,0,1,1,0-9.85H411.66a4.93,4.93,0,0,1,0,9.85Z" fill="#e4e4e4"/>
<path d="M225.9,269.09H116.13a4.93,4.93,0,1,1,0-9.85H225.9a4.93,4.93,0,0,1,0,9.85Z" fill="#2f2e41" data-secondary="true"/>
<path d="M447.19,265.64c0,2-1.42,3.58-4.35,3.58a6.56,6.56,0,0,1-4.22-1.39l.75-1.3a5.17,5.17,0,0,0,3.45,1.23c1.74,0,2.73-.8,2.73-2.05s-.83-2.1-3.49-2.1h-2.61l.61-6h6.49V259h-5.11l-.31,3.15h1.28C445.84,262.18,447.19,263.61,447.19,265.64Z" fill="#2f2e41" data-secondary="true"/>
<path d="M448.55,263.34c0-3.74,2-5.87,4.7-5.87s4.67,2.13,4.67,5.87-2,5.88-4.67,5.88S448.55,267.09,448.55,263.34Zm7.73,0c0-2.94-1.25-4.41-3-4.41s-3.06,1.47-3.06,4.41,1.25,4.42,3.06,4.42S456.28,266.28,456.28,263.34Z" fill="#2f2e41" data-secondary="true"/>
<path d="M459.32,260.64c0-1.88,1.08-3.14,2.68-3.14s2.66,1.25,2.66,3.14-1.07,3.13-2.66,3.13S459.32,262.51,459.32,260.64Zm4.29,0c0-1.38-.61-2.2-1.61-2.2s-1.61.83-1.61,2.2.62,2.19,1.61,2.19S463.61,262,463.61,260.64Zm5.31-3h1.27l-7.85,11.49h-1.26Zm-2.31,8.45c0-1.87,1.07-3.13,2.66-3.13s2.68,1.26,2.68,3.13-1.09,3.14-2.68,3.14S466.61,267.92,466.61,266.05Zm4.27,0c0-1.36-.63-2.2-1.61-2.2s-1.61.82-1.61,2.2.61,2.2,1.61,2.2S470.88,267.41,470.88,266.05Z" fill="#2f2e41" data-secondary="true"/>
<path d="M311.78,158.7H116.13a4.93,4.93,0,1,1,0-9.85H311.78a4.93,4.93,0,1,1,0,9.85Z" fill="#2f2e41" data-secondary="true"/>
<path d="M448,155.2c0,2.22-1.79,3.63-4.07,3.63-3.08,0-4.83-2.07-4.83-5.73,0-3.92,2.22-6,5.44-6a5.55,5.55,0,0,1,2.86.67l-.63,1.28a4,4,0,0,0-2.2-.54c-2.33,0-3.82,1.46-3.82,4.33,0,.13,0,.27,0,.41a3.84,3.84,0,0,1,3.3-1.51C446.37,151.72,448,153.09,448,155.2Zm-1.59.07c0-1.35-1-2.22-2.63-2.22a2.38,2.38,0,0,0-2.64,2.24c0,1.18.95,2.21,2.73,2.21A2.27,2.27,0,0,0,446.43,155.27Z" fill="#2f2e41" data-secondary="true"/>
<path d="M449.25,153c0-3.74,2-5.87,4.7-5.87s4.68,2.13,4.68,5.87-2,5.88-4.68,5.88S449.25,156.7,449.25,153Zm7.74,0c0-2.93-1.25-4.41-3-4.41S450.9,150,450.9,153s1.24,4.42,3.05,4.42S457,155.89,457,153Z" fill="#2f2e41" data-secondary="true"/>
<path d="M460,150.25c0-1.88,1.08-3.14,2.67-3.14s2.66,1.25,2.66,3.14-1.06,3.13-2.66,3.13S460,152.12,460,150.25Zm4.28,0c0-1.38-.61-2.2-1.61-2.2s-1.61.83-1.61,2.2.63,2.2,1.61,2.2S464.31,151.63,464.31,150.25Zm5.32-3h1.26l-7.84,11.49h-1.27Zm-2.31,8.45c0-1.87,1.06-3.13,2.65-3.13s2.68,1.26,2.68,3.13-1.08,3.14-2.68,3.14S467.32,157.54,467.32,155.66Zm4.26,0c0-1.36-.62-2.2-1.61-2.2s-1.6.82-1.6,2.2.6,2.2,1.6,2.2S471.58,157,471.58,155.66Z" fill="#2f2e41" data-secondary="true"/>
<path d="M525.87,158.68s-14.34-7.48-6.48-16.25,15.26-10.77,20-8.27,16.25,18,16.25,18l13.92,7.88-16.92,12s-11.89-4.46-14-5.44Z" fill="#f9b499"/>
<path d="M718,51.12l2.21,51.77a20.51,20.51,0,0,1-21.56,19.4h0A20.5,20.5,0,0,1,679,100.42c.43-5.68.81-10.26.81-10.26l38.2-39" fill="#f9b499"/>
<path d="M785.32,591.1l.93,33.31s39.83-11.23,34.93,16.37l-64.51,4.12-3.57-51.83Z" fill="#1ea70c" data-primary="true"/>
<path d="M648.8,589.65l-3.89,42.79-12.83,32.95a4.41,4.41,0,0,0,2.79,5.8h0a4.35,4.35,0,0,0,4-.69c7.23-5.5,33.71-25.89,33.82-29,.12-3.64,7.09-44.86,7.09-44.86Z" fill="#1ea70c" data-primary="true"/>
<polygon points="639.06 283.92 636.51 617.61 683.44 620.61 693.32 341.87 749.56 619.03 792.21 614.54 746.85 283.87 639.06 283.92" fill="#2f2e41" data-secondary="true"/>
<path d="M649.18,286.5c18.71,8.07,40.59,10.48,65.29,7.86l18.09-184.23-12.83-9.85-29.55,22-10.13-21.17-23.72,34.09Z" fill="#f2f2f2"/>
<path d="M680.24,295.37s-.06-.14-.11-.43-.12-.78-.2-1.31c-.17-1.22-.41-2.9-.7-5s-.32-4.88-.52-8-.15-6.68-.24-10.61c-.11-15.74.94-37.44,2.69-61.36s3.93-45.55,5.67-61.17c.87-7.81,1.66-14.12,2.26-18.48.29-2.18.56-3.86.75-5,.09-.52.17-1,.23-1.29a1.3,1.3,0,0,1,.11-.44,1.91,1.91,0,0,1,0,.45c0,.35-.08.78-.13,1.31l-.57,5c-.47,4.45-1.14,10.75-2,18.5-1.57,15.63-3.63,37.25-5.38,61.17s-2.91,45.58-3,61.29c.05,3.92,0,7.48.1,10.59s.26,5.77.36,8,.39,3.8.52,5c0,.53.08,1,.11,1.31A2.18,2.18,0,0,1,680.24,295.37Z" fill="#1ea70c" data-primary="true"/>
<path d="M705.11,322.51s-13.77-144-5.23-160.1C706.5,150,716.73,123.94,721,112.83a13.35,13.35,0,0,0-.26-10.27l-1-2.28,12.83,9.85,26.33,14.15L743,246.29l18,61.9Z" fill="#1ea70c" data-primary="true"/>
<path d="M637.05,131.24l4.56,115-9.23,64.4,23.06,8.52,10.09-177.94a47.77,47.77,0,0,1,4.35-19.14l9-19.72-30.61,10.42Z" fill="#1ea70c" data-primary="true"/>
<path d="M758.89,124.28s14.45,12.51,17.7,29.3c2.37,12.25,9.34,55.24,11.28,77.32a26.06,26.06,0,0,1-22,28.1l-.62.09c-21,2.86-56.11-1.09-56.11-1.09l6.13-26.76s31.1-4.49,36.69-8.24l-7.42-49.63S750.58,125.71,758.89,124.28Z" fill="#1ea70c" data-primary="true"/>
<path d="M562.49,148.75,613.42,181s18.34-53.89,30.13-66.56l14.18-4.83L644.8,213a21,21,0,0,1-9.36,14.22h0a21,21,0,0,1-24.62-1.35l-62.31-50.53Z" fill="#1ea70c" data-primary="true"/>
<g opacity="0.2">
<path d="M672.62,104.55a5.18,5.18,0,0,1-.61.89l-1.82,2.49c-1.55,2.19-3.77,5.39-6.16,9.57A58.38,58.38,0,0,0,657.5,133c-.57,3.07-.93,6.5-1.45,10-1.52,3.66,2.09,6.05,5,8l.73.49-.82.35a15.19,15.19,0,0,0-3,1.91c-1.31,1-2.57,2.11-3.71,3.15l.15-.38c.57,7.28,1.82,14.15,2.65,20.38s1.65,11.77,2.32,16.48,1.11,8.31,1.47,11c.15,1.22.26,2.21.36,3a4.62,4.62,0,0,1,.06,1,5,5,0,0,1-.24-1c-.14-.77-.31-1.76-.53-3-.43-2.7-1-6.41-1.76-11s-1.58-10.25-2.53-16.44-2.16-13-2.75-20.44l0-.23.17-.15c1.17-1.08,2.43-2.17,3.78-3.22a15.92,15.92,0,0,1,3.22-2l-.08.85a20,20,0,0,1-4.39-3.58,5.25,5.25,0,0,1-1.33-2.62,3.57,3.57,0,0,1,0-.8l.1-.65.19-1.31c.53-3.48.9-6.79,1.52-10a44.17,44.17,0,0,1,3.07-8.65,75.34,75.34,0,0,1,3.73-7,91.25,91.25,0,0,1,6.44-9.45c.83-1.06,1.49-1.87,2-2.39A5.23,5.23,0,0,1,672.62,104.55Z"/>
</g>
<g opacity="0.2">
<path d="M729.08,107.93a2.42,2.42,0,0,1,.25.76,18.7,18.7,0,0,1,.45,2.27,32.73,32.73,0,0,1,0,8.51A81.2,81.2,0,0,1,727,131.76a100.43,100.43,0,0,1-5.23,14.5c-2,4.51-4.13,8.7-6.08,12.55l-.1.2-.21,0-4.41.89.23-.69,2.85,3.39.19.21-.15.24-6.4,10.27-1.82,2.82a4.82,4.82,0,0,1-.71.95,4.17,4.17,0,0,1,.51-1.07l1.64-2.93,6.12-10.44,0,.45-2.9-3.34-.47-.54.7-.15,4.41-.93-.31.23c1.92-3.87,4-8.06,6-12.53a105.61,105.61,0,0,0,5.25-14.37,87.44,87.44,0,0,0,2.93-12.13,37.06,37.06,0,0,0,.32-8.37C729.24,109,729,108,729.08,107.93Z"/>
</g>
<path d="M678.92,102.41c0-.67,0-1.4.07-2.16s.07-1.69.18-2.4l8.37,11.77,2.64,12.63L697,109.62l23.56-13.69-.21,12-4.47,11.53-8.7,6.72-10,4.37-11.85-2.22-7.16-4.05-1.59-8.37Z" fill="#f5f5f5"/>
<path d="M687,109.45a39.07,39.07,0,0,1-1.21,4.26,34.64,34.64,0,0,0-1.38,10.55l.09,1.8-1-1.51-.58-.93c-2.34-4-3.43-8-4.61-10.64s-2.09-4.26-2-4.35,1.28,1.38,2.58,4.07,2.56,6.61,4.81,10.43l.55.89-.87.29a30,30,0,0,1,1.71-10.79A14.18,14.18,0,0,1,687,109.45Z" fill="#1ea70c" data-primary="true"/>
<path d="M720.3,103.77s.05.17.06.48a5.61,5.61,0,0,1-.14,1.38,10.78,10.78,0,0,1-2.48,4.43,29.21,29.21,0,0,1-5.72,4.83,77.13,77.13,0,0,0-7.27,5.35,72.7,72.7,0,0,1-6.59,4.85l-.86.53.18-1a27.25,27.25,0,0,0,.2-6c-.1-1.83-.25-3.44-.38-4.77a29.34,29.34,0,0,1-.35-4.25,20.39,20.39,0,0,1,.89,4.18c.21,1.33.44,2.94.59,4.79a26,26,0,0,1-.07,6.21l-.68-.47a77.52,77.52,0,0,0,6.47-4.84,68.14,68.14,0,0,1,7.39-5.33,31.45,31.45,0,0,0,5.7-4.56,11.33,11.33,0,0,0,2.62-4.07C720.2,104.43,720.2,103.77,720.3,103.77Z" fill="#1ea70c" data-primary="true"/>
<polygon points="754.4 188.65 738.56 227.1 715.22 231.24 708.96 259.34 724.38 260.23 724.26 261.26 663.77 262.99 689.37 188.65 754.4 188.65" fill="#2f2e41" data-secondary="true"/>
<polygon points="680.84 175.91 689.37 188.65 663.77 262.99 655.44 248.73 680.84 175.91" fill="#2f2e41" data-secondary="true"/>
<polygon points="754.4 188.65 745.06 179.58 680.84 175.91 689.37 188.65 754.4 188.65" fill="#ececec"/>
<g opacity="0.2">
<path d="M689.37,188.65c.25.09-5.28,16.8-12.35,37.32s-13,37.1-13.25,37,5.28-16.79,12.35-37.32S689.12,188.56,689.37,188.65Z"/>
</g>
<path d="M676,252.72s-16.17-.58-12.84-11.88,9.15-16.28,14.54-16.08,22.43,9.29,22.43,9.29l14.19.92-4.24,19.45s-16.77,0-19.12,0Z" fill="#f9b499"/>
<circle cx="66.35" cy="68.48" r="5.51" fill="#fff"/>
<circle cx="83.76" cy="68.48" r="5.51" fill="#fff"/>
<circle cx="101.76" cy="68.48" r="5.51" fill="#fff"/>
<path d="M679.7,91.23l-.38,4.7s14.42,9.12,28.6-18Z" fill="#f4a48e"/>
<path d="M698.9,15s18.88,5.21,19.26,28.38S707.51,84,691.32,91.46c-8.5,3.93-15.27-1.62-19.78-7.78a41,41,0,0,1-7.63-20.85,86.62,86.62,0,0,1,1.86-27.26C670.36,16.57,689.66,11.27,698.9,15Z" fill="#f9b499"/>
<path d="M713.48,53.44c.26-.11,10.61-3.14,10.28,7.42s-10.87,8-10.88,7.74S713.48,53.44,713.48,53.44Z" fill="#f9b499"/>
<path d="M722.11,47.44a18,18,0,0,1-.27,5.07,5.52,5.52,0,0,1-2.69,3.86c-2.66,1.32-6-.71-7.17-3.43s-.86-5.82-.59-8.77a42.86,42.86,0,0,0-.18-12.08,17.37,17.37,0,0,0-5.8-10.37c-3.17-2.51-7.75-3.42-11.38-1.64-2.24,1.1-3.92,3.07-6,4.43a9.26,9.26,0,0,1-6.39,1.61A6,6,0,0,1,676.74,22c-.64-2.36.6-4.93,2.49-6.48a15,15,0,0,1,6.75-2.7,36.19,36.19,0,0,1,20,1.56c6.31,2.51,11.89,7.28,14.55,13.53,3.07,7.23,2.67,11.65,1.78,19.49" fill="#2f2e41" data-secondary="true"/>
</svg>