 <!DOCTYPE svg PUBLIC "-//W3C//DTD SVG 1.1//EN" "http://www.w3.org/Graphics/SVG/1.1/DTD/svg11.dtd">
<svg id="b88a455f-310f-4785-aa73-c4e462be32ac" data-name="Layer 1" xmlns="http://www.w3.org/2000/svg" xmlns:xlink="http://www.w3.org/1999/xlink" width="865.76" height="682.89" viewBox="0 0 865.76 682.89">
<defs>
<clipPath id="fa6ff33d-1bce-420a-87d5-936c79d46c35">
<rect id="a075a57a-1afd-4063-8f11-aa0a5af1ee83" data-name="SVGID" x="221.64" y="256.6" width="35.34" height="30.1" fill="none"/>
</clipPath>
<style xmlns="http://www.w3.org/1999/xhtml">*, ::after, ::before { box-sizing: border-box; }
img, svg { vertical-align: middle; }
</style>
<style xmlns="http://www.w3.org/1999/xhtml">*, body, html { -webkit-font-smoothing: antialiased; }
img, svg { max-width: 100%; }
</style>
</defs>
<path d="M150.45,420.17S71.2,345.38,114.74,246.08a170.67,170.67,0,0,1,56-69C225.23,137.27,363.12,58.54,570.55,89A154.67,154.67,0,0,1,633,112.41c30.45,20,62.72,56.66,49,119.52-4.85,22.22-3.76,45.39,4.24,66.69,7.92,21.09,22.93,46.94,50.88,74.88,0,0,59.54,57.52,1.62,107.3a105.72,105.72,0,0,1-42.79,22C623.75,521.32,331.7,582.69,150.45,420.17Z" fill="#1ea70c" data-primary="true"/>
<path d="M150.45,420.17S71.2,345.38,114.74,246.08a170.67,170.67,0,0,1,56-69C225.23,137.27,363.12,58.54,570.55,89A154.67,154.67,0,0,1,633,112.41c30.45,20,62.72,56.66,49,119.52-4.85,22.22-3.76,45.39,4.24,66.69,7.92,21.09,22.93,46.94,50.88,74.88,0,0,59.54,57.52,1.62,107.3a105.72,105.72,0,0,1-42.79,22C623.75,521.32,331.7,582.69,150.45,420.17Z" fill="#fff" opacity="0.7"/>
<ellipse cx="449.27" cy="582.46" rx="62.37" ry="251.69" transform="translate(-142.57 1019.28) rotate(-88.79)" fill="#1ea70c" data-primary="true"/>
<ellipse cx="449.27" cy="582.46" rx="62.37" ry="251.69" transform="translate(-142.57 1019.28) rotate(-88.79)" fill="#fff" opacity="0.7"/>
<polygon points="180.33 238.11 467.32 238.11 467.32 111.83 196.91 111.83 180.33 238.11" fill="#1ea70c" data-primary="true"/>
<polygon points="180.33 238.11 467.32 238.11 467.32 111.83 196.91 111.83 180.33 238.11" fill="#fff" opacity="0.5"/>
<rect x="210.94" y="123.31" width="235.97" height="90.56" fill="#fff" opacity="0.5"/>
<rect x="210.94" y="123.31" width="235.97" height="6.38" fill="#fff" opacity="0.5"/>
<rect x="226.24" y="133.51" width="40.82" height="5.1" fill="#1ea70c" opacity="0.2" data-primary="true"/>
<rect x="226.24" y="141.17" width="40.82" height="5.1" fill="#1ea70c" opacity="0.2" data-primary="true"/>
<rect x="226.24" y="148.82" width="40.82" height="5.1" fill="#1ea70c" opacity="0.2" data-primary="true"/>
<rect x="226.24" y="156.47" width="40.82" height="5.1" fill="#1ea70c" opacity="0.2" data-primary="true"/>
<rect x="270.89" y="133.51" width="156.25" height="5.1" opacity="0.2"/>
<rect x="270.89" y="141.17" width="156.25" height="5.1" opacity="0.2"/>
<rect x="270.89" y="148.82" width="156.25" height="5.1" opacity="0.2"/>
<rect x="270.89" y="156.47" width="156.25" height="5.1" opacity="0.2"/>
<rect x="226.24" y="183.26" width="40.82" height="5.1" fill="#1ea70c" opacity="0.2" data-primary="true"/>
<rect x="226.24" y="190.91" width="40.82" height="5.1" fill="#1ea70c" opacity="0.2" data-primary="true"/>
<rect x="226.24" y="198.56" width="40.82" height="5.1" fill="#1ea70c" opacity="0.2" data-primary="true"/>
<rect x="226.24" y="206.22" width="40.82" height="5.1" fill="#1ea70c" opacity="0.2" data-primary="true"/>
<rect x="270.89" y="183.26" width="156.25" height="5.1" opacity="0.2"/>
<rect x="270.89" y="190.91" width="156.25" height="5.1" opacity="0.2"/>
<rect x="270.89" y="198.56" width="156.25" height="5.1" opacity="0.2"/>
<rect x="270.89" y="206.22" width="156.25" height="5.1" opacity="0.2"/>
<circle cx="238.36" cy="172.42" r="5.74" opacity="0.2"/>
<circle cx="254.94" cy="172.42" r="5.74" opacity="0.2"/>
<path d="M471.14,44.23s-27.07,19.07-25,67.57l-249.22,0s-3.83-2.55-17.86,0c0,0,11.48-53.57,37-67.6Z" fill="#1ea70c" data-primary="true"/>
<path d="M471.14,44.23s-27.07,19.07-25,67.57l-249.22,0s-3.83-2.55-17.86,0c0,0,11.48-53.57,37-67.6Z" fill="#fff" opacity="0.4"/>
<rect x="216.04" y="37.85" width="271.68" height="6.38" fill="#1ea70c" data-primary="true"/>
<path d="M179.05,111.83s5.19-18.66,9-27.83c0,0,188.72,9,263.35-10.28a117.6,117.6,0,0,0-5.24,38.08l-249.22,0S191.81,109.28,179.05,111.83Z" fill="#fff" opacity="0.4"/>
<path d="M179.05,111.83s35.71-7.65,40.82,20.41l1.2,78.29a7.74,7.74,0,0,1-3.95,6.88l-36.79,20.7Z" fill="#1ea70c" data-primary="true"/>
<path d="M179.05,111.83s35.71-7.65,40.82,20.41l1.2,78.29a7.74,7.74,0,0,1-3.95,6.88l-36.79,20.7Z" fill="#fff" opacity="0.4"/>
<rect x="221.64" y="256.6" width="35.34" height="30.1" fill="#1ea70c" data-primary="true"/>
<g opacity="0.4">
<g clip-path="url(#fa6ff33d-1bce-420a-87d5-936c79d46c35)">
<rect x="221.64" y="256.6" width="35.34" height="30.1" opacity="0.5" style="isolation:isolate"/>
</g>
</g>
<rect x="183.25" y="256.6" width="35.34" height="30.1" fill="#1ea70c" data-primary="true"/>
<rect x="260.24" y="256.6" width="35.34" height="30.1" fill="#1ea70c" data-primary="true"/>
<rect x="260.24" y="256.6" width="35.34" height="30.1" opacity="0.2" style="isolation:isolate"/>
<rect x="298.85" y="256.6" width="35.34" height="30.1" fill="#1ea70c" data-primary="true"/>
<rect x="337.23" y="256.6" width="35.34" height="30.1" fill="#1ea70c" data-primary="true"/>
<rect x="337.23" y="256.6" width="35.34" height="30.1" fill="#fff" opacity="0.3" style="isolation:isolate"/>
<rect x="376.19" y="256.6" width="35.34" height="30.1" fill="#1ea70c" data-primary="true"/>
<rect x="376.19" y="256.6" width="35.34" height="30.1" fill="#fff" opacity="0.6" style="isolation:isolate"/>
<rect x="414.53" y="256.6" width="35.34" height="30.1" fill="#fff"/>
<rect x="183.25" y="256.6" width="35.34" height="30.1" opacity="0.5" style="isolation:isolate"/>
<g id="e2da26fe-4ab6-4e0f-acca-bed25e9b7fc3" data-name="freepik--Cursor--inject-2">
<path d="M237.41,324V309a5.57,5.57,0,0,0-10.36-2.86v-1.24a5.58,5.58,0,0,0-10.37-2.85v-3.18a5.57,5.57,0,0,0-10.12-3.22V285.2a5.58,5.58,0,0,0-11.15,0v34.44l-3.92-5.29a5.58,5.58,0,1,0-8.92,6.69c6.55,8.73,13.26,17.38,19.57,26.25,4.58,6.43,13.42,8,20.8,6.07C235,350.2,239.11,335.31,237.41,324Z" fill="#fff"/>
<path d="M216.94,355.28c-5.9,0-12.05-2.09-15.77-7.32-4.5-6.32-9.31-12.64-14-18.76-1.88-2.49-3.77-5-5.64-7.46a6.74,6.74,0,1,1,10.78-8.09l1.85,2.46V285.16a6.75,6.75,0,0,1,13.48,0v7.9a6.74,6.74,0,0,1,10.12,5.82v.35a6.73,6.73,0,0,1,9.3,2,6.52,6.52,0,0,1,.9,2.16A6.73,6.73,0,0,1,238.53,309v14.84c1.82,12.45-2.93,27.38-15.37,30.63A24.62,24.62,0,0,1,216.94,355.28Zm-29.94-42a4.4,4.4,0,0,0-3.49,7.06l5.63,7.46c4.65,6.13,9.43,12.45,14,18.82s13,7.32,19.55,5.61c11.17-2.9,15.35-16.65,13.64-28.11V309a4.42,4.42,0,0,0-4.42-4.42,4.36,4.36,0,0,0-3.78,2.15l-2.21,3.7V305a4.41,4.41,0,0,0-4.42-4.4,4.36,4.36,0,0,0-3.78,2.15l-2.16,3.6V299a4.41,4.41,0,0,0-8-2.55l-2.06,2.91V285.16a4.42,4.42,0,0,0-8.83,0v37.93l-6.08-8a4.38,4.38,0,0,0-2.91-1.72A4.52,4.52,0,0,0,187,313.28Z" fill="#2f2e41" data-secondary="true"/>
<path d="M206.61,312.59a1.16,1.16,0,0,1-1.16-1.16V295.67a1.16,1.16,0,1,1,2.32,0v15.76A1.16,1.16,0,0,1,206.61,312.59Z" fill="#2f2e41" data-secondary="true"/>
<path d="M216.68,312.59a1.16,1.16,0,0,1-1.16-1.16v-10a1.17,1.17,0,0,1,2.33,0v10A1.16,1.16,0,0,1,216.68,312.59Z" fill="#2f2e41" data-secondary="true"/>
<path d="M227.05,312.83a1.17,1.17,0,0,1-1.17-1.17v-6a1.17,1.17,0,1,1,2.33,0v6A1.16,1.16,0,0,1,227.05,312.83Z" fill="#2f2e41" data-secondary="true"/>
<path d="M200.92,273.37a.58.58,0,0,1-.58-.58V266a.58.58,0,0,1,.58-.58.59.59,0,0,1,.59.58v6.76A.59.59,0,0,1,200.92,273.37Z" fill="#2f2e41" data-secondary="true"/>
<path d="M208.59,278.34a.59.59,0,0,1-.59-.58.58.58,0,0,1,.25-.48L211.4,275a.59.59,0,0,1,.81.14h0a.61.61,0,0,1-.13.82l-3.15,2.24A.57.57,0,0,1,208.59,278.34Z" fill="#2f2e41" data-secondary="true"/>
<path d="M216.25,286H209.5a.58.58,0,1,1,0-1.16h6.75a.58.58,0,1,1,0,1.16Z" fill="#2f2e41" data-secondary="true"/>
<path d="M192.42,278.34a.55.55,0,0,1-.35-.12L188.92,276a.6.6,0,0,1-.14-.82.59.59,0,0,1,.81-.14h0l3.17,2.26a.6.6,0,0,1,.13.81A.56.56,0,0,1,192.42,278.34Z" fill="#2f2e41" data-secondary="true"/>
<path d="M191.49,286h-6.76a.58.58,0,0,1,0-1.16h6.76a.58.58,0,1,1,0,1.16Z" fill="#2f2e41" data-secondary="true"/>
</g>
<rect x="623.81" y="199.14" width="10.58" height="359.65" fill="#bcbec0"/>
<path d="M637.76,525.53,637.23,495C635.67,450.77,619,437,618.87,436.88l.63-.79c.7.56,17.15,14.11,18.73,58.84l.53,30.58Z" fill="#2f2e41" data-secondary="true"/>
<path d="M653,524.6l-1-.11c2.25-19.61,2.79-53.09,2.91-62.89,0-2.29,0-4.41-.2-6.46-2.86-37.29-10.68-61.07-10.76-61.31l1-.31c.08.24,7.93,24.12,10.81,61.54.16,2.08.22,4.23.2,6.55C655.74,471.42,655.2,505,653,524.6Z" fill="#2f2e41" data-secondary="true"/>
<path d="M658.8,525.05c-1-25.35,8.42-35.76,8.82-36.19l.73.68c-.09.1-9.51,10.58-8.55,35.47Z" fill="#2f2e41" data-secondary="true"/>
<path d="M666,533.38l-1,0,1.15-31.2c1.15-59.9,13-80.91,13.17-81.11l.86.5c-.12.2-11.89,21.06-13,80.64Z" fill="#2f2e41" data-secondary="true"/>
<path d="M577.38,591.9l-16.7,5.25-121.12.53-22.5-6.2-6.71-262.37c0-11.25,4.85-20.27,10.72-19.94l159.38,4.77Z" fill="#a7a9ac"/>
<path d="M430.26,423.05l-4,40.67-71.35,80.43-23.26,26.23-42.45,4.8-18.08-78.61-8.82-38.32-13.7-11.74c3.92-21,23-20.55,23-20.55,4.53-1.63,24.62-4.6,48.13-7.69l11.06,22.13s14.44,8.93,27.4-11.25c0,0-1.83-7.29-4-15.24,29.27-3.58,55-6.48,55-6.48C425.9,405.62,430.26,423.05,430.26,423.05Z" fill="#d1d3d4"/>
<path d="M331.65,570.38l1-83.23a6,6,0,0,1,2.64-5,18.89,18.89,0,0,1,10.6-3.17l85.67,17.45,0,98.89Z" fill="#a7a9ac"/>
<path d="M509,326.46s21.64,7.89,27,27.39,4.39,64.35-6.58,82.15c0,0-53.14,8.29-71.43,16.33a62.87,62.87,0,0,0-22-7.28,22.3,22.3,0,0,1-12.9-5.87,13.25,13.25,0,0,1-4.51-8.59,2.29,2.29,0,0,1,2.57-2.37h0a8.54,8.54,0,0,0,7.54-3.07c3.67-4.45,9.38-13.3,12.22-27.67l3.17-82.39s10.46-12.61,26.3-4.57c0,0,7.23,6,10.1,7.33l12.35,7.23Z" fill="#1ea70c" data-primary="true"/>
<path d="M521.56,296.85a37.49,37.49,0,0,1-12.82,15.42c-6.74,4.51-14.43,5.82-21,2.79a16.7,16.7,0,0,1-3.71-2.33c-8.5-6.91-10.54-21.62-4.23-35.21,7.13-15.4,22.25-23.56,33.77-18.22S528.69,281.45,521.56,296.85Z" fill="#f9b499"/>
<path d="M509,326.46c-1.18,10.09-19.24,16-19.24,16-20.88,5.87-23.69-1.17-23.69-1.17-1.29-5.33,6.5-16,9.93-20.36a7.57,7.57,0,0,1,3.18-2.28c3-1.23,4.64-5.15,4.9-5.87a16.7,16.7,0,0,0,3.71,2.33c6.53,3,14.22,1.72,21-2.79-1.68,3.51-4,8.09-4,8.09C501.48,326.7,509,326.46,509,326.46Z" fill="#f9b499"/>
<path d="M484.07,312.73a12,12,0,0,1-2.72,4.26s13.82,7.34,24.46-3.05C505.81,313.94,493.4,320.83,484.07,312.73Z" fill="#f7a48b"/>
<path d="M480.49,317.85s-18.1-8.56-14.55-21.28c0,0,2.25-12.17,11-20.8a3.66,3.66,0,0,0,1.07-3.1c-.65-4.64-.93-17,13-22.6,0,0,16.38-8.48,23.88.6,0,0,28.41,1.38,29.2,30,0,0,3.59,56.69-22.46,53.14a45.4,45.4,0,0,0-6.89-4.58,48.81,48.81,0,0,0-5.81-2.76,4.25,4.25,0,0,1-4.84-2.19,3.71,3.71,0,0,1,.34-3.16l4.25-8.84s10.78-7,14.81-22.77c0,0-2.7-1.33-5.71,2.18,0,0-2.21-.57-1.23-8,0,0-10.19,7.74-15.08-11.83,0,0-2,4.89-1.14,8,0,0-15.39-3.05-11.8-14.46,0,0-15,12.75-11.89,33.95,0,0,1.2,8.51,7.37,13.39A12.44,12.44,0,0,1,480.49,317.85Z" fill="#2f2e41" data-secondary="true"/>
<path d="M516.61,283.69s3.51-7.26,4-12.15c0,0-1.27,9.84,3.38,16.6a15.86,15.86,0,0,1,2.74,6.37c.63,3.83.57,9.86-2.75,18-.19.46-.41.91-.64,1.35-1.53,2.86-7.51,13.51-12,13.65l-2.32-1s-7.35.49-4.22-6.1l4-8.09s5.35-3.06,11.46-12.85a46.35,46.35,0,0,0,3.83-9.7s-2.93-2-6.19,2C517.84,291.68,515.8,291.59,516.61,283.69Z" opacity="0.2"/>
<path d="M480.65,275.72s-4.56-10.29,19-23.66c0,0-11.61,6.91-14.11,16.46A58.58,58.58,0,0,0,480.65,275.72Z" opacity="0.2"/>
<path d="M501.53,271.86s2-6.57,11.16-7.31" fill="none" stroke="#000" stroke-miterlimit="10" opacity="0.2"/>
<path d="M480.49,317.85a42.85,42.85,0,0,1-6.9-4.51s-.29-8.23,2.94-14.84a20.31,20.31,0,0,0,7.54,14.23A12.86,12.86,0,0,1,480.49,317.85Z" opacity="0.2"/>
<path d="M435,415.13s37.83,4.29,75.62-33.49c0,0-35.1,15.6-38,7.31-4.67,1.71-9.8,3.37-15.36,4.88-5.79,1.56-11.26,2.75-16.33,3.65A60.28,60.28,0,0,1,435,415.13Z" opacity="0.2"/>
<path d="M436.48,307.62c-2.78,10.77-12.7,50.5-13.13,70.18-16.51,12.16-24.82,11-28.85,8.06A9.73,9.73,0,0,1,391,381c-4.48-9.82,22.5-56.88,29.45-68.72a10.17,10.17,0,0,0,1.37-5.9L420.32,287c-2.7-18.84,9.54-19.33,9.54-19.33l.05,2.06v.74l0,1.11-.06,0a7.85,7.85,0,0,0-4.86,7.46c.1,4.74,1.6,14,10.3,23.78A5.2,5.2,0,0,1,436.48,307.62Z" fill="#f9b499"/>
<path d="M448.48,324.2s3.36,19,8.24,26.78a5.87,5.87,0,0,0,6.33,2.58l30.59-7.3L471.2,358.7s-10.36,3.95-16.39,4.16C454.81,362.86,450.58,349.26,448.48,324.2Z" opacity="0.2"/>
<path d="M418.59,430.59l-34.73-31.33-14-14.4c-.8-.81-1.56-1.66-2.29-2.54-2.62-3.19-10.46-11.9-13.81-6.63,0,0,7.15,14.1-5.22,19.13,0,0,10.63,31.88,11.59,47,0,0,3.29,26.09,11,29.37,0,0,8.89-18,18.36-18.74,0,0,19.9-3.29,23.77,29.18,0,0,.19,10.24-1,14.88,0,0,11.21,1.93,19.33,0,0,0-1.34-38.61,26.38-44.14,0,0-10.43-6.13-22-7.28C436,445.05,420.94,443.45,418.59,430.59Z" fill="#2f2e41" data-secondary="true"/>
<path d="M353.72,375.69a2.42,2.42,0,0,1,1.78-1.34s9.54,15.54-6.24,23.12l-.76-2.65S360.62,391.08,353.72,375.69Z" opacity="0.2"/>
<path d="M358.19,429.15c-13,20.18-27.4,11.25-27.4,11.25l-11.06-22.13-4.1-8.2c-5.64-10.31-7.47-18.6-7.61-24.86-.24-10.8,7.46-20.37,18.17-21.78,15.31-2,27.53,12.26,27.53,12.26,6.78,15.27-5.21,19.13-5.21,19.13,1.25,2.92,3.63,11.32,5.71,19.09C356.36,421.86,358.19,429.15,358.19,429.15Z" fill="#f9b499"/>
<path d="M336.91,384.38s7.89,4.61,11.59,10.44c0,0,12-3.62,5.22-19.13,0,0,.92,14.44-4.58,14.93C349.14,390.62,343.14,384.14,336.91,384.38Z" fill="#f7a48b"/>
<path d="M330.79,440.4s17.72,3.86,26.21-16.34l1.19,5.09S347.38,448.72,330.79,440.4Z" fill="#f7a48b"/>
<path d="M600.11,584.4l-39.43,12.75-2.21-261a22,22,0,0,1,22-22.16h0a22,22,0,0,1,22,22.18Z" fill="#bcbec0"/>
<path d="M431.15,614.73l.63-119.81s-2-36.18,26.2-42.59c0,0,40.39-14.25,71.43-16.33,0,0,24.39-7.15,26.29,16.56,0,0,3.23,31.46,2.09,59.34l-3.36,88-74.91,29.39Z" fill="#d1d3d4"/>
<path d="M370.93,386a29.67,29.67,0,0,1-2.21,8.89,31.67,31.67,0,0,1-2,4.13,22,22,0,0,1-2.73,3.7c.66-1.39,1.32-2.74,1.94-4.11s1.22-2.75,1.77-4.15C368.81,391.65,369.83,388.83,370.93,386Z" opacity="0.2"/>
<path d="M415.88,428.15S408.6,445.31,391,443.42c0,0-13.53-.44-21.82-10.47,0,0-13.38-17.75-15.56-38.25a33.36,33.36,0,0,1-4.37,2.77s3.74,10.13,8.93,31.68c0,0,4.22,39.77,12.92,42,0,0,8.68-18.34,18.36-18.74,0,0-2.83-2.3,10.7-4.48l26.62-6s-6.9-3.64-8.2-11.37Z" opacity="0.2"/>
<path d="M350.57,400.66a110.11,110.11,0,0,1,9.31,26.76s4.36,28.07,38.69,18.91L425.33,441l1.46,1-26.62,6s-12.53,1.54-10.7,4.48c0,0-8.88-.21-18.36,18.74,0,0-5.4-.27-9.63-21.13,0,0-2.91-22.6-6.69-33.65Z" opacity="0.2"/>
<path d="M406.75,446.57a16.85,16.85,0,0,1,5.18,2.35,27.07,27.07,0,0,1,4.41,3.65,29.94,29.94,0,0,1,3.53,4.49c.54.78,1,1.64,1.42,2.46s.8,1.72,1.15,2.6c-1.09-1.55-2.16-3.08-3.3-4.55a53.86,53.86,0,0,0-3.62-4.21,42.36,42.36,0,0,0-4.1-3.71A30.17,30.17,0,0,0,406.75,446.57Z" opacity="0.2"/>
<path d="M424.17,467.73a16.45,16.45,0,0,1,1.71,4.81,32.22,32.22,0,0,1,.64,5.08,39.28,39.28,0,0,1-.11,5.09c-.07.85-.19,1.69-.3,2.53s-.3,1.67-.5,2.5c-.06-1.7-.08-3.38-.09-5.06s0-3.35-.14-5-.19-3.33-.37-5A35.2,35.2,0,0,0,424.17,467.73Z" opacity="0.2"/>
<path d="M389.47,452.41s16.13-4.54,26.64,19.21c0,0,4.89,11.23,20.73-1.73,0,0-5.88,10.83-5.24,26.58a60.4,60.4,0,0,1-19.33,0s4.42-25.28-6.67-36.94C405.6,459.53,398.67,451.47,389.47,452.41Z" opacity="0.2"/>
<path d="M436.48,307.62c-2.78,10.77-12.7,50.5-13.13,70.18-16.51,12.16-24.82,11-28.85,8.06,17.76,1,26.8-28.22,26.8-28.22,8-18.91,12.22-53,12.22-53l-6.77-10.87a25.63,25.63,0,0,1-3.5-8.82c-2.41-12.85,6.09-15.06,6.66-15.19h0l0,.75,0,1.13a7.85,7.85,0,0,0-4.86,7.46c.1,4.74,1.6,14,10.3,23.78A5.2,5.2,0,0,1,436.48,307.62Z" fill="#f7a48b"/>
<polygon points="447.46 283.16 430.1 283.16 430.1 252.07 447.46 259.68 447.46 283.16" fill="#2f2e41" data-secondary="true"/>
<polygon points="430.1 252.07 434.89 250.92 451.26 257.86 450.6 283.66 447.46 283.16 447.46 259.68 430.1 252.07" fill="#2f2e41" data-secondary="true"/>
<polygon points="430.1 252.07 434.89 250.92 451.26 257.86 450.6 283.66 447.46 283.16 447.46 259.68 430.1 252.07" opacity="0.2"/>
<path d="M483.67,381.93c-2.93,7.83-11.06,7-11.06,7-19.13,6.77-31.69,8.53-31.69,8.53C419.7,405,423.5,382.91,423.5,382.91a42.88,42.88,0,0,1-.15-5.11c.43-19.68,10.35-59.41,13.13-70.18a5.2,5.2,0,0,0-1.16-4.75c-8.7-9.81-10.2-19-10.29-23.77a7.82,7.82,0,0,1,4.85-7.47l.06,0c3.39-1.34,7.61-1.29,10.34-1.07a6,6,0,0,1,4.34,2.4l6,8,.3-9.73c-.24-3.88,2-3.93,3.15-3.69a.8.8,0,0,1,.63.87,12.85,12.85,0,0,0,2,7.66,9.94,9.94,0,0,1,1,10.52l-8.56,18a6.24,6.24,0,0,0-.58,2.21c-1.32,22.49,3.4,44.75,5.38,52.86a3.66,3.66,0,0,0,4.2,2.76,89.94,89.94,0,0,0,13-3.7C486.86,362.13,483.67,381.93,483.67,381.93Z" fill="#f9b499"/>
<path d="M426.82,287.92a1.43,1.43,0,0,1,1.06-.67,3.81,3.81,0,0,1,1.26,0,7.72,7.72,0,0,1,2.33.73,11.11,11.11,0,0,1,3.75,2.91A18.56,18.56,0,0,1,433,290c-.69-.33-1.37-.68-2-1a20.14,20.14,0,0,0-2-.9,5.55,5.55,0,0,0-1-.29A1.56,1.56,0,0,0,426.82,287.92Z" fill="#f7a48b"/>
<path d="M425.17,282a5.24,5.24,0,0,1,3.14-.63,10.86,10.86,0,0,1,3.15.72c.51.19,1,.44,1.46.66s.93.52,1.37.82a14,14,0,0,1,2.41,2.06c-1-.39-1.92-.85-2.85-1.28s-1.85-.85-2.8-1.19a18.27,18.27,0,0,0-2.86-.91A8.92,8.92,0,0,0,425.17,282Z" fill="#f7a48b"/>
<path d="M426,275.23a10.24,10.24,0,0,1,3.69-.93,14.4,14.4,0,0,1,3.82.18,15.3,15.3,0,0,1,3.64,1.16,12.91,12.91,0,0,1,3.19,2.06c-1.2-.42-2.33-.88-3.51-1.23a31.17,31.17,0,0,0-3.52-.87,27.14,27.14,0,0,0-3.61-.42A28.68,28.68,0,0,0,426,275.23Z" fill="#f7a48b"/>
<ellipse cx="520.31" cy="296.51" rx="7.72" ry="4.69" transform="translate(32.86 644.41) rotate(-65.19)" fill="#f9b499"/>
<path d="M479.52,629.27l-48.37-14.54.45-118.26c.13-24.38,10.61-35.05,10.61-35.05l13-.5A20.54,20.54,0,0,1,476.47,481Z" fill="#bcbec0"/>
<path d="M557.79,511.9l-3.36,88-74.91,29.39-3-148.25a20.54,20.54,0,0,0-21.29-20.1s6.14-5,18.11,4a43,43,0,0,1,13.18,16.63c4.95,10.91,17.19,32.35,37,32.35Z" opacity="0.2"/>
<path d="M289.21,575.18l-41.42-16,.27-107.93a22.09,22.09,0,0,1,22.26-22h0a22.08,22.08,0,0,1,21.92,22.63Z" fill="#bcbec0"/>
<path d="M431.33,503.26l.27-6.79L345.93,479s-12.33.33-13.24,8.13l-1,83.23,99.93,25-.5-6.24s-58.7-7.83-56.26-15.66C374.82,573.46,405.15,507.66,431.33,503.26Z" opacity="0.1"/>
<path d="M412.27,496.47s5.63-29.78-10.87-40.67c0,0-12.35-10.58-24,5.29a74.51,74.51,0,0,0-6.25,10.06L350,543.78s3.69,12.35,26.44,9.78C376.39,553.56,401.19,518.39,412.27,496.47Z" fill="#f9b499"/>
<path d="M349.94,543.79l.82-2.93s16,15.25,24.9,3.16c0,0,26.92-36.56,30.09-66.93,0,0,2.42-21-16.28-24.68,0,0,19.59-2.09,23.47,25.26a77.77,77.77,0,0,1-.67,18.8S392,533.15,376.39,553.56C376.39,553.56,356,557.37,349.94,543.79Z" fill="#f7a48b"/>
<path d="M357.72,590.26c1,16.42-9.08,18-12.37,18.12a7.34,7.34,0,0,1-1,0c-12.18,1.93-29.65,9.63-29.65,9.63,1.6-10.11-10.9-19.24-10.9-19.24l23.88-10.26c6.67-3.63,10.68-9.75,12.24-12.51a13.53,13.53,0,0,0,1.1-2.6l8.93-29.6c5.68,13,26.45,9.77,26.45,9.77-9.47,10.35-15.65,25.25-17.93,31.36a13,13,0,0,0-.74,5.31Z" fill="#1ea70c" data-primary="true"/>
<path d="M345.35,608.38a11.5,11.5,0,0,1-1.76-6.15c0-6.65,5.65-12.05,12.62-12.05a15,15,0,0,1,1.51.08C358.77,606.68,348.64,608.3,345.35,608.38Z" fill="#e6e7e8"/>
<path d="M364.21,495.87l-25.48,17.46a20.1,20.1,0,0,0-1.79-6.51,15.08,15.08,0,0,0-9.59-8.24c7.54-5.92,15.71-20,15.71-20,4.17-5.45,1.28-13,1.28-13L330.79,440.4a17.17,17.17,0,0,0,17.56-.86,31.76,31.76,0,0,0,9.84-10.39c1.34,7.32,3.29,20.87,3.29,20.87,4.33,20.85,9.63,21.13,9.63,21.13C383.14,484.75,364.21,495.87,364.21,495.87Z" fill="#1ea70c" data-primary="true"/>
<path d="M364.21,495.87l-25.48,17.46a20.1,20.1,0,0,0-1.79-6.51c20.56-15.19,25.35-29.71,25.35-29.71,4.65-11.38-13.94-37.5-13.94-37.5v-.07a31.76,31.76,0,0,0,9.84-10.39c1.34,7.32,3.29,20.87,3.29,20.87,4.33,20.85,9.63,21.13,9.63,21.13C383.14,484.75,364.21,495.87,364.21,495.87Z" opacity="0.2"/>
<path d="M327.35,498.58s-18.11,8.5-11.54,16c0,0,7.38,8,22.92-1.29C338.73,513.33,337.77,501.62,327.35,498.58Z" fill="#e6e7e8"/>
<polygon points="695.26 203.95 561.54 203.95 596.68 128.03 610.12 128.09 621.46 128.13 660.76 128.28 695.26 203.95" fill="#1ea70c" data-primary="true"/>
<path d="M717.52,394.32c-10.26,20.44-28.82,37.8-38.13,33.12s-7.93-26.65,2.33-47.09,30.73-30.38,40-25.71S727.79,373.87,717.52,394.32Z" fill="#1ea70c" data-primary="true"/>
<path d="M659,346.25c6.19,28.52,2.08,60.53-10.42,63.24s-28.33-20.3-34.52-48.82-4.9-53.32,7.6-56S652.79,317.73,659,346.25Z" fill="#1ea70c" data-primary="true"/>
<path d="M695.65,469.15c-8.2,16.34-23.14,30.16-30.72,26.35s-6.58-21.42,1.63-37.76,24.73-24.2,32.3-20.39S703.86,452.8,695.65,469.15Z" fill="#1ea70c" data-primary="true"/>
<path d="M594.6,432.48c-19.44-15.32-22.85-30.43-17-36.89s22.67-1,36.26,11.24,17.66,31.59,10.79,36.93C619.18,448,609,443.8,594.6,432.48Z" fill="#1ea70c" data-primary="true"/>
<path d="M648.79,524.81l-1,0c.72-15.72-4.24-22.1-4.29-22.16l.78-.63C644.49,502.23,649.53,508.66,648.79,524.81Z" fill="#2f2e41" data-secondary="true"/>
<path d="M664.19,495.19c2.8-4.88,5.7-9.68,8.62-14.48s5.92-9.55,8.88-14.32,6-9.48,9.1-14.18l4.63-7c1.58-2.32,3.12-4.67,4.73-7-1.39,2.44-2.84,4.84-4.26,7.27l-4.36,7.21c-2.92,4.8-5.92,9.54-8.88,14.32s-6,9.47-9.1,14.17S667.39,490.57,664.19,495.19Z" opacity="0.2"/>
<path d="M693.55,436.24a6.23,6.23,0,0,1,1.7,2.23,8.48,8.48,0,0,1,.76,2.74,8.73,8.73,0,0,1-.18,2.84,7.69,7.69,0,0,1-1.06,2.58c.05-.94.16-1.82.18-2.7a18.74,18.74,0,0,0-.07-2.6,16.09,16.09,0,0,0-.47-2.55A19,19,0,0,0,693.55,436.24Z" opacity="0.2"/>
<path d="M692.69,449.94a9.47,9.47,0,0,1,2.28-1.76,11.7,11.7,0,0,1,2.67-1.15,8.43,8.43,0,0,1,2.92-.36,5.09,5.09,0,0,1,2.77.94,10.11,10.11,0,0,0-2.74-.05,14.84,14.84,0,0,0-2.63.56C696.21,448.61,694.51,449.32,692.69,449.94Z" opacity="0.2"/>
<path d="M683.15,439.79a12.47,12.47,0,0,1,3.37,3.42,15.15,15.15,0,0,1,2.34,11.64,19.73,19.73,0,0,1-.7,2.3,33.61,33.61,0,0,0,.11-4.69,21.09,21.09,0,0,0-2.5-8.78A23.68,23.68,0,0,0,683.15,439.79Z" opacity="0.2"/>
<path d="M699.05,462.05a37.94,37.94,0,0,0-8.16-.21,18.64,18.64,0,0,0-3.9.87,16.84,16.84,0,0,0-3.6,1.9,9.15,9.15,0,0,1,3.25-2.72,12.9,12.9,0,0,1,4.12-1.18,16.85,16.85,0,0,1,4.26.13A14.21,14.21,0,0,1,699.05,462.05Z" opacity="0.2"/>
<path d="M669.82,451.89a16.86,16.86,0,0,1,4.32,4.39,22.16,22.16,0,0,1,2.81,5.53,23.09,23.09,0,0,1,1.2,6.08,22.77,22.77,0,0,1,0,3.09c-.09,1-.24,2-.4,3-.09-1-.06-2-.16-3s-.14-2-.34-3l-.23-1.48-.34-1.46a14.72,14.72,0,0,0-.38-1.45c-.15-.47-.26-1-.45-1.42a29.46,29.46,0,0,0-2.48-5.42A27.06,27.06,0,0,0,669.82,451.89Z" opacity="0.2"/>
<path d="M691.59,476.23a34,34,0,0,0-4.92-.27,24.67,24.67,0,0,0-4.79.55,18.18,18.18,0,0,0-4.53,1.58,23.1,23.1,0,0,0-4.11,2.67,13.14,13.14,0,0,1,3.67-3.45,14.18,14.18,0,0,1,4.72-1.91A17,17,0,0,1,691.59,476.23Z" opacity="0.2"/>
<path d="M661.75,470.24a25.06,25.06,0,0,1,6.11,8.58,15.49,15.49,0,0,1,1.26,5.2A9.52,9.52,0,0,1,668,489.2a12.92,12.92,0,0,0,.26-5.09c-.08-.41-.16-.83-.23-1.24l-.34-1.22c-.09-.41-.27-.81-.4-1.21a10,10,0,0,0-.47-1.18,35.77,35.77,0,0,0-2.3-4.59C663.63,473.18,662.73,471.69,661.75,470.24Z" opacity="0.2"/>
<path d="M683,487.24c-1.47,0-2.91.09-4.33.18a36.75,36.75,0,0,0-4.23.53,22,22,0,0,0-4.05,1.15,15.81,15.81,0,0,0-3.66,2.18,9.5,9.5,0,0,1,3.28-3,14.51,14.51,0,0,1,4.22-1.47A19.23,19.23,0,0,1,683,487.24Z" opacity="0.2"/>
<path d="M722.33,355c-3.6,6-7.3,12-11,18l-11.2,17.87-11.34,17.77-5.68,8.88q-2.86,4.43-5.62,8.91c3.28-6.22,6.93-12.23,10.56-18.25s7.4-12,11.12-17.92,7.57-11.85,11.42-17.73S718.33,360.74,722.33,355Z" opacity="0.2"/>
<path d="M702,358.21a13.4,13.4,0,0,1,3.56,3.93,19.11,19.11,0,0,1,2.1,4.92,21.23,21.23,0,0,1,.62,5.31A23.62,23.62,0,0,1,708,375c-.16.87-.33,1.73-.55,2.59,0-.89,0-1.76,0-2.63s0-1.73-.14-2.58q-.08-.65-.12-1.29c-.05-.42-.14-.84-.2-1.26a23.78,23.78,0,0,0-.52-2.51,26.67,26.67,0,0,0-1.77-4.78A21.6,21.6,0,0,0,702,358.21Z" opacity="0.2"/>
<path d="M686.13,372.89a24.36,24.36,0,0,1,4.66,4.69,28,28,0,0,1,3.38,5.74,28.83,28.83,0,0,1,1.14,3.15c.16.53.25,1.09.38,1.63l.18.82.09.83a20.41,20.41,0,0,1-.21,6.62,33,33,0,0,0-.67-6.47,29.11,29.11,0,0,0-2-6.12,37.15,37.15,0,0,0-3.06-5.69A45.47,45.47,0,0,0,686.13,372.89Z" opacity="0.2"/>
<path d="M675.85,395.39a17.62,17.62,0,0,1,4.15,4.07,20.73,20.73,0,0,1,2.84,5.13,22.31,22.31,0,0,1,.87,2.81,21.93,21.93,0,0,1,.42,2.91,19,19,0,0,1-.45,5.79,36.91,36.91,0,0,0-.44-5.69,25.17,25.17,0,0,0-1.47-5.41,28.15,28.15,0,0,0-2.5-5A32.57,32.57,0,0,0,675.85,395.39Z" opacity="0.2"/>
<path d="M681.56,419.85a12.65,12.65,0,0,1,4.48-3.48,19.73,19.73,0,0,1,5.47-1.69,23.66,23.66,0,0,1,5.7-.18c.95.07,1.88.25,2.81.39s1.84.45,2.74.72c-1,0-1.87-.12-2.8-.16s-1.86-.07-2.79-.06-1.84,0-2.75.11c-.46,0-.92.06-1.38.11l-1.35.19a26.83,26.83,0,0,0-5.3,1.38A18.6,18.6,0,0,0,681.56,419.85Z" opacity="0.2"/>
<path d="M712.87,402.4a31.44,31.44,0,0,0-5.84-.69,32.32,32.32,0,0,0-5.82.33,33.76,33.76,0,0,0-5.67,1.31,55.35,55.35,0,0,0-5.5,2.15c.81-.58,1.63-1.15,2.49-1.66a22.6,22.6,0,0,1,2.71-1.32,23.69,23.69,0,0,1,11.85-1.7A18.25,18.25,0,0,1,712.87,402.4Z" opacity="0.2"/>
<path d="M702.27,385.93a21.12,21.12,0,0,1,4.61-1.9,22.17,22.17,0,0,1,4.93-.88,15.31,15.31,0,0,1,5,.45,9.57,9.57,0,0,1,4.34,2.5,13.72,13.72,0,0,0-4.53-1.63,21.2,21.2,0,0,0-4.78-.19,37.53,37.53,0,0,0-4.8.62C705.48,385.2,703.88,385.53,702.27,385.93Z" opacity="0.2"/>
<path d="M713.36,368.81A13.75,13.75,0,0,1,716.5,367a18.35,18.35,0,0,1,3.49-1.09,15.51,15.51,0,0,1,3.66-.28,10.55,10.55,0,0,1,3.57.76c-1.22,0-2.39,0-3.55.13a33.54,33.54,0,0,0-3.46.51C717.92,367.45,715.68,368.11,713.36,368.81Z" opacity="0.2"/>
<path d="M714.83,353.48a8.12,8.12,0,0,1,1.49,1.72,12.14,12.14,0,0,1,1.08,2,10.29,10.29,0,0,1,.67,2.17,6.08,6.08,0,0,1,0,2.29l-1.74-4A31.6,31.6,0,0,1,714.83,353.48Z" opacity="0.2"/>
<path d="M621.63,304.64c2.51,8.67,4.89,17.37,7.24,26.08s4.62,17.44,6.92,26.17,4.47,17.48,6.62,26.24,4.3,17.53,6.14,26.36l-7-26.14-6.87-26.18L628,330.94C625.85,322.19,623.68,313.43,621.63,304.64Z" opacity="0.2"/>
<path d="M645.4,316.65a43.92,43.92,0,0,0-5.61,4.31,32.7,32.7,0,0,0-4.68,5.17,23.49,23.49,0,0,0-3.22,6.13l-.52,1.67-.34,1.72c-.06.28-.13.57-.18.86l-.06.88c0,.59-.09,1.18-.16,1.78A17.92,17.92,0,0,1,631,332a19.93,19.93,0,0,1,3.14-6.53,26.38,26.38,0,0,1,5-5.19A25.46,25.46,0,0,1,645.4,316.65Z" opacity="0.2"/>
<path d="M657.75,340.86a36.67,36.67,0,0,0-3.75,2.32,40.5,40.5,0,0,0-3.51,2.62,40,40,0,0,0-6,6.24,30.19,30.19,0,0,0-4.34,7.48c-.26.67-.56,1.34-.78,2l-.57,2.11a11,11,0,0,0-.47,2.14c-.12.72-.25,1.45-.39,2.18a25.76,25.76,0,0,1,1.39-8.77l.34-1.07.47-1c.32-.68.61-1.38,1-2l1.17-1.92c.38-.65.87-1.22,1.31-1.83a32,32,0,0,1,6.4-6.23A31.45,31.45,0,0,1,657.75,340.86Z" opacity="0.2"/>
<path d="M644.38,393.68a24.08,24.08,0,0,1,2-6.87,28.44,28.44,0,0,1,3.77-6.16,27.42,27.42,0,0,1,5.17-5,26.76,26.76,0,0,1,6.25-3.52,49.81,49.81,0,0,0-5.69,4.21,36.18,36.18,0,0,0-4.84,5.06,38.14,38.14,0,0,0-3.87,5.84A39.88,39.88,0,0,0,644.38,393.68Z" opacity="0.2"/>
<path d="M626.76,324.64c-2.42-1.6-4.73-3.25-7.16-4.68a25.27,25.27,0,0,0-3.75-1.88,8.52,8.52,0,0,0-4.1-.7,6.43,6.43,0,0,1,4.37-.14,15.35,15.35,0,0,1,4,1.74A24.71,24.71,0,0,1,626.76,324.64Z" opacity="0.2"/>
<path d="M631.36,305.52c-1.3,1.52-2.65,2.88-3.85,4.35a14.68,14.68,0,0,0-2.93,4.85,5.57,5.57,0,0,1,.45-3,10.05,10.05,0,0,1,1.6-2.58,13.77,13.77,0,0,1,2.17-2.08A10.89,10.89,0,0,1,631.36,305.52Z" opacity="0.2"/>
<path d="M611,342.07a15.5,15.5,0,0,1,6.07-.31,24.38,24.38,0,0,1,5.92,1.55,30.18,30.18,0,0,1,5.38,2.87c.85.55,1.64,1.21,2.44,1.82s1.51,1.35,2.22,2.06c-.87-.51-1.69-1.09-2.55-1.61s-1.7-1-2.57-1.51-1.73-1-2.64-1.37-1.79-.83-2.71-1.2a35.71,35.71,0,0,0-5.64-1.74A23.84,23.84,0,0,0,611,342.07Z" opacity="0.2"/>
<path d="M615.62,366.52a20.42,20.42,0,0,1,3.67-.15,30.23,30.23,0,0,1,3.66.45,28.19,28.19,0,0,1,13.18,6.36,30.53,30.53,0,0,1,2.65,2.56c.81.92,1.54,1.91,2.26,2.89a50.89,50.89,0,0,0-5.45-4.76,37.15,37.15,0,0,0-20-7.35Z" opacity="0.2"/>
<path d="M622.89,386.37a53.1,53.1,0,0,1,13,4.29,33.69,33.69,0,0,1,5.89,3.56,13,13,0,0,1,4.4,5.23,16.42,16.42,0,0,0-4.92-4.51,48.5,48.5,0,0,0-5.87-3.25c-2-1-4.08-1.89-6.16-2.76S625,387.21,622.89,386.37Z" opacity="0.2"/>
<path d="M577.13,396.54c4.39,3.48,8.65,7.11,12.86,10.79s8.32,7.49,12.42,11.3,8,7.82,11.84,11.92,7.55,8.35,10.37,13.21a63.41,63.41,0,0,0-5.26-6.51c-1.85-2.09-3.8-4.09-5.74-6.09-3.94-4-7.92-7.87-12-11.7s-8.14-7.66-12.22-11.48Z" opacity="0.2"/>
<path d="M591.69,409.33a17.4,17.4,0,0,1-.42-3.88,20.66,20.66,0,0,1,.34-3.91,12.66,12.66,0,0,1,1.3-3.75,5.57,5.57,0,0,1,2.86-2.7,7.4,7.4,0,0,0-2,3.08,19.63,19.63,0,0,0-1,3.59C592.25,404.22,592,406.75,591.69,409.33Z" opacity="0.2"/>
<path d="M609.33,403.32a19.84,19.84,0,0,0-2,4.32,33.92,33.92,0,0,0-1.14,4.57c-.31,1.55-.45,3.13-.63,4.71l-.19,2.38c-.06.8-.07,1.61-.17,2.42-.16-.8-.26-1.6-.39-2.4s-.13-1.62-.14-2.44a25.75,25.75,0,0,1,.4-4.87,20.44,20.44,0,0,1,1.44-4.7A11.57,11.57,0,0,1,609.33,403.32Z" opacity="0.2"/>
<path d="M622.16,416.63c-.74,1.4-1.37,2.81-2,4.23a38,38,0,0,0-1.52,4.35,34.1,34.1,0,0,0-1,4.47c-.28,1.52-.41,3.05-.56,4.63a17.47,17.47,0,0,1-.33-4.73,23.54,23.54,0,0,1,.27-2.37c.17-.78.33-1.56.56-2.33a22.55,22.55,0,0,1,1.82-4.4A17.24,17.24,0,0,1,622.16,416.63Z" opacity="0.2"/>
<path d="M575.49,407.17a6,6,0,0,1,2.68-2.07,9.71,9.71,0,0,1,3.36-.71,12.67,12.67,0,0,1,3.37.36c.55.14,1.08.32,1.61.51A16.26,16.26,0,0,1,588,406c-.57,0-1.11-.11-1.66-.18l-1.61-.17a26.34,26.34,0,0,0-3.19-.1,14.81,14.81,0,0,0-3.11.41A10.33,10.33,0,0,0,575.49,407.17Z" opacity="0.2"/>
<path d="M582.28,420.36a19.39,19.39,0,0,1,8.09-4.4,15.88,15.88,0,0,1,4.66-.46,10.66,10.66,0,0,1,4.45,1.32,18.89,18.89,0,0,0-4.46-.43,23.11,23.11,0,0,0-4.37.68,36.86,36.86,0,0,0-4.23,1.42C585,419.07,583.65,419.67,582.28,420.36Z" opacity="0.2"/>
<path d="M592.69,431a19.29,19.29,0,0,1,9-4,16,16,0,0,1,5-.05,13.32,13.32,0,0,1,4.7,1.61,25,25,0,0,0-4.79-.73,22.9,22.9,0,0,0-4.75.3,31.33,31.33,0,0,0-4.66,1.13A43.47,43.47,0,0,0,592.69,431Z" opacity="0.2"/>
<path d="M603.61,439a11.32,11.32,0,0,1,3.17-2.11,18.36,18.36,0,0,1,3.62-1.22,18.18,18.18,0,0,1,7.56-.09c-1.25.21-2.48.34-3.7.54s-2.42.41-3.62.66A40.59,40.59,0,0,0,603.61,439Z" opacity="0.2"/>
<polygon points="621.46 128.13 587.8 203.95 576.43 203.95 610.12 128.09 621.46 128.13" fill="#fff" opacity="0.2"/>
<path d="M690.51,565.78a53.31,53.31,0,0,1-6.93,14.83,10,10,0,0,1-6.13,4.11A130.44,130.44,0,0,1,653,587.6c-1.76,0-3.57,0-5.42,0a128.72,128.72,0,0,1-23.8-2.7,7.39,7.39,0,0,1-3.93-2.23c-19.19-20.82-8.25-43.56-2.74-52.27a42,42,0,0,1,2.56-3.67l56.62-1.33,4.79,2.92C693.66,541.23,693.66,555.11,690.51,565.78Z" fill="#2f2e41" data-secondary="true"/>
<path d="M690.51,565.78a53.31,53.31,0,0,1-6.93,14.83,10,10,0,0,1-6.13,4.11A130.44,130.44,0,0,1,653,587.6c36.07-15.69,23-42.79,23-42.79-6.56-13.8-47-14.49-58.91-14.4a42,42,0,0,1,2.56-3.67l56.62-1.33,4.79,2.92C693.66,541.23,693.66,555.11,690.51,565.78Z" opacity="0.2"/>
<path d="M303.79,598.76s-22.65,3.83-18.14,12.71c0,0,9.72,17.41,29,6.52C314.69,618,317.28,609.31,303.79,598.76Z" fill="#e6e7e8"/>
<rect x="614.58" y="523.02" width="69.11" height="5.32" rx="2.33" fill="#2f2e41" data-secondary="true"/>
<path d="M617.72,490.79c-12.82-20.05-14-33-6.36-37.18s24.34,2.2,32.77,17.61,8.32,35.47,2,38.4S627.18,505.59,617.72,490.79Z" fill="#1ea70c" data-primary="true"/>
<path d="M612.51,455.6c3.38,4.24,6.61,8.58,9.78,12.95s6.2,8.81,9.22,13.27,5.83,9,8.52,13.65,5.24,9.36,6.77,14.37a59.28,59.28,0,0,0-3.48-7.12c-1.28-2.33-2.67-4.61-4.05-6.89-2.84-4.54-5.73-9.05-8.72-13.5s-6-8.92-9-13.38Z" opacity="0.2"/>
<path d="M623.44,470.76a14.34,14.34,0,0,1,.54-3.51,17.72,17.72,0,0,1,1.3-3.32,10.65,10.65,0,0,1,2.19-2.93,5.36,5.36,0,0,1,3.43-1.58,6.81,6.81,0,0,0-2.75,2.14,15.85,15.85,0,0,0-1.84,2.86C625.24,466.45,624.4,468.59,623.44,470.76Z" opacity="0.2"/>
<path d="M642,470.32a16.85,16.85,0,0,0-3,3.23,27.84,27.84,0,0,0-2.23,3.69c-.69,1.27-1.22,2.61-1.78,3.94l-.77,2c-.25.68-.47,1.38-.76,2.06,0-.74.14-1.47.22-2.21s.27-1.45.46-2.16a20.67,20.67,0,0,1,1.59-4.15,17.3,17.3,0,0,1,2.55-3.72A10.63,10.63,0,0,1,642,470.32Z" opacity="0.2"/>
<path d="M649.52,486.63c-1.06,1-.42.92-1.35,2a34.41,34.41,0,0,0-2.54,3.39,28.47,28.47,0,0,0-2.11,3.62c-.65,1.25-1.15,2.56-1.69,3.89a14.61,14.61,0,0,1,.86-4.22,17.38,17.38,0,0,1,.85-2,20.89,20.89,0,0,1,1.11-1.87,18.88,18.88,0,0,1,2.84-3.36A5,5,0,0,1,649.52,486.63Z" opacity="0.2"/>
<path d="M608.3,464.45a5.84,5.84,0,0,1,3.1-1.08,10.67,10.67,0,0,1,3.42.29A14.1,14.1,0,0,1,618,464.9c.49.27,1,.58,1.43.88s.88.68,1.29,1.05c-.54-.18-1.05-.4-1.56-.61l-1.52-.59a28.48,28.48,0,0,0-3.06-1,16.38,16.38,0,0,0-3.11-.49A11,11,0,0,0,608.3,464.45Z" opacity="0.2"/>
<path d="M611.61,477.83a20.3,20.3,0,0,1,8.91-1.64,18,18,0,0,1,4.63.87,11.83,11.83,0,0,1,4,2.37,20.82,20.82,0,0,0-4.22-1.59,25.06,25.06,0,0,0-4.39-.6,36.56,36.56,0,0,0-4.44.09C614.6,477.45,613.11,477.6,611.61,477.83Z" opacity="0.2"/>
<path d="M619.05,490a20.35,20.35,0,0,1,9.72-1,18.21,18.21,0,0,1,4.87,1.32,14.29,14.29,0,0,1,4.15,2.7,26.79,26.79,0,0,0-4.45-1.94,25,25,0,0,0-4.67-1,36.34,36.34,0,0,0-4.79-.28C622.28,489.73,620.67,489.8,619.05,490Z" opacity="0.2"/>
<path d="M627.65,500a11.05,11.05,0,0,1,3.58-1,20.08,20.08,0,0,1,3.8-.08,20.53,20.53,0,0,1,7.35,2c-1.27-.15-2.49-.37-3.72-.53s-2.44-.31-3.66-.41A43,43,0,0,0,627.65,500Z" opacity="0.2"/>
</svg>